<mxfile host="Electron" agent="Mozilla/5.0 (Windows NT 10.0; Win64; x64) AppleWebKit/537.36 (KHTML, like Gecko) draw.io/27.0.9 Chrome/134.0.6998.205 Electron/35.4.0 Safari/537.36" version="27.0.9">
  <diagram name="Page-1" id="sN01fJ6c_13NCUEcTFUF">
    <mxGraphModel dx="1684" dy="510" grid="1" gridSize="10" guides="1" tooltips="1" connect="1" arrows="1" fold="1" page="1" pageScale="1" pageWidth="827" pageHeight="1169" math="0" shadow="0">
      <root>
        <mxCell id="0" />
        <mxCell id="1" parent="0" />
        <mxCell id="UDgbg5_Z1Dpf2GQ_N5UT-2" value="" style="swimlane;startSize=0;fillColor=#808080;" parent="1" vertex="1">
          <mxGeometry width="800" height="600" as="geometry" />
        </mxCell>
        <mxCell id="6uBSnt6w91KRwEMDHv7_-164" value="" style="rounded=0;whiteSpace=wrap;html=1;fillColor=#3399FF;" parent="UDgbg5_Z1Dpf2GQ_N5UT-2" vertex="1">
          <mxGeometry width="800" height="600" as="geometry" />
        </mxCell>
        <mxCell id="6uBSnt6w91KRwEMDHv7_-108" value="" style="rounded=0;whiteSpace=wrap;html=1;fillColor=#37A037;" parent="UDgbg5_Z1Dpf2GQ_N5UT-2" vertex="1">
          <mxGeometry y="270" width="800" height="160" as="geometry" />
        </mxCell>
        <mxCell id="6uBSnt6w91KRwEMDHv7_-16" value="" style="rounded=0;whiteSpace=wrap;html=1;strokeColor=#808080;fillColor=#808080;" parent="UDgbg5_Z1Dpf2GQ_N5UT-2" vertex="1">
          <mxGeometry y="430" width="800" height="170" as="geometry" />
        </mxCell>
        <mxCell id="6uBSnt6w91KRwEMDHv7_-55" value="" style="triangle;whiteSpace=wrap;html=1;rotation=-90;fillColor=light-dark(#37a037, #6fc76f);" parent="UDgbg5_Z1Dpf2GQ_N5UT-2" vertex="1">
          <mxGeometry x="-87.5" y="-43.75" width="315" height="420" as="geometry" />
        </mxCell>
        <mxCell id="6uBSnt6w91KRwEMDHv7_-63" value="ini matahari" style="ellipse;whiteSpace=wrap;html=1;aspect=fixed;fillColor=#FFFF00;" parent="UDgbg5_Z1Dpf2GQ_N5UT-2" vertex="1">
          <mxGeometry x="355" y="20" width="80" height="80" as="geometry" />
        </mxCell>
        <mxCell id="6uBSnt6w91KRwEMDHv7_-102" value="" style="triangle;whiteSpace=wrap;html=1;rotation=-90;fillColor=#37A037;fillStyle=auto;" parent="UDgbg5_Z1Dpf2GQ_N5UT-2" vertex="1">
          <mxGeometry x="135" width="315" height="420" as="geometry" />
        </mxCell>
        <mxCell id="6uBSnt6w91KRwEMDHv7_-103" value="" style="triangle;whiteSpace=wrap;html=1;rotation=-90;fillColor=light-dark(#37a037, #6fc76f);" parent="UDgbg5_Z1Dpf2GQ_N5UT-2" vertex="1">
          <mxGeometry x="385" y="-15" width="315" height="420" as="geometry" />
        </mxCell>
        <mxCell id="6uBSnt6w91KRwEMDHv7_-104" value="" style="triangle;whiteSpace=wrap;html=1;rotation=-90;fillColor=light-dark(#37a037, #6fc76f);" parent="UDgbg5_Z1Dpf2GQ_N5UT-2" vertex="1">
          <mxGeometry x="610" y="60" width="315" height="420" as="geometry" />
        </mxCell>
        <mxCell id="6uBSnt6w91KRwEMDHv7_-107" value="" style="group" parent="UDgbg5_Z1Dpf2GQ_N5UT-2" vertex="1" connectable="0">
          <mxGeometry y="390" width="700" height="50" as="geometry" />
        </mxCell>
        <mxCell id="6uBSnt6w91KRwEMDHv7_-19" value="" style="rounded=0;whiteSpace=wrap;html=1;fillColor=#CC6600;" parent="6uBSnt6w91KRwEMDHv7_-107" vertex="1">
          <mxGeometry x="90" width="10" height="50" as="geometry" />
        </mxCell>
        <mxCell id="6uBSnt6w91KRwEMDHv7_-18" value="" style="rounded=0;whiteSpace=wrap;html=1;fillColor=#CC6600;" parent="6uBSnt6w91KRwEMDHv7_-107" vertex="1">
          <mxGeometry width="100" height="5" as="geometry" />
        </mxCell>
        <mxCell id="6uBSnt6w91KRwEMDHv7_-20" value="" style="rounded=0;whiteSpace=wrap;html=1;fillColor=#CC6600;" parent="6uBSnt6w91KRwEMDHv7_-107" vertex="1">
          <mxGeometry y="15" width="100" height="5" as="geometry" />
        </mxCell>
        <mxCell id="6uBSnt6w91KRwEMDHv7_-21" value="" style="rounded=0;whiteSpace=wrap;html=1;fillColor=#CC6600;" parent="6uBSnt6w91KRwEMDHv7_-107" vertex="1">
          <mxGeometry y="30" width="100" height="5" as="geometry" />
        </mxCell>
        <mxCell id="6uBSnt6w91KRwEMDHv7_-71" value="" style="group" parent="6uBSnt6w91KRwEMDHv7_-107" vertex="1" connectable="0">
          <mxGeometry x="100" width="100" height="50" as="geometry" />
        </mxCell>
        <mxCell id="6uBSnt6w91KRwEMDHv7_-67" value="" style="rounded=0;whiteSpace=wrap;html=1;fillColor=#CC6600;" parent="6uBSnt6w91KRwEMDHv7_-71" vertex="1">
          <mxGeometry x="90" width="10" height="50" as="geometry" />
        </mxCell>
        <mxCell id="6uBSnt6w91KRwEMDHv7_-68" value="" style="rounded=0;whiteSpace=wrap;html=1;fillColor=#CC6600;" parent="6uBSnt6w91KRwEMDHv7_-71" vertex="1">
          <mxGeometry width="100" height="5" as="geometry" />
        </mxCell>
        <mxCell id="6uBSnt6w91KRwEMDHv7_-69" value="" style="rounded=0;whiteSpace=wrap;html=1;fillColor=#CC6600;" parent="6uBSnt6w91KRwEMDHv7_-71" vertex="1">
          <mxGeometry y="15" width="100" height="5" as="geometry" />
        </mxCell>
        <mxCell id="6uBSnt6w91KRwEMDHv7_-70" value="" style="rounded=0;whiteSpace=wrap;html=1;fillColor=#CC6600;" parent="6uBSnt6w91KRwEMDHv7_-71" vertex="1">
          <mxGeometry y="30" width="100" height="5" as="geometry" />
        </mxCell>
        <mxCell id="6uBSnt6w91KRwEMDHv7_-72" value="" style="group" parent="6uBSnt6w91KRwEMDHv7_-107" vertex="1" connectable="0">
          <mxGeometry x="200" width="100" height="50" as="geometry" />
        </mxCell>
        <mxCell id="6uBSnt6w91KRwEMDHv7_-73" value="" style="rounded=0;whiteSpace=wrap;html=1;fillColor=#CC6600;" parent="6uBSnt6w91KRwEMDHv7_-72" vertex="1">
          <mxGeometry x="90" width="10" height="50" as="geometry" />
        </mxCell>
        <mxCell id="6uBSnt6w91KRwEMDHv7_-74" value="" style="rounded=0;whiteSpace=wrap;html=1;fillColor=#CC6600;" parent="6uBSnt6w91KRwEMDHv7_-72" vertex="1">
          <mxGeometry width="100" height="5" as="geometry" />
        </mxCell>
        <mxCell id="6uBSnt6w91KRwEMDHv7_-75" value="" style="rounded=0;whiteSpace=wrap;html=1;fillColor=#CC6600;" parent="6uBSnt6w91KRwEMDHv7_-72" vertex="1">
          <mxGeometry y="15" width="100" height="5" as="geometry" />
        </mxCell>
        <mxCell id="6uBSnt6w91KRwEMDHv7_-76" value="" style="rounded=0;whiteSpace=wrap;html=1;fillColor=#CC6600;" parent="6uBSnt6w91KRwEMDHv7_-72" vertex="1">
          <mxGeometry y="30" width="100" height="5" as="geometry" />
        </mxCell>
        <mxCell id="6uBSnt6w91KRwEMDHv7_-77" value="" style="group" parent="6uBSnt6w91KRwEMDHv7_-107" vertex="1" connectable="0">
          <mxGeometry x="300" width="100" height="50" as="geometry" />
        </mxCell>
        <mxCell id="6uBSnt6w91KRwEMDHv7_-78" value="" style="rounded=0;whiteSpace=wrap;html=1;fillColor=#CC6600;" parent="6uBSnt6w91KRwEMDHv7_-77" vertex="1">
          <mxGeometry x="90" width="10" height="50" as="geometry" />
        </mxCell>
        <mxCell id="6uBSnt6w91KRwEMDHv7_-79" value="" style="rounded=0;whiteSpace=wrap;html=1;fillColor=#CC6600;" parent="6uBSnt6w91KRwEMDHv7_-77" vertex="1">
          <mxGeometry width="100" height="5" as="geometry" />
        </mxCell>
        <mxCell id="6uBSnt6w91KRwEMDHv7_-80" value="" style="rounded=0;whiteSpace=wrap;html=1;fillColor=#CC6600;" parent="6uBSnt6w91KRwEMDHv7_-77" vertex="1">
          <mxGeometry y="15" width="100" height="5" as="geometry" />
        </mxCell>
        <mxCell id="6uBSnt6w91KRwEMDHv7_-81" value="" style="rounded=0;whiteSpace=wrap;html=1;fillColor=#CC6600;" parent="6uBSnt6w91KRwEMDHv7_-77" vertex="1">
          <mxGeometry y="30" width="100" height="5" as="geometry" />
        </mxCell>
        <mxCell id="6uBSnt6w91KRwEMDHv7_-82" value="" style="group" parent="6uBSnt6w91KRwEMDHv7_-107" vertex="1" connectable="0">
          <mxGeometry x="400" width="100" height="50" as="geometry" />
        </mxCell>
        <mxCell id="6uBSnt6w91KRwEMDHv7_-83" value="" style="rounded=0;whiteSpace=wrap;html=1;fillColor=#CC6600;" parent="6uBSnt6w91KRwEMDHv7_-82" vertex="1">
          <mxGeometry x="90" width="10" height="50" as="geometry" />
        </mxCell>
        <mxCell id="6uBSnt6w91KRwEMDHv7_-84" value="" style="rounded=0;whiteSpace=wrap;html=1;fillColor=#CC6600;" parent="6uBSnt6w91KRwEMDHv7_-82" vertex="1">
          <mxGeometry width="100" height="5" as="geometry" />
        </mxCell>
        <mxCell id="6uBSnt6w91KRwEMDHv7_-85" value="" style="rounded=0;whiteSpace=wrap;html=1;fillColor=#CC6600;" parent="6uBSnt6w91KRwEMDHv7_-82" vertex="1">
          <mxGeometry y="15" width="100" height="5" as="geometry" />
        </mxCell>
        <mxCell id="6uBSnt6w91KRwEMDHv7_-86" value="" style="rounded=0;whiteSpace=wrap;html=1;fillColor=#CC6600;" parent="6uBSnt6w91KRwEMDHv7_-82" vertex="1">
          <mxGeometry y="30" width="100" height="5" as="geometry" />
        </mxCell>
        <mxCell id="6uBSnt6w91KRwEMDHv7_-87" value="" style="group" parent="6uBSnt6w91KRwEMDHv7_-107" vertex="1" connectable="0">
          <mxGeometry x="500" width="100" height="50" as="geometry" />
        </mxCell>
        <mxCell id="6uBSnt6w91KRwEMDHv7_-88" value="" style="rounded=0;whiteSpace=wrap;html=1;fillColor=#CC6600;" parent="6uBSnt6w91KRwEMDHv7_-87" vertex="1">
          <mxGeometry x="90" width="10" height="50" as="geometry" />
        </mxCell>
        <mxCell id="6uBSnt6w91KRwEMDHv7_-89" value="" style="rounded=0;whiteSpace=wrap;html=1;fillColor=#CC6600;" parent="6uBSnt6w91KRwEMDHv7_-87" vertex="1">
          <mxGeometry width="100" height="5" as="geometry" />
        </mxCell>
        <mxCell id="6uBSnt6w91KRwEMDHv7_-90" value="" style="rounded=0;whiteSpace=wrap;html=1;fillColor=#CC6600;" parent="6uBSnt6w91KRwEMDHv7_-87" vertex="1">
          <mxGeometry y="15" width="100" height="5" as="geometry" />
        </mxCell>
        <mxCell id="6uBSnt6w91KRwEMDHv7_-91" value="" style="rounded=0;whiteSpace=wrap;html=1;fillColor=#CC6600;" parent="6uBSnt6w91KRwEMDHv7_-87" vertex="1">
          <mxGeometry y="30" width="100" height="5" as="geometry" />
        </mxCell>
        <mxCell id="6uBSnt6w91KRwEMDHv7_-92" value="" style="group" parent="6uBSnt6w91KRwEMDHv7_-107" vertex="1" connectable="0">
          <mxGeometry x="600" width="100" height="50" as="geometry" />
        </mxCell>
        <mxCell id="6uBSnt6w91KRwEMDHv7_-93" value="" style="rounded=0;whiteSpace=wrap;html=1;fillColor=#CC6600;" parent="6uBSnt6w91KRwEMDHv7_-92" vertex="1">
          <mxGeometry x="90" width="10" height="50" as="geometry" />
        </mxCell>
        <mxCell id="6uBSnt6w91KRwEMDHv7_-94" value="" style="rounded=0;whiteSpace=wrap;html=1;fillColor=#CC6600;" parent="6uBSnt6w91KRwEMDHv7_-92" vertex="1">
          <mxGeometry width="100" height="5" as="geometry" />
        </mxCell>
        <mxCell id="6uBSnt6w91KRwEMDHv7_-95" value="" style="rounded=0;whiteSpace=wrap;html=1;fillColor=#CC6600;" parent="6uBSnt6w91KRwEMDHv7_-92" vertex="1">
          <mxGeometry y="15" width="100" height="5" as="geometry" />
        </mxCell>
        <mxCell id="6uBSnt6w91KRwEMDHv7_-96" value="" style="rounded=0;whiteSpace=wrap;html=1;fillColor=#CC6600;" parent="6uBSnt6w91KRwEMDHv7_-92" vertex="1">
          <mxGeometry y="30" width="100" height="5" as="geometry" />
        </mxCell>
        <mxCell id="6uBSnt6w91KRwEMDHv7_-111" value="" style="rounded=0;whiteSpace=wrap;html=1;fillColor=#37A037;" parent="UDgbg5_Z1Dpf2GQ_N5UT-2" vertex="1">
          <mxGeometry x="490" y="345" width="40" height="30" as="geometry" />
        </mxCell>
        <mxCell id="6uBSnt6w91KRwEMDHv7_-141" value="" style="group" parent="UDgbg5_Z1Dpf2GQ_N5UT-2" vertex="1" connectable="0">
          <mxGeometry x="160" y="60" width="109" height="70" as="geometry" />
        </mxCell>
        <mxCell id="6uBSnt6w91KRwEMDHv7_-128" value="" style="ellipse;whiteSpace=wrap;html=1;aspect=fixed;" parent="6uBSnt6w91KRwEMDHv7_-141" vertex="1">
          <mxGeometry y="11.550000000000068" width="40" height="40" as="geometry" />
        </mxCell>
        <mxCell id="6uBSnt6w91KRwEMDHv7_-130" value="" style="ellipse;whiteSpace=wrap;html=1;aspect=fixed;" parent="6uBSnt6w91KRwEMDHv7_-141" vertex="1">
          <mxGeometry x="14" width="40" height="40" as="geometry" />
        </mxCell>
        <mxCell id="6uBSnt6w91KRwEMDHv7_-131" value="" style="ellipse;whiteSpace=wrap;html=1;aspect=fixed;" parent="6uBSnt6w91KRwEMDHv7_-141" vertex="1">
          <mxGeometry x="50" width="40" height="40" as="geometry" />
        </mxCell>
        <mxCell id="6uBSnt6w91KRwEMDHv7_-132" value="" style="ellipse;whiteSpace=wrap;html=1;aspect=fixed;" parent="6uBSnt6w91KRwEMDHv7_-141" vertex="1">
          <mxGeometry x="69" y="12.549999999999955" width="40" height="40" as="geometry" />
        </mxCell>
        <mxCell id="6uBSnt6w91KRwEMDHv7_-133" value="" style="ellipse;whiteSpace=wrap;html=1;aspect=fixed;" parent="6uBSnt6w91KRwEMDHv7_-141" vertex="1">
          <mxGeometry x="54" y="30" width="40" height="40" as="geometry" />
        </mxCell>
        <mxCell id="6uBSnt6w91KRwEMDHv7_-134" value="" style="ellipse;whiteSpace=wrap;html=1;aspect=fixed;" parent="6uBSnt6w91KRwEMDHv7_-141" vertex="1">
          <mxGeometry x="14" y="30" width="40" height="40" as="geometry" />
        </mxCell>
        <mxCell id="6uBSnt6w91KRwEMDHv7_-129" value="" style="rounded=0;whiteSpace=wrap;html=1;" parent="6uBSnt6w91KRwEMDHv7_-141" vertex="1">
          <mxGeometry x="14" y="12.549999999999955" width="80" height="40" as="geometry" />
        </mxCell>
        <mxCell id="6uBSnt6w91KRwEMDHv7_-136" value="" style="rounded=0;whiteSpace=wrap;html=1;" parent="6uBSnt6w91KRwEMDHv7_-141" vertex="1">
          <mxGeometry x="34" y="10.549999999999955" width="40" height="20" as="geometry" />
        </mxCell>
        <mxCell id="6uBSnt6w91KRwEMDHv7_-137" value="" style="rounded=0;whiteSpace=wrap;html=1;" parent="6uBSnt6w91KRwEMDHv7_-141" vertex="1">
          <mxGeometry x="34" y="34.549999999999955" width="40" height="20" as="geometry" />
        </mxCell>
        <mxCell id="6uBSnt6w91KRwEMDHv7_-140" value="" style="rounded=0;whiteSpace=wrap;html=1;" parent="6uBSnt6w91KRwEMDHv7_-141" vertex="1">
          <mxGeometry x="11" y="15.55" width="10" height="10" as="geometry" />
        </mxCell>
        <mxCell id="GhcVFOn_v8Yz46MTfo1f-1" value="" style="rounded=0;whiteSpace=wrap;html=1;fillColor=#4D4D4D;" vertex="1" parent="UDgbg5_Z1Dpf2GQ_N5UT-2">
          <mxGeometry y="490" width="800" height="110" as="geometry" />
        </mxCell>
        <mxCell id="GhcVFOn_v8Yz46MTfo1f-3" value="" style="endArrow=none;html=1;rounded=0;exitX=0;exitY=0.5;exitDx=0;exitDy=0;entryX=1;entryY=0.5;entryDx=0;entryDy=0;dashed=1;dashPattern=8 8;strokeWidth=5;strokeColor=#FFFFFF;" edge="1" parent="UDgbg5_Z1Dpf2GQ_N5UT-2" source="GhcVFOn_v8Yz46MTfo1f-1" target="GhcVFOn_v8Yz46MTfo1f-1">
          <mxGeometry width="50" height="50" relative="1" as="geometry">
            <mxPoint x="450" y="460" as="sourcePoint" />
            <mxPoint x="500" y="410" as="targetPoint" />
          </mxGeometry>
        </mxCell>
        <mxCell id="GhcVFOn_v8Yz46MTfo1f-4" value="" style="rounded=0;whiteSpace=wrap;html=1;" vertex="1" parent="UDgbg5_Z1Dpf2GQ_N5UT-2">
          <mxGeometry x="40" y="550" width="40" height="60" as="geometry" />
        </mxCell>
        <mxCell id="6uBSnt6w91KRwEMDHv7_-64" value="" style="group" parent="UDgbg5_Z1Dpf2GQ_N5UT-2" vertex="1" connectable="0">
          <mxGeometry x="10" y="430" width="290" height="132.55000000000007" as="geometry" />
        </mxCell>
        <mxCell id="6uBSnt6w91KRwEMDHv7_-1" value="" style="triangle;whiteSpace=wrap;html=1;rotation=-90;strokeColor=#000000;fillColor=#666666;" parent="6uBSnt6w91KRwEMDHv7_-64" vertex="1">
          <mxGeometry x="19.75" y="-18" width="50" height="86" as="geometry" />
        </mxCell>
        <mxCell id="6uBSnt6w91KRwEMDHv7_-2" value="" style="shape=card;whiteSpace=wrap;html=1;rotation=90;size=120;strokeColor=#000000;fillColor=#666666;" parent="6uBSnt6w91KRwEMDHv7_-64" vertex="1">
          <mxGeometry x="120" y="-74.49000000000001" width="50" height="200" as="geometry" />
        </mxCell>
        <mxCell id="6uBSnt6w91KRwEMDHv7_-3" value="" style="rounded=0;whiteSpace=wrap;html=1;strokeColor=#000000;fillColor=#999900;" parent="6uBSnt6w91KRwEMDHv7_-64" vertex="1">
          <mxGeometry y="50.50999999999999" width="290" height="60" as="geometry" />
        </mxCell>
        <mxCell id="6uBSnt6w91KRwEMDHv7_-5" value="" style="whiteSpace=wrap;html=1;aspect=fixed;strokeColor=#000000;fillColor=#666666;" parent="6uBSnt6w91KRwEMDHv7_-64" vertex="1">
          <mxGeometry x="100" y="0.5099999999999909" width="50" height="50" as="geometry" />
        </mxCell>
        <mxCell id="6uBSnt6w91KRwEMDHv7_-6" value="" style="rounded=0;whiteSpace=wrap;html=1;strokeColor=#000000;fillColor=#0000FF;" parent="6uBSnt6w91KRwEMDHv7_-64" vertex="1">
          <mxGeometry x="270" y="60.50999999999999" width="20" height="10" as="geometry" />
        </mxCell>
        <mxCell id="6uBSnt6w91KRwEMDHv7_-7" value="" style="rounded=0;whiteSpace=wrap;html=1;strokeColor=#000000;fillColor=#999900;" parent="6uBSnt6w91KRwEMDHv7_-64" vertex="1">
          <mxGeometry x="100" y="50.50999999999999" width="50" height="60" as="geometry" />
        </mxCell>
        <mxCell id="6uBSnt6w91KRwEMDHv7_-9" value="" style="rounded=0;whiteSpace=wrap;html=1;strokeColor=#000000;fillColor=#FF3333;" parent="6uBSnt6w91KRwEMDHv7_-64" vertex="1">
          <mxGeometry y="60.50999999999999" width="20" height="10" as="geometry" />
        </mxCell>
        <mxCell id="6uBSnt6w91KRwEMDHv7_-10" value="" style="ellipse;whiteSpace=wrap;html=1;aspect=fixed;strokeColor=#000000;fillColor=#4D4D4D;" parent="6uBSnt6w91KRwEMDHv7_-64" vertex="1">
          <mxGeometry x="33" y="90.50999999999999" width="40" height="40" as="geometry" />
        </mxCell>
        <mxCell id="6uBSnt6w91KRwEMDHv7_-11" value="" style="ellipse;whiteSpace=wrap;html=1;aspect=fixed;strokeColor=#000000;fillColor=#4D4D4D;" parent="6uBSnt6w91KRwEMDHv7_-64" vertex="1">
          <mxGeometry x="220" y="92.55000000000007" width="40" height="40" as="geometry" />
        </mxCell>
        <mxCell id="6uBSnt6w91KRwEMDHv7_-12" value="" style="rounded=0;whiteSpace=wrap;html=1;" parent="6uBSnt6w91KRwEMDHv7_-64" vertex="1">
          <mxGeometry x="106" y="64.00999999999999" width="8" height="3" as="geometry" />
        </mxCell>
        <mxCell id="6uBSnt6w91KRwEMDHv7_-13" value="" style="rounded=0;whiteSpace=wrap;html=1;" parent="6uBSnt6w91KRwEMDHv7_-64" vertex="1">
          <mxGeometry x="156" y="64.00999999999999" width="8" height="3" as="geometry" />
        </mxCell>
        <mxCell id="6uBSnt6w91KRwEMDHv7_-14" value="" style="ellipse;whiteSpace=wrap;html=1;aspect=fixed;strokeColor=#000000;fillColor=#000000;" parent="6uBSnt6w91KRwEMDHv7_-64" vertex="1">
          <mxGeometry x="50.5" y="108.00999999999999" width="5" height="5" as="geometry" />
        </mxCell>
        <mxCell id="6uBSnt6w91KRwEMDHv7_-15" value="" style="ellipse;whiteSpace=wrap;html=1;aspect=fixed;strokeColor=#000000;fillColor=#000000;" parent="6uBSnt6w91KRwEMDHv7_-64" vertex="1">
          <mxGeometry x="237.5" y="110.05000000000007" width="5" height="5" as="geometry" />
        </mxCell>
        <mxCell id="6uBSnt6w91KRwEMDHv7_-4" style="rounded=0;orthogonalLoop=1;jettySize=auto;html=1;exitX=0;exitY=1;exitDx=0;exitDy=0;entryX=0;entryY=0;entryDx=0;entryDy=0;endArrow=none;startFill=0;exitPerimeter=0;strokeColor=#000000;" parent="6uBSnt6w91KRwEMDHv7_-64" source="6uBSnt6w91KRwEMDHv7_-2" target="6uBSnt6w91KRwEMDHv7_-3" edge="1">
          <mxGeometry relative="1" as="geometry">
            <mxPoint x="40" y="0.5099999999999909" as="sourcePoint" />
          </mxGeometry>
        </mxCell>
        <mxCell id="GhcVFOn_v8Yz46MTfo1f-5" value="" style="group" vertex="1" connectable="0" parent="UDgbg5_Z1Dpf2GQ_N5UT-2">
          <mxGeometry x="10" y="220" width="290" height="132.55000000000007" as="geometry" />
        </mxCell>
        <mxCell id="GhcVFOn_v8Yz46MTfo1f-6" value="" style="triangle;whiteSpace=wrap;html=1;rotation=-90;strokeColor=#000000;fillColor=#666666;" vertex="1" parent="GhcVFOn_v8Yz46MTfo1f-5">
          <mxGeometry x="19.75" y="-18" width="50" height="86" as="geometry" />
        </mxCell>
        <mxCell id="GhcVFOn_v8Yz46MTfo1f-7" value="" style="shape=card;whiteSpace=wrap;html=1;rotation=90;size=120;strokeColor=#000000;fillColor=#666666;" vertex="1" parent="GhcVFOn_v8Yz46MTfo1f-5">
          <mxGeometry x="120" y="-74.49000000000001" width="50" height="200" as="geometry" />
        </mxCell>
        <mxCell id="GhcVFOn_v8Yz46MTfo1f-8" value="" style="rounded=0;whiteSpace=wrap;html=1;strokeColor=#000000;fillColor=#999900;" vertex="1" parent="GhcVFOn_v8Yz46MTfo1f-5">
          <mxGeometry y="50.50999999999999" width="290" height="60" as="geometry" />
        </mxCell>
        <mxCell id="GhcVFOn_v8Yz46MTfo1f-9" value="" style="whiteSpace=wrap;html=1;aspect=fixed;strokeColor=#000000;fillColor=#666666;" vertex="1" parent="GhcVFOn_v8Yz46MTfo1f-5">
          <mxGeometry x="100" y="0.5099999999999909" width="50" height="50" as="geometry" />
        </mxCell>
        <mxCell id="GhcVFOn_v8Yz46MTfo1f-10" value="" style="rounded=0;whiteSpace=wrap;html=1;strokeColor=#000000;fillColor=#0000FF;" vertex="1" parent="GhcVFOn_v8Yz46MTfo1f-5">
          <mxGeometry x="270" y="60.50999999999999" width="20" height="10" as="geometry" />
        </mxCell>
        <mxCell id="GhcVFOn_v8Yz46MTfo1f-11" value="" style="rounded=0;whiteSpace=wrap;html=1;strokeColor=#000000;fillColor=#999900;" vertex="1" parent="GhcVFOn_v8Yz46MTfo1f-5">
          <mxGeometry x="100" y="50.50999999999999" width="50" height="60" as="geometry" />
        </mxCell>
        <mxCell id="GhcVFOn_v8Yz46MTfo1f-12" value="" style="rounded=0;whiteSpace=wrap;html=1;strokeColor=#000000;fillColor=#FF3333;" vertex="1" parent="GhcVFOn_v8Yz46MTfo1f-5">
          <mxGeometry y="60.50999999999999" width="20" height="10" as="geometry" />
        </mxCell>
        <mxCell id="GhcVFOn_v8Yz46MTfo1f-13" value="" style="ellipse;whiteSpace=wrap;html=1;aspect=fixed;strokeColor=#000000;fillColor=#4D4D4D;" vertex="1" parent="GhcVFOn_v8Yz46MTfo1f-5">
          <mxGeometry x="33" y="90.50999999999999" width="40" height="40" as="geometry" />
        </mxCell>
        <mxCell id="GhcVFOn_v8Yz46MTfo1f-14" value="" style="ellipse;whiteSpace=wrap;html=1;aspect=fixed;strokeColor=#000000;fillColor=#4D4D4D;" vertex="1" parent="GhcVFOn_v8Yz46MTfo1f-5">
          <mxGeometry x="220" y="92.55000000000007" width="40" height="40" as="geometry" />
        </mxCell>
        <mxCell id="GhcVFOn_v8Yz46MTfo1f-15" value="" style="rounded=0;whiteSpace=wrap;html=1;" vertex="1" parent="GhcVFOn_v8Yz46MTfo1f-5">
          <mxGeometry x="106" y="64.00999999999999" width="8" height="3" as="geometry" />
        </mxCell>
        <mxCell id="GhcVFOn_v8Yz46MTfo1f-16" value="" style="rounded=0;whiteSpace=wrap;html=1;" vertex="1" parent="GhcVFOn_v8Yz46MTfo1f-5">
          <mxGeometry x="156" y="64.00999999999999" width="8" height="3" as="geometry" />
        </mxCell>
        <mxCell id="GhcVFOn_v8Yz46MTfo1f-17" value="" style="ellipse;whiteSpace=wrap;html=1;aspect=fixed;strokeColor=#000000;fillColor=#000000;" vertex="1" parent="GhcVFOn_v8Yz46MTfo1f-5">
          <mxGeometry x="50.5" y="108.00999999999999" width="5" height="5" as="geometry" />
        </mxCell>
        <mxCell id="GhcVFOn_v8Yz46MTfo1f-18" value="" style="ellipse;whiteSpace=wrap;html=1;aspect=fixed;strokeColor=#000000;fillColor=#000000;" vertex="1" parent="GhcVFOn_v8Yz46MTfo1f-5">
          <mxGeometry x="237.5" y="110.05000000000007" width="5" height="5" as="geometry" />
        </mxCell>
        <mxCell id="GhcVFOn_v8Yz46MTfo1f-19" style="rounded=0;orthogonalLoop=1;jettySize=auto;html=1;exitX=0;exitY=1;exitDx=0;exitDy=0;entryX=0;entryY=0;entryDx=0;entryDy=0;endArrow=none;startFill=0;exitPerimeter=0;strokeColor=#000000;" edge="1" parent="GhcVFOn_v8Yz46MTfo1f-5" source="GhcVFOn_v8Yz46MTfo1f-7" target="GhcVFOn_v8Yz46MTfo1f-8">
          <mxGeometry relative="1" as="geometry">
            <mxPoint x="40" y="0.5099999999999909" as="sourcePoint" />
          </mxGeometry>
        </mxCell>
        <mxCell id="UDgbg5_Z1Dpf2GQ_N5UT-1" value="" style="shape=image;verticalLabelPosition=bottom;labelBackgroundColor=default;verticalAlign=top;aspect=fixed;imageAspect=0;image=data:image/jpeg,/9j/4AAQSkZJRgABAQAAAQABAAD/2wCEAAkGBxMTEhUTExMWFhUXGBgaGBcYFxoaGxgaGBkYGhgaHhkeHyggHRolGxgdITEiJSkrLi4wHR8zODMsNygtLisBCgoKDg0OGxAQGi0lICUtLS0tLS0tLS0tLS0vLS0tLS0tLS0tLS0tLS0tLS0tLS0tLS0tLS0tLS0tLS0tLS0tLf/AABEIAK8BHwMBIgACEQEDEQH/xAAbAAACAwEBAQAAAAAAAAAAAAAEBQIDBgEAB//EAEIQAAECBAQDBgUBBQcCBwAAAAECEQADITEEEkFRBWGBBhMicZGhMrHB0fBCFCNS4fEHFjNUYnKSgsIVJENTorLS/8QAGgEAAwEBAQEAAAAAAAAAAAAAAAECAwQFBv/EACcRAAICAgIDAAEDBQAAAAAAAAABAhESIQMxE0FRBBRhsQVCUoGh/9oADAMBAAIRAxEAPwD6VgyEjnF0zHK3hPLnGL0JJgGHLn5gyqxZJICWDNAnd84k0JsaQWic2sU4mUDFNokJkKx0DrkERPDzGi2aXiMqXBY6GWGnwSqcIowsgQaZQ2gJYoxCySRRojgUtckjnFXGZGTxJVU6GFhxK2aNoxtaMpTSezULWlSTCfEz1DWm4hUnELAYKiudMJSzl9ecWuKmZy5tFmI4ktiklxvyhQqT18oJKIiEx0xSj0cc25dgolx7LBBREckaWYNFWWOhEWZYkEwBRWERJKItCYmlMKxpFaU7RIIi0Ii1KImy1EoEqJplReERMS4mylEoMiOnDkQWhETyPE5F4ICEiPTcqUlSiABcmKuL8XlSJSllSVEDwoCkuou1PmfIx894vxWbOOaYWDjwB8oo9t71MS5lR47HWP7YMr9ygFH8S3Dtdg9B5wqxvafEzEqTmSlCg2VKEhhei2zV1rC6XJNx6NuHPnrHFIAADV+f48ZuVmyikPuA9p1SglM394hw7k50B6lKrltj5Uhn2l7VBKUfsc1youpTWAskhQuSfbnGN7p62Y1cszmBFu76bU8tYVjN1wj+0KchhOSmYN0+BX2PoLxr+F9t8HNvMMss7TGSP+T5fePjIPmPrF9R4lirUADa6hucS0ilJo+4fsYZ0wHMxGUsfaBE4qYf1GLSoqNaw1xtdleVPoKl4kEPblEv2lopEoGzCJCU0LBFZsKE1JFYklCNDAwlRaJcS4ItTZaoJjkucHtERJ1j3dQYIHJh8jFp8omnGjeF2SPZIMEGTJY7FZ9KQvmpcvBhRETLi40jKVsAMuK1Soc4bAZ3q3SB5uGAUQTbaLXIZvjFRlRWZcNEoYhmg3EKSpISUhx+aRT5aJ8NiXCcMXMqkU3NBD3hfCpeQpWlKiblq9DcR7DUoKCDZSim0ZT5WzWHDGOxLjuzuVOZCs3Iiv8AWFeIwSkFlpKTzjbGa8UY2SmanKabGHHnfszn+NF9GORIJsCYsRKDXrt/OHuH4OpK3eg94sn8JALkOOVIt8yIX47oQBDRMJjRfskspKSkJ2LVB84xs7tdhJc0yzLUqWksZ1KkFiQkVKb/AGheWx+CholMEJwymfKW3aMX2r7aJmI7rDJKEOxmDwlQYFhYg3F/5IpvHMR4SqfN8CWSy1UrajEk7m46Qs2x4Jez6RjMbKlBRmTEpypzEFQzN5Xr5RgOPdq1z8qEDu0agKLqpqoMGfSEZxLlS1uVKdzclSjUm0UoYswqLj81gyFRcZAUUmwu5oGESxSbtoRe1TT5xHDkrcGrabuA9NooxM1RoaAhg1i39W9IiyrPLmlagEuBe+o1p5x5M5ixAPKvSvlaKhJL3FWqDExLKjuwpoXFD016wwGODIU4ZixYelCdReAziFAFkgEnK5/SBceo1iOHUtKwQoqI0ILHT8MSxkxAmKFan0JFR6vGbewbIqxBlj4EknZ2ew5Xgaeol3U515QwTLWEulR6E/gP2i2Th0zGzpIWNcrPzpSHkOmfWJWFJi9GGO0A4PtPJVRSFpNizEerv7RocPi05QoKGXd6UhvkZsuJA0jBKVUCJKw5SWIYxVje0ctH+H41cvhHXXpFSO0yiCFS0kix06j112jN8tdmq4X6DBKifdwtw/F1BSu8S4Z/CAG+8PMApExOYPzBuIFyxY5cTj2DCXHe6hmZCY6mQnaKyJFwwxNo6rC0DAvDLuxpHssTkx6FycEdveJpwAa5eDhESqDJioWlJlnkeUQmLS1qm8N6EMYFnYFJtSGmhbEakxFKCab6n7w+lykPRIDesF8jFeQjAzsjDFKq25GClqAoHbm32g7EIlh/CH5CABCbspKi3vDdNOURTOL1iaJescmpUfOJGT/aQkXeKzjQASogAanaA8UQhJXMUEpS5JJYR807XdoDPU0s/wDl0kMLd4Q7q3bYeRikrJk6D+2fahU9SpUg/uaDMLzFCp8kgjrGRmS0j/EKg9kpHKjnb+cUpm3JPl+efyiM2ZQVrX5Ui6oxcrOEMDS7Mfc06R7FzM2VqFtDo9OsRmqcNpoT0LRXLYn8q14CK9Hgun5pHlzgSWA948Fioby9bv0jslXiJykjSnp/WCxJqrLpU3I7OCK1OugECZnBb0+r+cTKgSq96Jc682q0E4bh5UjOJaiNebChA2HvWJtdsaVgoRVLfERUDQ6V1MX4bBzNQQCDU7Aae1YhIkrmrCJbkDUfpr7B41UmTLRq6w7n/Vq21YWVFQiBLl5RX41BNWHhFG69IGl4JyxChmJJt4g28dx+LDku6ga0JAeDsDKUplJWlxmoQdeVPtGWWykrZ4YJKAwDDZyYWY/HsGll9yzj7Qy4rNRKRnmeM2Gjn8rGWXjqPRINgzsAVV2Og6Q9+inrR9COOkp+EEkPWwP1aPGafiVUn29IUYah/iUSA7UBBNoZIDBQJLX5UG2tHhuNHSpNhGDxLltNzqfK8M0Ecv5mEKJjlmu5rvb6UhlgZ7pelNXtp+cidoynE0hMcywNfpbf3grCYgoOZBY06DyOkKUYrMSBXLpordj1f0iacTlYPQ1fWod4xxaZtkjZYHiWdWVYAJs3yhkRGHlYgsFAlt9i9Kb+UPcD2gSR+8odxbrtG0J+mYcnH7iOc0cJiqXjpag+cdafOA8dxZKaI8R3/SOusaWjNRbdUHTFMHJAG5LQBM4rKFlP5AludrQmxOJUolSjmDU2rtAPeF3e1GAiMjVca9mzlzQQ6SCNxWIzJ5jIYbHqlqOSmhex6QwwvHgaTBXUptypFJ2RKNDbO1YsOLLQsncZljRRtowqH1O30iZx8rLmzhvf0vFaJaZbMmkxU5j2HxUuYHQoEenzi5YiiGRSox3HcUlyZeeaQlKTfUnQDcwFxXiKMPKM1dhQDcmwj5p2i47MxMxTlpYLJSKgbE87EnpDxslyoL7T9o14xbBOSWlsst71+JTXLaaesZnFTBz1po1atvT0aLsZNAcIDszq30+sL+8fl9vwxaMpM6RSrNs73qIqVcQdPwykpD/EQkudQaim3OASw8I9d4nNPozkdxCnOzEiJSkgjMKkX5P/AEihnuQNieXSG+F4Se7TMCgrOQmlCCz19NYmTSiCVoXS5eZQeg61Dsa9YNmhksmpAqW1AbptBuJKZYIcZv1K2f8ASnk56wNhgmYWOZtWFTsB5xg5uWiq9EeE8JUsh0kpuXJAPIRq5+RKMhYBrWp9BAGK4rlSEoBSWYOQ45NqYTqUo1N9S79XglyUaKo9AWNkrzEJIys9PAknkkR39uyyyBKHeEu5OYsTUh7XgoFRLITmOw+flzMHYPgmU5prFWgNQKhz5/jw4zb7JUWwLDr/AHRmzZVKBOVLFZLsG10qf60jF5CtDKExSCAS1M1E83tZ9oYY7GJCykrTmGUB3CU5nskWpqfaOr4MgKzzFZ1UAaj61PnoIv8A0Xj8E+LUtctPerypAYC5V7187ecL8Hg+9D0SkAAqJevm8NuO4UApNSVOSDp7W0hVicRlSAxI0AsObQsvRLW9mjw05iTQG/ID7wUnEGgLEnQ6hVtYTqopjptrtBYmmi/1Kpb1jZlKQ4zDOSHABAu9WJvu8E4KeUkczvrvfYwvwUtkKzJJcMD/AKkkO+or8jBGEwr0VMCaGmxBLjr84zaNU3Y17sy1/Fyrv8oKxU2qG1S76Ekm384B+KWS/iTTz5+cFAAIBLpbLuXetBqHp/WM2jZMMTPygjLoGLWIep8opE4gMXB0Ohe7+sdRJWojwKCbBXmWL7G/tF2JwhSA7FnfrZ3/ACgiNIuwrA4hwE0rb3fXeDUyGckvCE4M5lJYizDlRmVWo5P1hsjFhSWPxpuk3NKci9bQmGQLPnlRcClKPFOZtLE0u0EzSlZ8S8gABUkgg1tpX6RGbhkFRIWnINBelesWmiWwPv69R0f5RAF1FtRbW/8AK0cxE5rNbb8cxKTlILEE2axtvY9YpURkNZJSZdRRQcHYgMKcrQFisNlQrW7eotvBGHxqUeEBRBD1Ft73a/rHMTxyQgATVJIOybs+1maErTBtA8vCgpD2YF2pdgedQmLVdoJeHJC1lTAjIPFUAUBFi5F2vGd452oUtf7lPdo8IdmUWUFPegcW284y5U1f6nrG0Y+2YS5PSGva/tF3xWtYKZcseFNyBqeaiR6esIUT+8QmYAQFuxNLEh9iHBEHTSiqVJCnvsakMd6vytHlrTMAS2UpQQgBglkC2UClDpvEPmSlR3r+kc8+Dza6tK90LBu9PnHswHxaac9okpYUaPX5APSOKABJzO1ARvXRrRo3Z45JcwkjMogmpJLsK6aGkUgghzuADyOo5g/OO0KnJJJLml4LlYAzFsHADn1vewca7iItIFsDVUlku42sFCnX7QZLk90kAh1HS7FmhhNMuWAEJGZSfiq5LDU0EC4SUZpHIeIlwAYxnyZddFUcweGVNLKfKK5TckszMKjl8o1+B4YiUhz8RvowawjvDsJ3aQpTJLGhb57sIXSJszK+IOVNbnxKbxM9wA1BrrAkbRjQgxWHmTcUVS0gpplJLAMAKV32iWK4TPco8LXzPlSAKNWp3o+ke47xeWuVLMkMsEKYDxC+oF+sJ8VxJcxXjKnCQHPkAfkIsnRql41OGlS8yhMUVBJIADu5JfVm1hDiO1M0lwEgHSpau730hTMKlUBfQX8gYfcJ7NKcLmUI/SGI8yYaX0e30JEYKbNKl8yavV9ofSJipaAZqq3QnUgb7DzgrEES0BEqpFMwYtv1hfh8CTVZLmpBqa3rES5EgqinEZpiiou5sNvKB+5Ynf8AL/aGcxISMqaD394BmS2qx9DGOQBIllRcFwN/tDLDy1paYAPCS1LUNRvv0gXhRlILzDUBwLuQH/Dzi3imO/SLkBreG4NqP/KPQYlS2OUY392K1ZzV+dvyrx7hpMwKYOTckUDOzlrtX0hLh1oSApZUSX8ADOCPYc+gtBEzipYOAhI+GWk+G1zRlfeIaGp/R6rDlCXK6Uzl7tQgC5ofykV4zGoVMIqlIcBw5bZneEM/jcwkDMABYACg6ufeBFYpRIL29tYjx32NzXo1EjjBQwQpXkoli+rE08g0GDtHMJB8JSXBFj8qNbV/ljFYga1+/wCbxUrFE/l4eCGuVm2T2hk0JSoED9Jcf7dKa8jFWP7RoWoFIysAEhQFXuSQdC1Ix3eaO3KJ5rtTmfl5QsEPys1k/iK6KNczgrDEKF2pRwWLXpBuGkTXK8xoDVQcGoLPpchm6WjF4bFKDhKmAILaEhm5O3yghfGZi2TMUrK9gWv7OamvOHiLM1eIxiiHVLSt2AUEkOejCtICPEUpUXDVqkHM/INd7QhmYmcrw+MiwSeWUDzLZfWB8IVlXhQVKFWDuCLe7GKSSJcjQTuJrKlBCSC5GZV0hrZbA3ppCqfhsqQV5syj4UtVT8r1PLnDeVJmy2M2bLSTooZ1Uc0S92O40gPiPGw6jLDKJYlxmJYBwf060G94h8laQSqtgowyWdawKtlFVHKWKW01cn0MC933hCUUAdiam9XMRWoJqUmpNX+IlyTdz8oqm4gkZUHInK6jzFw40iVKT2Zl2MwmQJALnLU10Upvk0T4FLQuekLZiFI8s4AJGyh9Yh3ZVKSog6s9XFS9Dzp1i7h6QEiaHOVSCCUqf4g43NNA+kcsntr2fW8P5kP0Si3vH+BbigEoArmqGeo3fnFS7jKQLgfIv0iycgqmKV8OYlnYFLqcX1jTYXhEjDd2vFKOdTkISAaUYqI/K6tHZkkj5FRsScK4WtZzqZMuozNUt/Dz9oZ4maAnupCXsMiQ5fdRHnFXEONIU6RmGQOACA4y2Vs1PCObNC9fGZgJMoiQkhilGurlXxFTNeMGnN2ylGjQcL7MqJzTWDlyxe2g2MOV4JKSGSAgF2pVVRmerNb1hR2e7QLmjulq8YS5WWqHAtvWGS0s4BUQ9XrU1PlFJUbRS9FeImpKgWzFLtsH5b84wnaOaszlJUSXIID7hgG3jfpk6n8bSFSJJOLU8rwhIyzC1CBXzGlYpNDkrEuH4FMEsFAAUakK0cU6vFGH7LTFp/eEJU9xXw9NY12PEwBBlJSfEM7qAATV2c3tHZ+MlJLFRL/wglvMi0RnFCxQp4dwOVJDhyf4lfjRLHIWoFI8KNVGgpuTRosn8YTZABO5L+9oS8S4oo+HM/5+UiXNvoHRdNxMiUn4ws0YIFHPO2n9YWYjixUGQnLzv9doX4qWF3tdww+UViUhIdq+sCUSGy2biVG6j0pA6n0r1+sWS5jpBLg+UTRJUosK+kF0IKkhIUm5Z8zctj7xAzakkuS8ULX7xDMI70Y9h6p7p1d3qaRUZzloFzbXghKWBNtG3gGSK4nJL8ufvAjteLsOM2tN9ucDKROZNHOOpm7fnWKpUomr130F48Zx8KbN8omg/dlvfEuOUTEwt86/m0UylpCgPiFa23byiSxroRBQgjvwVMba0NjWOLm1dNK0rUVp1iiWxIc61oLfWkFypTB6O/pW5/rEyaiFlmExM1KgQpspNTuQxqeVIZHjM0hnSlAZyxfZyXc1gJEtwDMDpfKCASAaE039Y8ZYclQZgBlBvs7CnSMJSsabOjEKVRIZwXUTUs9X2bWIOiUXbOr2Gnr+ecgtSklKnSCKg63djp+c4GDq8KUioSRs9HHIvEpCKZiitZcuXYVA3Y+UanB8AQhAJzrWQ+VJahs7sW9Dy2U8KQhBdeQqQ6k5qAEKDg7qoWA5PDabxOZRfdkqWjKlejm4CdnIY6sIty0XCK7ZNXC5i5ZK5glgk5noUp60YWb3rDDDYFMiWpYVmSChgXcli6joXNdPpCnjeMnGXJABz1USxqpJdIBsQOu0dnrnTMMlCE55ip3iuzAG5NGd6gkUG4jnxfz2dnlpUvUa/gX4MyEzVLxCswbvAaeJSiabkcrQXP4z3ozZUlbZUU+G4KiouSQ9hvWE2Nw5C05VhRFVKTbQgBRNQ2sMOH8LmqqiSpVKEIJ9G05xbl6OVX0I581JWSSSSQFGgFAwLAMBSLsPwkkd53jC/wAIIA1rmHrDFfZubh2VNQtKS7ZwASdg4glOAKkKBGXMCA7E1F9h5QTm06QUCcLwSAQqU62DOoP7N7Vh/LXPIqo9Utfy+bxRwvBiRKCSokXJY35CJ4rHJSgqqzPX7HWMZTbemNEp83u0gOFA3LJSB6VJoNYScTxpQAvTMGChmdzuSeekUI4jKmnLmU5CiXUQ1asKsfKB8HLSoKoSDZROnXWkVtdg2Dr4xmBzFsqgQioAc1baDVT1zaC2wAYDmAQ8E4PhEoh0jzKaEkwXN4Oomi1ITqmnq/3eCU16DYpWtPwSwX/iCvbWjxL/AMOVdSkjzB18iYLmS5Es0eYprqcjz2eK5kyYsHIkAPoGB89/VoasBJw9KlrKdK1Bs3zEOV8HlhKlqz5QHdh+W3gbC4UyQVFaFKP+kEjyv9o9iMU4UCkDOnxEhyoMxq9PSKdt6A9wpEuaD3KRQs678vCKe8M08OXqo+wHSEvD0ZUkSgw1OY0bd6PHlTnQCVhKTbcnVq8oUo70AnmTXPKOpOgiizPHRM2j0TKgnOBrFqJ+5p+PAaUmp2iY8LOQTtCCi9JNnv8APSLcMCXHOo3FX6wLKXUX+0XomFJSdHbzH1vAGkTmJIJNKk+giIQo0u1Wf80glbF6OXYeekcWjI7KBNtncB4BuJUL0AYUixAJZPo/X2i1AC2e4PwgbadbQVLkIBBX4bU0Gnk79KGsRKaiKiYwrAJAzLZ1G96tzYXiU+S1EqBf4jVgbMAbncinOCgVTT3MiXQ1I1O5Uf4WvoDGq4LwOVhyFzVCZPbMEuwD0zW8KafEQ5agtmxSctg0gXgvZQzEGbiJncywaFgDWlCTlR6Q8k8J4WiuRU0t8ShMU7eQCTHps8LVWYFKFAyTlRySLJprc6kxTOx8uUbpdjGiil0JzSH3CJGCmP3WHlDKQDmkh6gsXNxT2gA9qcAlRQmS7EjwyEgFvNqQV2RxPeIVMOq8o8kpf5qMZvC8HlrSkilA4KUl3A5PFrFdjlKWNxNJJ4/h1fDhyR/sk6/9cTkdo8MsnLKJKSx/docH1hQjAlFAkMLeEfSE3BZhz4qiSUzXtyOu0AR5HWzaHi2GNDIpzlI+8DcdTKn4OaJCUpUkAhk5crqBdhoWJ2LcoHwC0qopKXI0izDykmdPkJDJXIWC2/h+XeE9YTX0cOTJlXDuF4fBIT3UsLmLVlzTC5JAKlKcgsKWA2g5XE8QXCTKDB2IUaC9cw+UZrtjj2OFCVBQUjETAoOymVKYgjQiYYF4FxBKpi0hJcyZjspxbfSJtJ0TLkcZYoY9oeIKXLPeZSZSkKBAIDLC02qXCkiM3IxqlFwGANSoN6fcxLA8X71UyWQqsgq8TV7mdKUahjZR94znGON+GbJCAkBWUKD/AAg1puSPQxzcsXJpo1i7Vmq7rN8dfeEfHcclSJklIVmpYPYvX094o4VxpWVCFNlDAkkuB5AGGMqbJJJTdQqoINeT0PrGCTjLYzHSZWcFSR4rO5bn9usP+FYVCJWZYEwipAdhv8Te7Q2PcShnUMvQJsOV6CBeMY1Ckd2kpGa+Wp0Iq1DFubnr0FHpnaKXLyjKwyn4WuFM22h9ouOPUpy+VJbwipbVz1jPjhbpZJNC6c++u7ef4G+GwqGSPD4KUFQeR3hSUV0MvUlAIYEEVBp9Bz/nFONxUwCimfQUf0rF0ielSMwPhqCdmcQoxmLDnK/UsfkaQRTbAo4piEgpQoZSofE5po7PHpxFgQ41AKS7XtC/Ey+8XnUSVBrFmbo8WzFWdmcXF35teNtIRBGKyIWhFSpyXqSSNHAcQLhELUnIUq3ANPYwelSQtKV5WL2zBjRoMM1ljKMyWL1uXp7AnrCy+IBFPw60UKFJq1QRXrFaT+aesbxKsyWUQqtKOB00iiZg5ZSUlAZw7bxX6tfBYGLSrWwETUsGz02jSTuz0pTspQ6intAaeza3pMTTzHLprF/qYULFiiQlSiyf5dYYrwTs0wPolr0sVAsK/SCZ3AVAAC9nSsB3b0Ib3iOH4ViEkAJo1w92YfCXOh/K5z/Ib3BjUNC5GJOW9j8qRoeC9mcTiSlaQEJNQpdAeYDEkc2aBsWyCgzkJCUmxSXURdOjJIv/AEjQ8P8A7Q2WM8r92/6VNlBYE5WqwFA+/JuiEs42Tj9HuB/s7QkePEF6f4aG8w6n+UNJHYTApuJizuVtzsABCbHf2mYSWsolJm4hQv3SHSP+okezwbwX+0LCz1iUc8mYr4Uzk5Mx2CnKSeTuYrFFUPMHwORJojMdWUQ1LOwBLE0BoL3jH4nslj501U2bNk5lJUkEKWQDXIoDKGyvbleN0icCbGLQsc/WKBpNUYCV2ExtXxkpyQR4F0brF0n+z2aT+8xSa3yoU/QlcbrONvcxIKG3zhEeOPwWcPnycPMlYFAU4lmYDT4c2VRUXcqKlPaEqexC0tkxWUCn+GSSBZ/3jPzAEavOMwpof+2LM42h2U4p9mZR2XxAZ8YFDYyTXlSYIr4X2LVJK1JxTlZdWaU4ev8Ar5xqu8Gwj3ejYQ8mT44dUL0cJmM3fjpKI+azBWA4aJa+8VMVMXlyglgEpJBIAG5Au9ou74bCPd8NhCtsa44rpCqZwiXNRKJKkqlApSpOUkJLBSWUlSSDlGmgiteBlIDKxCwOa5aP/olMZvBYUzcRPkTZxnYeYZjozt3SkrSpCQMzv8Tt/pcQ0ldjMCmvcAncqX94hO0a8kFGVdgE7C8MlIm93NkpmKlTJYKp+cgLFQAVFnIFthGBmcPlk5VZAsgEBXOxpfyj6sns/hE2w6Oof5vHxPETlpxEytUKbNY+A5UjoE+xjLli2tCNEeCzKeMgJ8kCzGp0bZ4IGIRKYE5zpkJZv9xqejCFyuNomI8edLNVKg3UMARyL9IGCEqcomimih9mrzjkr/ICziq1TfAolgXoB87RDFYxMlKcqguu1QDC6c4SplpJSagEu3JyYBmTQaHzY9RzeNMbENVcdGfNajF60FbecewGKyKX3aw6xr5vR+UIGS7t0v7ERYnCKelHcuT5ehi/Gh0NcMJiUlOajvVVLXbePLlkByQzh/ASznd25xNCFpw6slQRUvoSAQNbEesUY3GvIlJJJbQuAGt7W6wk22IZSMCRVS8opVy1dt77R2fiEDwoQFXBVseXOBOITkdwEBbqGUih0O55Qrw+JKSxLP1gUb2xsZykM1Sdah7U60DPtFU/EAh0ltqE+gisTMyql3DfCA/uXMcCgCxAHmx9mi6FRp04Vdw40O38oslSpm5qGBdx84bzsO7AzgBsE0+X1iOI4eokZSpQahI51shmYxxqNmzgkK0yFIcEuqjZVPzqDf8AKwXhpK1UIp8/RxDHD8LYEFLvqpT9PhFOXOJzsPlYolprc0Hlzq50inxy+DUV7AJmDO31i3DYZSvhZ2sGp7iIKw603CfJ1NUUejfFpFMtE5lFkJajJduVSAd7QR4ZPsbx9APa/h8wSErUHEs18QJAVY00ce8Y9czMihqSE+RUWfoHPSN5NxE7KQU5gRUM4tZmqPPeMzjJCkhWTCIGZx8NuaXoCNCKh47OK4RxM5JXov4HwsLSjKtPdhZC5SSRMPhdNU3Uq97RRxnh+VOUzEqzE5UgqzS/iMtRKq1CTrcUgvs72lGGaVNlpSipmeBQmLZshzA6ME1DNCzi3GlT2PdpKkgt3aGJcqKQS5OVIJvuaCNRaNJwPs1MxEiVP/aAkrQFNlUWJZ6gwzHYyd/mk/8AFX3jFcO7SY+RKRKEs5UAAUammhi49s8a9ULHkfumFkwxRsR2KnaYkeivvHv7nYj/ADY/+f3jG/31xX6hNB8wKNzT1jiO3E8fEuf0Mv6y4MpCxRsh2PxZJy4pNhrM5xIdjsd/mR/zmD6RlP7+nWZim8pP/wCYJT29T/7+IH+6XLPyEGTDFGhV2Sx4tih1mTftGd7SKxmHmJkHFKzKTnUUTJhyocpFS1SQWbYxfJ/tDAP+MsjbuRz1z+WkAzu0ErE4yTOdTpyBecMlkKJSQBW6lPXaGpNhiT/u9NVk/wAVapmbKe/mFbp+IKZ0IPJShqLwJguL4qRM7k4icUF8uZasyVJopJc0taPoiZcrI47sTUyu9Xh5KyVMyicqQ2bMos9HJvvi8NhsNMxU7MFd1LCEo8dc4QlJ8QvRJD1ehgcq2FWMeySlLn94VN3au8LfqUvwqzNclL3fSPoUzjIFkknQWeMzweVhpQIkhs1zVRO1alg/LWGUqeFAqzU8q283aOeU5N3FmmK9l6+NTiHTIS3+qY3/AGxiOMdlTNUqYnKFTFlSwFFgS5byf5xs+8AqyDUVdr8yDV4jPUtTZco1IId6OLtTSj/UZvyP+7/g6jXR88wvZOcLpTTShcnSmgivEcOnAMJZ19n0aPoysPqUoU/8JyVtua31jycCgK/9QXLE+EUsN/zlEuE27YsYnzaThpuVKe7C61YUanvWFfFZac2WVLSD/tYvo29taR9dnS5UsFyQTqAST0aB14CWU5lAqHMBwHtQBvR4ai4uxYo+OKlqA+AknkNn2oKfOC5Sc2VIQHNtKu5Db8o+kScFKfMJJDm7FyA9wz70MA4vg0pRJGYVBAtlIqKUIuYrzfUV4/3M1g1gJZQYqzMFUCjoC9xUUhJxKcSo5n2AOguB+co+i8Q4ciZLy5gK66H6UhJO7JgpB7xJINS+j+0KPLG7Ypcb9GMlVBJDsd/pEsN8QHP6w8xXZ2ZUXH6SCP4hzeic1IAHBMQDSWou9QD6VaNlOL9meLL1qBchkgXys42G7PA6hqUJPOo+kGDh84BAmJAL1cAUs7gVVbVoKOEyhkkh9Sa9CYjJBVm4VgQVfET6C+r39IIw+GUgfFoWdzXzfy1gpG5vqfN3DR1RSDlevXfax2vFx44rpFW2DTBMKmzAB6lr1LB3po9KvE5SHLKAJFjegPMf0i4IYEubVFmZnbTWJSwSAPm1/MfnlFUBAoBFq3cigtqa/wBI7k9ToattHHNaDk/5TpEipm8x9BDArUkEUAp+UGt4g4J9n6n8pEhiAaO5Dj/ia6eUdmYsJIBodmd7t9ffk4BBWGTYVb70EeGGTsG6Da3KO94kHK2txQCm3s0cROBYi7OKXHVt4APDBpYHKDuzfP6+cQOBRokHpvf+vlBQVSg5AO1R5fM/yiWYZQA5fQ2pX8tAAAvhks3QK6BvnAU/haLd2BQEEEFt6D5e8OFTCLipoa2qHq340ey608wK6vcn0hMBIvg8pynKKg2AdzRiDUPSw+sCr7PSS5CHDJDsNOQqPO5jSTEAAFQub+Wz1FjA+MlpSkE7UvctX3oHvABnpvZzDkgZAeeX1qPKApnZCRoVJ5jKCPWkaTGrCQCl6khjSgOjGBu8C2IWUqIqDVNHc0Y+8LIrFiccAWEd2cVO7uvhFA9vL2rBnDuCIlBgXFSHoTWr/jWh3KkE2Yq/PIaRA4UNu9zbpv7w22yaohhzlqB7APzr9ouE3QpNL0+r2iCJJBuzcrAVNbks5vtF6VU09HOh1elvU9Jxsqy1M0kfD10+T3giVTQdd/P1HWBe8qwFXI2vttE1TxpqDrQNSzX/AB4eIrCDmb7MWcjQ828o8iYSGyt6ezQOnEO7Xp6fn4I6VEuT4QzkMCa2r5jrDoCaSzA3bwuokl6WOsRMtgWoNGu+ukdC6+KwFfr7H3jiga9Pe1vOCgshNBIt7lq67xBWFSAAXfZ7tWjxYV0s4poLjX6RUieFOlB8QYnM5cM9uYfWJwQ7JJwqHf4hS/VrCB5mBBc2HXmPmILmlgXDMLaM9XvWIAk0TUnR9DdugMJ8cX2gyYtm8NegWQ+5fqzPHk8JWn9bvZx562i+dg5ZZZlgqNUvcXdjpbfSCT4Tq6bPra5FX51+sT418FYGMAsfwvyBZtC/2imZw5ZrkCqaN8oanEM9bcvW0dzkgByx13bzg8UWFs//2Q==;" parent="1" vertex="1">
          <mxGeometry x="810" width="287" height="175" as="geometry" />
        </mxCell>
        <mxCell id="UDgbg5_Z1Dpf2GQ_N5UT-3" value="" style="shape=image;verticalLabelPosition=bottom;labelBackgroundColor=default;verticalAlign=top;aspect=fixed;imageAspect=0;image=data:image/jpeg,/9j/4AAQSkZJRgABAQAAAQABAAD/2wCEAAoHCBUWFRgVFhUYGBgZGRkZGRocGhgaGBocGBgaGRgaGhgcIy8lHB4rIRoaJjgmKy8xNTU1GiQ7QDs0Py40NTEBDAwMEA8QHhISHjQrISs0NDQ0NDQ0NDQ0NDQ0NDQ0NDQxNDQ0NDQ0NDQ0NDQ0NDQ0NDQ0NDQ0NDQ0NDQ0NDQ0NP/AABEIALcBEwMBIgACEQEDEQH/xAAcAAABBQEBAQAAAAAAAAAAAAADAAECBAUGBwj/xABAEAABAwIEAwUGBAMIAQUAAAABAAIRAyEEEjFBBVFhInGBkaEGEzKx0fBCUsHhFWLxFBYjU3KCkrLSQ1RjosL/xAAaAQADAQEBAQAAAAAAAAAAAAAAAQIDBQQG/8QAKREAAgICAgIBBAICAwAAAAAAAAECEQMSITEEUUEFEzJxFGEigRVSkf/aAAwDAQACEQMRAD8A8nolXaRsVRpK/QC0j2Sy/h9FMhQwvwosL6OP4o48uJMhCaESEoTJshCWVThKE6CyGVOGqcKUIoHIHCWVEhPCKFYPKnDUTKllToWwPKnyqeVPCKFsQhNlRMqUIoNgUJZUQtSyooexEi3eoZUUhLKigTBZU2VGLU0J0PYgExCJCUJUFgsqbKiwllRQ7BZUxai5U2VKgsEWpsqNCbKih7Ai1RLUUtTFqVDUgeVJThJKh2YFJX6GqzqJWjhxovnEdgv4XRWIQcKLlWCF9Dhdwi/6ONl4m0RhKE8J4WplZGE8KUJwEUFkIUoU4ThqdCciGVLKiQnyp0TsDDU8ImVKEUKyEJBqnlSIToLIlqbKiQllRQtgWVKEXKlkRQbAYSyouVLKnQ9gUJoRsqbKih7AsqWVFypZUg2BZU2VGypsqKDYFlTZUXKmhKh2DLU0Ihamyoodg4TZUTKllSoewHKki5UkqHscrh1fousFnYfVaNJfMro7jNTCalWiFVwwuOoCtkLveK7xI4/k8ZWRhOApQnAXpPPZGFINUsqcBNCbIhqkGqQapBqZLkQyp8qIGp8qZOwLKnhGDEi1AtgOVLKi5Ug1MNgYalCLlSDEC2INZKlUZCtspwJKA8TdBKlbK5amyo2VLKgrYDlSyo2VLKgNgOVLKi5UsqQ7A5U2VHypsqB2BLU2VGyqMIoakCypsqLlSyoHsBhLKilDdVaPxBZynGP5Oi4qUukRypJe+bz9Cksv5GL/ALL/ANNPtZPTOQe3K8jqr1AoHEGQ+eYR6C+dR3ZGrhD8PcVfIWfhPw95C0yF2/Cd4kcfzeMv+iEJwE4Cm1q9iPG2RDUQNThqmGqkZuRDKnDUQMRWsVEuQFrEQMUw1SDEEOQKE2VFypFqYtgRallRcqWRAbAg1Go091JrFJzg0XICUmkuQ5lxHsjWOyAQk+sORKb345H0Kx/kYlxZvHxsyX4sfKnDEz3kjsg9/L7lavDuFNLcz5eHaFr4JNjAB3hefN58Yuoqz1YfAnNXJ0ZeRM5q1uJ8NbTgsLnA6h13SZiIGibDcMD25y4FoOkESOXjeD062UvqENNl36CPgZN6fXsyKLHPeGMGu/KNbrpKPD2MpNBZLwZzkNkmdQZ2tHylaGAoMYJIhskiRHZADRM+aqvxTHvGQuLWEwTZpmJHMiAbH1XKy+RkyfkzrYvHhj6Rn1+CMLf8MEOJN9obqAJ7/wDis1nD6hDjE5eQN+cDmOS65lNjxDTDw7S06ERlO0W/qqmNGQOkwRI3ucxjsxbbZPF5OTH0+PQsvjY8na59nM0sG9wkCw+7c0A0zExtK6bDUxkLuYBteQS4E3G6AxjcxDgJAtyJk38nC30Wz+oZXK1VejFeBiUad37OeypnBTxr3NPwnYyeo5jXQoWHq5yczTlGoGt7TfXf0Xs/5HHpb/L0eT+Dk3pdewT8K4kZ7XjL639PNKvhmsbIhxd2QCL3i8He/wAlJ7jMkGHHSf5Yv5lGwwY0mXTldZsHzJNjctGv6rjZMspy2b5OxDHGEdV0VG03fkO/zSQqtJziXZtb6hJSUc9xK7WOT4Z2injmdh7fyuPlMoGCNk49ikbOEP8A2C1yFkYPU9wPqtoNXX8B/wCDX9nI+oKpp/0RDVJrU4aitaugmc1yItYjtppMbdWAxFmMpAg1PkRgxPlVWZuQMNTkbBGLY6n780GtUawS4wk5JK2Ebk6RHKk1tw2RJMCTCFhqnvXQHhjQRM/EWnUg6Baz6EPaxsiHNEGC2Q7zBj59V483mxjxHl+zp+P4Epf5T4Xr5B1eEvbILmyBYQbxM3nTS/XRVHMLQ0uBGbxg7gkbrTxmJrGHZtGiWi4+HcjY3PloqTH1KjXktDrtIyHKWl4cbcwCL/uvHDzMse3f7Pdk8HFJcKv0AMxmAkc0NlMuhxIGkSJF+Z238k4FSnDCHRq4QSACJvbUC/grDM9IZpa5p0FnA2sR+yjLnnPtmuHx8eL8VyV8RhSGhwLiAO1oYIMEW2+vegCj9bbAjeN+XctLh2V5Jy3aMpYCRmmdR+WQBHVW8XgCxxytJbLXFogzBJcCdhMWvqvM5/B6kiXB2U/dQ9uU5jDtjIEh+157vNXKzhQpllhLpZEF0OF4n4oN5VMYgMESC15kNZPaa4G3MEA2PQKthw57yS9zXiLTt+WTpoO9RYybmuhxqFudxBaZgQAPicOm1lTrcReA0MAaR8ThIL4da4vElaDqDHgAPmSRINrE3g7wNlRxrXMblIbMmIEbx4nRJjRr18ScRQYT2QBDotmLTlJ1/maY0E9FY4exrHOpw4yGlpjs8jBG91icGrdl7XHsuewaG13H5fdkSjxUOJZ8Fw1joEAZrgib2+9ErGbFSm81GOIGXM7tR8IaMxbU0tAcZOoHNZnF3Z3Gpft5nCAJjRp6bddFoOqO/s9UEmBUDRDpLgGkgEG19I6QsNlyQ4CCHZpJLgSD8J00BCVjoJwptnMc7tZRE7Xk27/+yhiOIsbJ1c12+5Mz4XUH4ttiDFhyB7GbMI5kkBZ+GY105o0MS4DunnAvHeEr+EALFYx9QEOM790AyAOWvmnwdRrGX3cI5nU6HYc+pQMQxrLNlxGncRf76IB17hfz06KE+Rl7FVe3DRpYzBA08NTr0CqueGuL9pFgYuL25bXTUnAB0/iBHiQYN/BUw0lsaWvvFrptgSynd3qko5W8z6fRMjYCnxWnD3j8zZWVguS3uLt+B/gfFYFOzyOq0iwkjdwB7Xe0/Vb1Ntgud4e7ts8vMLqabQGtkgbCV0vBlVr9HI+priLX9kQ1Ea1OGIrWrpKRxJSGpsurQplNQaZspVqzWzeTy38eSmeSMFcmZqMskqirY+UDdVK3EWNgNBcXENEaSTAEo2HoOeZcJF7EdmAL256XQhgQA7ttMQQDAJyEEhp5yDdeKfnN8RR1sH0xVtkf+gLqr8zmEAEGMw08J23VrB8OY7tVJdcRJN9SL7AxHmoVWua73jg1ons8iTl+ECCbAHyUanEHUy3LBGYTA1GsO5QS4A8oXjyeRKS5Z1MXjQh+Ko1mMptLmlrWtmBIAHwhtjyJBlDr0w3KT1DXOcZkNyNJMGSRr3z0VTGYgOBkkggkbxMmBYc1TGLa/MXNMgQAOtp5Da30We19GzjXZp1HluR+dr8znENGgBggTqNTcqGGcIc2i67iHOaRcR02A3H83dIMO+GgOfla0OuIBdl+Akam3qqmFxIZUzyMzHhx17VoeNYM68rqXJLgK+TZfUDWS+Q7N8JPWYvfW3cdtFmuqgvE2A7QYLw46yd3aknuQMXii95e85i68C0TFhyEIJeXOt2ZjSf1JM2lDkK+TRpg52vYJcIsAbyQSCZ5nRa+KqZ2GsD2c5OQQ3KSR2XxcnUdY0WTTzMl73kCRlA+JxBbceA10WY+u4y0E5Sc2WTE6AnmYUSZWyRtucCRkALrD+WnMCJPUkKdHBlzyScouJm0ggxI0gm32EHgXDnPa9wAtAE/iuSbb7DwWpx3G4dlP3bIc7MXgNILWaC7tNtB6I2pFL2zL4lhcrC4Pg2bFgSDvl5xyVWhSDwQXQZuXHQAdfFVQH1Hgdp7jYb+XIK6HUqVnNFZ5Bk5jkYTPL4ndZj5qN0FlivSaxsZhD3SH8oadL6XG27kLh4YQWkZnEwGwc1p0cIifuFWIfVgEtDWiASQ1g595PSStTAYSK7BTrMe6Q5xaHwBAzCYgzflqlZVlvH4V+SmzIZ+NxYCcxLjEtFiYDbk7clkioxgOaZJAykXMGDc2tB9V0XtFxYUmim3497RAOl7R4Lhq9TM4nWfrYJSkkJsJjarXvMSG3ywADM2lUsvzPkncPvvKRUOTYWMf0solpJ9fvyTlxJSmB5/upsAT2bzf71UC2IPifUKRddIzlhNNjAVaYkwTGo8bpIxYUlVv2MHjW5qJ5tuucqWfPOCuppNzNcObVyuJbBHQkeS0iypGlhHw5n+ofNdfiWXE6S2NNTvOq4mgbeRXdY+iH0WEWJHrBg9NkZXVU6J12TTMx2PloYTDpFz0Mj9Fdw3FGOkGxDQddZ2HosrD8Kc/KXvgjlJzX66afJFq8IyuBa/si8EXnrtC0h504Pl2eLJ9NxTVVXzwbdHGh2YNGggmdzsFOg0OJy2DQ7OSR2dLjwNvFZ3DcKYdBkuNyeQEyiPZn7IMMETFs5HPmES8hzdyZeLxI4lrFfsttxbGtysJdqZvOaMoJJ2IjTkgV2Bjcz3HOcxFMH4QW9kk+RjVBqMyNO5mZvbuCGBm111ul9xGygxYcE3cSQ2YB2EzZHqETGu/wAv1lOxsMMEA6QTc845fugh9p30Btbw8FnKVs1iqVBmk+kDwjdFoUQA8gkFwjW3fG5+qHTa4yAHGTyKvUcJVIEU36/kcf0QpP4Ck+yqKLmixjr03vyv6LIpsJeTIvI74Ag28B1ldM/hmILbUak/6HiPRZ+I9mcS6QKTxOps0XuRcjlHipls3YpKNAHUMt3abEaIjcWWkFjQCDYkAkGNtvRareD1ywMcxrQOdSmIiw/EiYXhDmHtOoi0ul7HgbEEEkAHnZPZmenpmAxr6rjlzPcdYBcT5XW9gPZ3LDqxLb/AOl4JiBa+unJWXYF4kjF0mAk5cjy1pG0hojmLBDr8ODmDPjWuGpkVHNsLEW6+qroSjQPjHFWAe7oQAQWucBHZ0yN2ju/VZOBwRe6S05RreCd4aYPa8Cr7eGYf/wB23wpPPrKN7jDCJxdWBoG03DvgE23UNtu2Om+WZuMwr2OMTTboATBjcE/i6n+ir06gYQR2iOY7PkdVqPp4HU1K7p5NZz5mU2fAAfDiXeNMfIKeXyDuyrTxtWo9jcwkEZcwGUReDaI1su74axoZ2csgQ4taGhzhqYFgJ2XIMxmCYQ4UapO01INu4rToe1VNoa1tDK1xiS9xidzAVRdPljXRj+0j3mu4uEQAG8i3We+T6LFLNZXoZYyo4F1Kg9pBLXA5yJuAc2g8FiDGOlwbhsMMj3MJLGE9kwDfmL+KUoc3YU2+DlA2EzvsLpa3HqrHOYGUWlsaU2wc3Igpm8fxRdkblzbwyw8UtF7HqznGYd50a49wKn/DapsKTz/sf+gW7iOM41oBc8if5QN+vj6Ks7jGKJINV0gFwECSInWOiesV2x6yM1nBsQTahU6yxw+YRR7PYn/Jd45R8yrT+I4ie1XfBMCBrabW20VV3EapMe8ee8kSVSjF9D1YT+72K/yv/vT/APJJD99WP43+bkkaRDVmLw+pLWnwKw+K04c8cnT5rT4W+xHIyqvHB2z/ADNB8lS7G+ipRfbwXpPCsK6rh2EMLtASKjGkdYIJXmWFNl6BwXiHuG4d5ux7cjh/1P3zSyLZUEW1bRdpcGqAH/Bf3e9pmfJqmOEVLn+z35Go0z5ELqaeLYdnDwn5SijEU/zgd9vmsUlZMpS+DmafC62XKMMwSe1/iEyINhDxFw370nT4XXAthmD/AHA/N66yiWHRwPcQVItVJIjeRylfhuJBIbQYRLoMUtMxy6nlCr/w3GbUGDuZhv1XXPrNGrmjvIHzQn8UoN1rUx/vb9VagH3GYOI4fjgZYzWDA9w0CwsNDrKi7AcRiweO6ozl0ct/+P4Ua4il/wA2ojOPYU6Yml/zb9VWj7pgsn6Ob/h/Ef8A5Ty/xW6xuM/3KsY3hGMzvLBUc0ueRNRsXe7KGgus3LEDafBdXh8XTf8AA9ju5wPyKshPX4DZ9nCHgWMIux55zUZ+rkI+zOJLr0DH+tl+p7S9DaFMNRqh7M85Z7L4oPze5sNO2y/gHK1w32axAdUNSl8dKo0S5hkubYWO5jkF32VINU/bV2JybOFq8CxQcQym4MBIYM7LCbaunx1Vf+72My5MjspMkZ2Qe/tX0C9DIShPRe2Dk2ea1eAV6Y7TImQJLDJtcQVoYn2aYWljXuzksDyXMimxwp9pzQ3M8HMRLdCQDaXLe9qAcjO8/IKk+hiHsye9JkskS4a5S1ocQJ2NjFp5EmqQ1I5+l7IVMz2hzHgPeGAFzXvDCA4gOECNCCRdpiQJM63sqclSHsJp5C5wccjWkVc+fsZiQWNAyg/Fvt0raOIyuBq3eRPa1kO7Ut0ByX3MXWVVxOJe92WrJYM5OaAGszAuMjQZnT/qvKeoWcBVwbi4w0xO5aT5jxWvhOG1DfJII5j6ra/u/ULodlbdwJkWcGZ4IHNvatt5LSOBdTaCYiXAETctsbG8I1QtmjJwlF7HtBEN0OmkWtKNjsA57gWxbn4pV6iuYZ5LGmdvlZPX4DZ9mUzh1USDkO+/yUmYOoBo0c43WmHzMHSyRKNUG7Mt2BedYPjbvQ6vD3kRAnnP6LXJUSUaoN30YL+E1JEBojr+ygeGvOkdJP7LflVdynqg2ZlHh1XZw8z9EltpI1QbM8s4Y7tRzCfjQ+A9CFXwT4PcUuL4sOAYNQZlZ/Jr8FHDuhbuHrPqMawiGNaQ09ReFj4eAOa1cNXOWNmuzfoVTBHc8IxHvKLXScw7Lu8K1ncNysD2VrkPfT2cMw7xr6Quhcy91lLhhVosNe4tEwbbrmfaHj72uNGgSHXzObaLXAhdBiK2Sm4j8LT+y83w+Ky1S9wzC4ImCcwM3gx+y2wQ2lZjlesXRAuLic7nOPUyfMpzSaSYmNp18YTYsNLiWAhpggEhx63AFp6KVCwMrpxgvR4ZN1dkWME6I1PDtMmPmogyrNJ2W8x1WqjH0jOUn8EGYfKMzS5rhcQSuo4J7YYnDRnPv6O8/G0cw76rmP7brAnqfoi4euQMpiDY93JKWOE+EgU8keT3XhfEqddjajCHNd5jmCNirzSOi8U9ksX7rEe6eJZU+GdnDSD6eS9EDxNnPB6VHfIlcvJBwk0dGElKKZ1YASDAubZiHt/9R/jlP/5U28RqDRzT/tM/OPRZ7F0dF7sKJYsZnF37tHgT+qM3jDd2keR+SewtQvFOHGqGgOAgnWdwqP8ABKgAAqC2nxW7uSvM4qzf1t80b+3MOjgfX5J2hUznq/s/WdrWtMx29Tuq9X2XrEkmsCTYk5ySDtK6wV2fmHjZIVQdCDHIo4Dk5ah7M1G3NQE/7uUfK3crT+EVCINSe8uPzXQBwuk5MRyT/Zp5/G3yKK3gTwwND2g7mDvyXSlMQOSAOZw/AnsnttIPIFFPCHfmHqt4tHJQcwIEYLuFO/MPIqB4afzDyK3TT6qBZ1QBhHhx/OPVCfwp0zmHqt5zO5DczoPNMLMX+HH8w8iktf3fRJKgs+eKb4JCDSGZ4HP6KWJble4dSh4Z0PaeRCg9BNhi3Ky0MC+THMQs5/xu7z80bDPghP4Bdm9g8W6k9jxct1HOLELYf7at/wAsDxK56oZE9Z8xdZmL0HeVUda5VkTTvh0dRj/as1G+7awDNY6rAomRJ3JVTBuAe0nQH5iFaZpHmvRhcU7Sowyp1TdhhUFxe1/r9UhXb1QqJuDyO/LdRc6Ta+wPQaLX7sr4MvtquSyMS0bE+iE+o5xk+AUGU/6o0tG4W0U5K5OkQ0k+EOxq0MBQzuAJDW2zOOjR9dgFnCu2dz3BW8RiM7W06bS0C7ifie/nbYbBXPLCKpMSxyk+UbfHHgVMM1gjI7sjeMzbnmSZXojXrhPZb2fqF4rV7RGRrvitpI2A5Luctlycsk3SZ0IRpdBs6lm6KvnTysS2ixATFnIoPvFIPVWS0OWnomc0HUA94T+9SL7XVWTQwgCBIHQkD0KYOIuHuHj9ZUi4KBgp0hEhinjR1+oH6QiU+JVBrDvMfVVyy6g5iAL54w78vkR+sJ28ZJ/A70/QrMcCoOlFAbQ4wzcHyKKOJUz+MDvMHyK5wuPVN7xHIUjpjimROYQmOJbs4ea5J9Fhvkb8j6JCmB8L3t7nEj1RbDVHViqDoUnFcoXP2qnfVrSpNxdcfjafA/VFsTidLKS53+31unn+ySdio8Xx/wAZ6lPhaDMwNVxa3UACSenRO8u1LHSdLG3oqrmPJu13kVFG49YjO6NJMdydrlD3T/yu8imDkCNqg6WgztHldUsbt3qWBxLQIcYuiVxLT3pxGypSplxgd6s0yd7FbvAvZjEVQHsbkafxPtPcN10WH9mKOlR7nka6MFvX1Q80Y8WTo2cE5h5hOym5xgHwA+i9OocCwwuKLCdp7XnOq0KNJjbMY1ovoAFL8tfCBYTzBnAcQ/4abz1PZHrC1MH7F1j8ZYweLj6fVd+0jr6+idzfQd2vz5rOXkzZaxRRy+G9iqTbve9/QQ0fVb2A4ZRpXYxoI31d5m6swR+v9UQOspeWUu2WoJdImH81OeqhIn7lRbcSLeRQmNoM55TZhyhDkc7DVP7w+idktEs3z66JGyYPHJSBH3qrTJaFmtzTZkjrukQdiDbbZNMlofMkXoTjfl98k3T781Vk0EFQqJf3qLjHd0UHFMVBnP6qAehuI3+/2TSOd07Cieb7lM+EIOsSmc9MRJzRyQy0dU2dLP1QAxHX76obmlSJ3US8df080ADylJPKSAPPcD7SVKRPuw25BMiR2Q4Cxt+Io398sRmyBlJugMU2QQIsQRB09Skkj5KfRHjPHcQaeR7WZTFxYyM94Fh8btAFzdPDEhJJOlYx3YYt1VjDYksLSYOUiJEixm43CSSKQLo9M4F7aMqEU6jcj9soJae7l3LqqmCbVAcLH83PlI3SSXNzxUZcG0eUZdWmWOLTqDH6qTXf0+/u6SShFIkNCRt9E7XaQkkrKHBm49d4TtIv0v6wkkmgEahHda3XvU2vnxj9k6SsQnP+UpzfzSSTQmM626cVDePvkkkqRLHNTeCPFOHjn8/JJJUiWRjlz8VHNzTpJolkCQenndQypJK0QwZd9/1Uc0pJJgQL4PLz/RRc/wC7pJKkSRLzCRdzSSQgIzayg6ee+39UkkfIEc3d6pJJJgf/2Q==;" parent="1" vertex="1">
          <mxGeometry x="840" y="430" width="275" height="183" as="geometry" />
        </mxCell>
        <mxCell id="UDgbg5_Z1Dpf2GQ_N5UT-4" value="" style="shape=image;verticalLabelPosition=bottom;labelBackgroundColor=default;verticalAlign=top;aspect=fixed;imageAspect=0;image=data:image/webp,UklGRi6VAABXRUJQVlA4ICKVAACQYAOdASqEAzwCPtFgqE4oJaQsKRPrUYAaCWdu+BRUom+ftEovxHWaiPButb/D03+tHvvtT2VNOLzDDfv+7d/15tov8iH0Lr7/Tvfb/rPcA/2Mq/zf/b5t/3H+nf+PXP9cfkj+s+Ipi//7u8i4Djv/9vRr+2/9vTl4wf9TolP/r0F/un/u/ef2wjJi5OI838fQIDmYpltXy2twCzgFOSEvYRqiZaZFv/RMZmVn+3LsLbrwMGbL0HL9YtypTkVcxMZiPAMQ4cHdMwZ0yQ6R+uAWaIX+N8lhC+c9gFWs0rHaGj85t956DmcBHGVTTBss3qWxtSo+aEbH9libMk22gmQ1nQL2SkML/SkteCRCZWJltk1aSGOeeL7T+greNRNo2sST1X1IMOKEtfwnWqQsv2MKi1Ro+XEOTwMb16tJ0uBHLPLs9rO2FIoAJOO6V3sIpkSAVJjb+RWlNxiW+3EBhEsnUAd85DuWftNzC/oy7RlzXNmC1irNyt5s4J2URbpHDAhjaZf5PIhXB8lGXp46cAjo0Tbxm0bWIfDKJacZte+lPad/j05EAHPkKp1Du7Q2g6FSgF/14ke3jLtGbMAjCPAfRcAs0HQWZSewoo0B6PQA2pgcj0EvXcUhImdl/QmYZ6Mwpm2DQV/L08tkoWJl+9MIEKH6r/B5YuH09SzCl/KLlGKCDTHqQQ2xPJJ5yMtd832eBjo8HbNC96//bfwi4Tk2Z6LWEqXVpOgBqoxYWYVh3KqKVbuO2cF0XuzDt8Pb5wqdtULfNonaWU0/ddrJ7dhr0/vHI08A6+qBi1XJGu+buOJZ/7OeXIqtjfcRzTRoGUxgmgR19cAS+sxT65DFo2cCT9chhvyQ6dIPhs3GmZgFgguzlwqkP+QYFo1iYnc3gUqQqqXFDGk9x4sSXBwJ4U+uEKfEQO5//1zMvas1WntzembHbW3to7O2FPqoKpfNIY138ukOos8uP3gk1HUMvCcopXkdSSvwuwIbbwfuaOBgrOCzSpJMTMP9CNPnTrGva+SmQAoYzvtc5oZZ/spupjQl28DUmWsKxK2Aago9Ee8HM8EV9r4K5tgnsEWc8uyLdiuDrc5p/PYSiTGtgJZGVkfpuWieXJ/ws1LQFuhDt1KWg9VJqdYqZKFgs8Ey/tqxAr9ApIzLZGF4M0rs7cjqM7bongq2gAkkuUKoI3fN383aVRgBkDaA1BAluFIZGanL50uepO42yTmDtT/eTdDfSDo+QppQLScHwVdazP2nBfDtENXvrTZ6xX+UrtQTjtt2s0eaZNqxgyWy9s5BzdfeRxBp+4yty8k444nFR7Xq41B4D/paRECwREI5uuOBjvYOC+Fm3D++hJlLEbT1f9qFKwFn2RyFN4TLBCrfzl4zrzo3Ha3cAY2BY+vkqoszSEtczEcVpZm/K7PvaOltbgbhxq5zuWWmPqg7KtKahvHwBq1dQFnOguWZvDx/WFXtNJDwI2op+1NxllG68xbeQidSAIfaxDdjEV9Wn7A+o4su8IeL3bZeolDJvoZBxmMBPmvVyvp4MtcWN+e9VIkrIhSKfUfFJ/gSib/S2eWBAzBd/QGCEVkgK+IW+uQPWQjWf0nkxjeyB8rk7eOIlNyDzOLyv5NoJSwI8zU9Bd7XNYJ7dLldug1ub2Jq5yQmMv34ud+9p9Xrb/JVKG/rLuJ6H/4eMikHWhXC4RI3147hTlZ3N279VABgcN0k4VB43lbw1oR6Np4Us2MpMJ0YfRn0A/dNQLeOIPQldZj67VKjyhxYALWZHjhc2d7NLk21G6BLz/+RoFdCV9P2SY0tCck7D7ab9COp7ik7h9tslv2J6UstVkoik2h8fHW9S0rB6nCX/uoV9z/0oF3ChOCnnv9PcPu+TbysG9wX9uXnxtEDoWrI7tJap1lZJV/ZfnjKgv67ubjgU2/afEZi76fJEZTpHEZKHCoZ5YZ8J7l8f7UIULVLtuDDDkkndzlZpfCHo5PffRUJVqL2l/ISktk+CV8a4OM8NeygRfROgJQPvyKyfAJGvkUnwC+9d8hLAstxxxLd0J6XSNUfCeNJHgtyTo2TtUJju2ot7I6xoKSyPkpq9PKcy37u570tYMzC4Wu0ypawetNGWtiYm32Nv+rxtPlXqq/Z1mtjaTrIzU2iTDxiJAY/7v+8p5u/F8Rd7wPnURmn/aUspzsluVJ8C52Ue3jPbVBjRMzvHuHgl5KdyaSKs/5bgmxuTlaLPsDZpM6LY35MfqLPQelrPW/CNXNfbr5refj490FqtsH5BfUY5GjHzTwRzXPG+zPuRMju0xIHh+9M/nzjwN2lkqHSjHhvX2Pgy9oh/LCgl4s4Qbg9zKrf9eNQO8noT42Gzr8rreJgAqxnRbDBOwOG7Fuz0nt7hbVOkHPamXBSbrr+QboCRFdAkeNTMxc0DBBxY20lrYFPmqI+wotcdW+fTv4If0VB9E2utiWMtMYTgU54neOifR0E1J9LgMXv5KJqcPUl06tBE75H4pUdKI8ZA0SFrQtqJ7v7xiv6zkz/0u7WvKTrPpOeckvPFmWjtgSSMIlhkiDEyZ8GrOFbfF4j4Zj9830GaHhiNP48dVz0ckH+/V+zunOVWrpWiaDLsSsKQDC1En/K7pDsT/pLasIUZXg+B3Ae218+vIsF6UnV/kjl+c0uXapVJ3R6md6qNfM8czHh8/rlrX3QGARKg/npZMteUaGACGTOi2nJSP7oOOeUsieInzMGEOGFcB5OixC3zro6tQfphyKXb5NlKTq+xqqCTKw2nignH+pZu6DpKam9JamoD7vYO7w3tkZqnTvF5LhcKXu7JtrrGlWZ/12NcQ+PXP41HzPJpS9S22UtrFdwXLpWa/MtgMMwA/73nt2Jd5rHPdbXJitLXHYhbKwR2b9RnjvuzImP8cQ3nqzTPv7Y7nbUJHH2Qjle+rXC4pOLW7R4KwcfREeenZ/qqJ32T6G7rVvhlBAP8sg6sdr5KL6tJmm+jwwwT+2QSlNluAz9rLse8C4HlW0nKDkPtjDHObhoXRW4v/usySxbKTzaTvERPL0XCt/xcQZU0c7+n0o1l6n3VNo5Wr/z9Pc9WbM2cMsPr56ZpD6rynvku3+GIXMqCx2mhrieU8pRhZTDa5Z6OrHonP9DC/WeYRc4H/9mn6RhAM/f4vkAutfT6k3EzN7LC2VgQcyHogTlRPlbgG/T+qtQKvdvmX3Tmz8C6Q56XM8F8VNHaFGHltS04wU3fD/hUM+0CNf702lA6Og3usN8Fi+AHasOVG4/IClr7qqPhAOg7AZwYmIK19mLeNxJBuTN+EAPu2b55KHkQJfqQct9LJI5zLFNOeps1FmyhHmrRwv8kAjZsqo8mO03FJ4Kb5wY1xsLMIKiVnFgAFZsiRLIZF4m9cIumvJepkVrAJYDIBbm/nT5SGkQjTDWlC4yvY4lzjq43WaTbaUNpEyf6ajScSBLQEbS9Y1e4VwVK5wukB4Xftt83I1Wc8lBTZL9LD2+nfBkdWMiHe4yLUwAXA26SFWDvOsQ/HTwOPTW7rt10bol700KtBkfx7aJQwHpYlccvZTN/gZcYAjr3euuviQ6F2wUDreJZf+JJ7msP4MHVB0Nb577dQJG4fjxjZ6au+C+2kWs3+z3cHjoBzzwLdP5oIfnifByHgt6lF3izNkrsVuR/jCtetpmyc25g1Tdi6mvdIpzgTj8Azzl8u6Fe7Gf8noGTjkB8HfdPk8GOvJ0yHLxfvgmE/8UGwXLZizETHDUqSP/WMq4zOzL8iTOYmVDnNsECwBmb5ivMAUCrkRgSaTX0sm4nLZJyShFxQ9Gx1ZMNxfyBzVxzwzMoAkaxStwS8xyn3gsMqwt5enWj2HMYkCOxjmy/4JB5pVhntOJHI9PDFP6aTAy6jQ8l2rADryrJW/9Gb0rgLaO2l/rfZi0hWNF62y36tZunh0phIBBfzDxHkxw/RPYrCicJ5yTBiYNJumTOWvgK2UVq4IfE8Sv1S0vzthaQnICXYq9dPijZUH9I6O5rsaAN7XNNzWLCOrAyaYB1bjkJqQN4UcYzle8VGtsCE6vebvY0TNVmgN/7+AnJoiE0tT4oRn1O5A0Pp1xnra8wQuB5+pXb2/QDq3xQf+iuzZjXOoXn9N+uUbn2eyVbXbYv7wLkP5vUUY0Tam99RWB3tK1WqXbO1a7WkysVLjlr0Stgvo0x3sez7v3O4g/zoCZGUPV8P3IU+tC31QszEhPrJwS3ALrEBvAP0Fyfz5fsBLhz0ny7QOyMrMGKSvU03V0HKh0TqwVGHWbbofLEUzNio33J9nSdl6AmRfF2p64qrekqnFYQiYJtbV+VoREUNbA7hiXoI0ZvxW8agMbHjZB27WP5LZqiTGJk6KzAKFzHZUthn4Ves7GGy20aCMj1MR+3C1Lu/MOZkqL6pCsY7AumtPgfdRrZF219iWgtgHnuaHHCn8jx0ZmmMTiV7t08HpOoYHvUVTvA8I/3JYV+w43Lj9EHBeAS2iUX3gCRfYKHaFYCg+zb9My5EKR+aNRZQSvF3JWVAIsiUSnjIPClMzjyYggpbRXhCWVsiuAEEZv6TgvVqEcGf/2QFr7wzC1qacxl2+UBVGmFUUXbDRGP2zIa3yo4D1Gt/2emtHwLh9vHx29lBm0mr9tZoZCmZsgVa16pxI7xYueeVmKe/09UhO1DVFW+huue73bZniwm2fNCtXSMGdqOBETA+bBs72DOZ5/L6AZQcdBeII2H3Qa99/c9TF/r391ByQ+Q1oTXrjpbew+75nIOap+HTCKZKQfRAO6Y0eHh18DA3PmMSnPRGBu7CWzwv5KCQK5wkorMDteFVPrRISVCjPp6hke9CoSpJhcx0qLwYeK06B0QJPL1DmlRKLOj8TqU9oishp2h//MbBddi4H9CNzlXtyLLWNM+ExJ35Vr1NwmpI87PFQ2XSGFq03S4OWvykfkkOiv04kvzVfQqQZHW496fFHJAUsBEPUQPOD0AgxID5draWjDo85b19vGJwkGXcpUoGLNjU8a2bX89ZA+6Fs7t/u1X6XIj/4SMbsU5jYmqHU7AK5IhoYRicKdgSS8r3qMqtG92IlXwrT+ylD8KmwgVE9YS8ePdnUH9PxRpKtFa9Ns7HczbPfjB96RkwJH89wNIcaSty07AoroEndonjYxDfhevulRk0cLISqX524a+cTqikuQZMRQH0jRRjTJpTNC6n/MIeO5rIyYjMePJZKZk3WoCElk+caRSQVuLvfpg06+NogjgbfebmF21TTTPvJPSFAIqz966fuH0B2lr3aEq0x4VwUfvR7vRo3FsJ8/bv4hIsb0B+un98JFMtdNsRJ5gxmWdJOK1pp8688AQPXLI1qH07JYwllzk/XgG7FUw5SvXFxCPeECrTxUZFOX81p1/oy2OTLQWpNykci4SCaxo5ZKaM0Dv3SVVG+NhPMrjCder8c/vWWwI1beHbqhAc+v+R0/ksfL64fIuTQUqHd03v5iWr5H2bOn+sDA0es+TA8gSYofDlPivBsHvgR5Z20Lb0sJiNKYSVELhxF+NjHuOshecth9SnOnQG52DBPRyxFcp/zXODp1z372snneeAF8ucQp3Qe628tsapRejnrcinlHD7BPx+JsRnsHb+y4nQMrGp0rbQxW74ONHYOT2KDsLtczWbLDU1+UCtLzRfstyXcGaoLi5wlX+KgeAtKScamBVfLel25zESdXrp4tkiQh/H+OklJiiZYZ9MoOWwrEZdqmyXvTNppQE5j/VeP+5pVHGcSZkd1rxrS+ari2VbCB1z02gSEwPw1Ke1uyumDngjySLVC9kiMmSRdWmaCwHFLYRq7Warsn/VNUgi6+Me5FcQOZDi0X8XTs9AwvRYkn+LTVNtT+JNMY1nWCCB5QODgttRvMPrlwGSj9kYuH78jl2XUC/hqx/kZBRiNXd+hiKt533pRUGG/WQRAgwx0dMnh7UqvdbXtyRtIqsyMSYgkXQJHYyNjcHRhP7NZHX0m8NtKphY7FRGP5v4j/Uajzm9ePYKcPnXK14OPtsMwo2PcFYjBrVMlbJqhCFc3cX6JbalY6Koif2NuFBfMEGOjc94C3UXV1eErl83V95dCPVB1ikMk97Z1rrLGqBUBEcPPTJIpCPf8rhzeJCaKzcAhI/fLeBiTwRKF2oDvs3EfVAy2auRXr83Uaxw0fk5IZtUAul4xTjd499F2SzHe1dYyDQwglIhgbYMqZ4mthLOUhu35gDFyNsxORuOURGXZbPwzoFaK07KKcqjCMJFk54YeRlukvzav35cnlfwFu7on+K6caLlbNM4mu0lnJxrOjDmu8Y1xC5GOuNhdawo+bGClDYZMHuLqKmEd/JqF2n3Aw1QuZYh+c/BN8q/CC2zP6YtarUKt55uy7L3J/IGxixsxYHx7x6/sTRFVFZhrQvf5m/guQNwt3Z4uy+C83ubvaKG9h9PmoW7weoEGQ6NCWL+tDC9N3H7duuDY7RMvgwhYpSv8//xrTZRbAa3/Q3BTcfKBVWCl0GbapD9NpGklNSMUcZrtJVHXzlVNmIeU5yOMayRdaNSK/5XOEVa27pg2DvnzWZEdXp+vWNHKIzq/+IM12TvGSIdRS3svTk65++sMqYmuGPcK9HZxN2XyD/IIeXb/RmSchP88M4URDh6o+sKX5wikE+VTYm3YRaxbB5/TXwEgRFT+BMZMJiv6lmNKKa4dn7jGq9NO/4JvyLeHCzhUO3EURhG/O4jH6nBumfxfJSph4EHikLG50ESkb3AeJ60GafkW85sWlpKkKNKHLbV6CTTDYVpcd5xCa80iIeFyzC+emWS/r99rNFTw2bQxZDuMM2JSKILpGmHB5jXHO3KRUfQ88txuRU/8FIcgOeI8Et399kkBAw3DlXMZ0fS+Bg3Z/kLe9/+xDiJBZqIeAjPh/6x+z4cbFpbq2Q7yOAgYwI9/+S4YhQfl8//SURBFqgdEWrRHM5AxHO44IpGblN05zMntJwZ3u+NuIx/oOkn5+OJMbIfELFnSAg0nOp2uKRZR1CE2bqlMXlodbSgNTL+/3wsPpPZ6u28dBL7IagDNFCEUheS1n4bb4YqJ8MVfMZ+D8NXOcLWjgGdpem8MtQ8M3HQkL35Il3WAX6AhDfRJRAAcW5Zu8xXY1G/a2sTNI47ii8IRs7v0N6gImaZypNBCaDRRPW640KK1Mdyv7gRWikBKOicx5Fn3ve4yrm/AmjYXPP3eIziBvDiy29uc7HvPSM4gNtef4XBDn4WIxxjJdRR/1eE0hljhyflKEr3YRKrmzlZXYvl10JNJEXRqPuTNjy1I8p3dvGjN9TSZEc6ET122ISd/6dic86c2/ct4kP6WMZbzsMijynC/RPIepI9k+IuCYVtBtv60vowAvkyTF8NSFa/iEp8j/MQl85nbqJPTpEfEWd4yY6As9WvBe4uD9ncpVseAGOkebSsE/04MvnSMgoInt9UXyx82cF35mzrQv8Ux5/jiXHgwA/nuP80MyGe5ptWMzBEapW6gJjBKsJksIytlLZSvEUrNAqCLoPszORNpxqt22G6bn6wOyYdLcNOycBOi0nIbbNRgWSHssOAadK7ZOeeF1suMFI7GsL8gUaiTfEbwDTcbcSngW8SQCRvdf0Ic76NcdvJHCbuY+/3P7B2h4VsXuQR+DZJEhMN5ollWiSFWTaYYrk9KqdFTzi2TBXzw1THgFKb0dxHxBvz40H7SRgSTvJx/4q6LSx+74paEmpCxFjvqYGSB/4ALCcVeALLFNbO5dgtaPGv9n9ZzOdoIqTts8dhxBcq+CSPG6hPsF5fNLmAKBneA/jxDkFqCNEncDhBlP3Q6tyiSEKoFBWlb57gGcTssj5SLsOWJYQLIhGOUxNTMQtYM/PYLwb2PVnlMqVqgy09bE1FWsoR5HjAYaJgWSKY7fi7rSeAQOpTFfXtCxot2kf4bPg7ky0vrZ/E24p3a+8vgtHYtTjfTnYE4A/rgghBl6ACmOV/K8RAh+XTXqozpKYp5qCzFY+RtIadpk6F37BHn74TPUjMA+UPxl3FxlmwQ+bPjt7zgQ1IJfY21HtER1BFlMMi1FNwO6spRMj9mb8Hh36XdcI6K1lMsMzLdSlb2oobKLmx+7n2+xk7odYNLUtJgVn8ZhF5zyXkXvGBMcIOyUNSOXIGiL5gL1v009HdUGyDFwIL+9dKrfq6tQeY90qudUmrvwMSerBq+Bh9KHQ5Yk3vaLWD1BMeUgKhMyHn0Zs9tMjkEPR9oHT8ryG8t8ANtmWhCOxzD0C/uted3O6czQHlr94hYszRsvI26fPhp1lRZqaehU4U0uWTodCalfDDwtf5YLNuRcJ1hzcaov/r5+68j4O7B0OIDiL/1xAeiHkq5eZxFrwklcsDCnStkuMZM5vw3nyiFIWuixdUsDv5kOLwAQA6fGyqqGZ1KLCncBLWs87pL/NTE+xHxHyhVRYSr4Ba+gTP17iNhcvnJCi8k6FosY+PN8npWi9KWwt7DmT/8LtwP4uJhw0hCZIxLg/Z4S5xOvt6FAhqGeYibw/1Ej2rme4c6RsftOTbU3F225JySMMuUPUv5GDvSw6ua933RL9ywCFR8E2iBR0JtpgoPSlIA+YW1+yfrL0yZPHYMMHfH22/fX7oYrDf3YXn1dQyrAx90ogAREwCOexf5UuRv3IZKZC5FgjWSRPvaeAKag3ky4KCoB687GB/tGUj1TzI/+CRS5XBqKtU9nTyHxbjnC31gNTyx7o8whboj7ucmvLoysrQh9xiw7QK8ofr8lqbOAsqeDAcFDmPHsZ9Rq/RKxaZnsyx//diCZwZrf45gncbef9DWNfUWgSXNWU+UwPwCAs4Wj666C5JaEMS2B+uSp1BZvrweWpFhsHUXHuNeF8s8256CwJcmLUjdtG0at/M0Kvb147YWows49nIwWMyvf4Z59hpHrKJ2b28hHFuMQ6ajj9LVeNyqrpGbffJJk5KwPrLKh1WYH5vKEGh7HG9sVhf2ilu+rItzfBeH836/PwpqV+TjUi0V6dhWV51tjSrvoqXk9m6ijRFO1HH+75iiUHwTmYlohqv6bLp3nCBRFRJAVUddkqjqnZE2288spkOd7MLVWskpiJ+Amz4YsuHose/QN510AofHGbczadk1n31nCBYmI8TB7YFeMrR1F3jb92DA/xbrNo2h6+lrOWqEtE672zvom7MfpYQvKvl6IbIp6aL53xemcGxA3Bgmzkdp6l9P3lScH4cQrdKXfmTiOORXvej8jQ9zXQRFw2vUtznGXbYIAAP7c39SkuzoGasfrQgQVknENjY5WfugjOfxzofXbqTKfE8dGY9DgkMPivCWmhNBiLkJyUQ1+ZhIH/6k+MG7fC2QK4ddWykd0ng3bNUu/3zp5Gk6gFbXtX5kayLxKk7h0DPcc6ehMmhOT35jy0jRN1JsILKJ8h1P0lPyxCBgNcM+WXmvEUxJimb4YmcZhibH7fgNnv1c4BMfHTst84Bgn4MY2dJYXOLGTwl+1qAAmaU6fHAtBOh21K3ptvX7OZ8gyRDgJlMDQZKe2abPEXg/m1cxIw0bDgGPTZM/U65FdtPriGddpwyfPsrLadryT+qQz+JAAAJ3RUzkkTWLF+nEzKiYOm1rIYYNEeKMObc/oMA3N6A9Pkso9Vx7OMzlVPQATROYG2LhSW0G1AC+DzBXMYfA9tKdJWi/uDoqAI2IQJ190G2NOafAABk1M6E5AGbhmAaHnt9oyUz+SpsNuBkEEeGZldVmb0DCHoOABXRB3jOQJOs0qHN/FtskqTMfdE8NiBbDVjANED2X9qGAabsZ9/+aFgcmUK/1Av55xKPWUaF1NHpAk3i1hBaw9eIdLhkk0mI+J5ZZQwW4HsL2zUL6GXMVUyJ6jacI17JkCyoFsD/9Atjsu0cUeATZ55rBl4+tyP0JFnx49u5WYcBnioGb5dll2KzzG4K+sAif3Z/zPREqXDi81f6atPJ2DJxvNuzlFWgAAMj3c9pTzpFDofcCWqlBzNBl4L+Bn17D0vezTCYjY2AWYvReFaFJArCKuW5SvAAtpRa+vohQPRCGuX7Mu49zVNb1UnSWrtkTd++VGRB6Bp/GEr6RLazF2up+BuEZqroxUmBHSqDmZUbpc0vMFVvAvVgiv9t9C1BqKH2Wpg4DjKZDcRmkrhJb3yNSeQRTbHHt9Py42INqLsTGQ8/HFxRRzRvzZ2vZHijbMT5RYYAXN9GmKbETA9SSAAEk2bxtHy1akkfBzlLQaMqiXOj+dDBuZCoPEJ4VOCyWatLcbBaQSCg7V3pcysIDITb6OquyMnbGMIpQLwyBdPdP61Ff0p5pnXBrTd/DXWLVFdUVe7AqAHqNyiXI6Ndc7kzDdZ4pvQAPLWwOxs8DgZvjPgu6qGGEpANVDGHA8mndg8Phs/UmUql0M6OyGzWMjg9aBg76c9b6SB5jlSCOP31xcrAWH/ZwBzhGCU45nm5Lk0hDEtOVOvuyTl45ebiNLcxbGHbT6j1hXkl4iJK9Li5CPHjJrRtlBrL1EXcNdasmkdaAC+BX4HvxiYh2hFAJoA2pSxS6yU1DzrJr1koN8jOvo/Csg0mTaDjqckgVQOxfnScsAGxMHFp1jRi0IgMSK1xzwaCJBgFhTZC1YABUAmc+HJG8nl8fsD2OS7gVu6XPiIefTC/UpEBw1gGIDJpqPmvVMbfvDm3zN7TQR7aADVHaUq78ai1bxx8xYAxDYojWDYOc7yIjDjAJabXZgV3H+A1scQfemSsswAdgYM1X82fYtyNGezvRueoGP+sqKAUhAJX7jhuhEMiu4k4lKWImSE8UEhp3sXyRgvNuL3RdShfCUPvUC5wbYtp1t0ySQECDQmHu+U0GXzLA40s5fI81dF9VLVpX3bOAGIkNWCTZvlRmWev0DBubybjJ1NinzUCtgBY4xMP+4sW4MjdUdYwuxuWUuoPMuAamRjfELdSOlphKHVcgmtkbJFEK38WAclCIW/8iMLHSIAAAAe0ADcgQ2pfaUwmMtEPGoL1W6dVKY/X80jtz6oEAEqu2uA3kzuyR2mOW/sEiqo4BmAaiKAkIZTpXoFEaIdgtyiD++wgRZ7H1qCZf9Wsx7yYNcUO7HmTnljbr6chh0AAKcvEjPYAAocr57bJeDNygb/Y4SRZkqr227B3gF72usYBIKx8qjl1JawCewBK5WFCXG8Qf84bQwSZm4WQCLNOednOrSj4yqjv9GAwdc+/xwyJi+clRhdS9WNsPfmKFtwipGFEDqhWkNqsXUUZUQwYdZRplgmNuarnZDJLHApYKb3OhUDFIHnTjKAQG+yZBGjslzNm8oD8XTk9DwwyS6v7W7ah+DkRiKpJfsV/uQ8VPOUfSPLmXPOYwAUgbFooYZ0qcHAg18Ot0iz1rnUKvW09LY1yK5glPYvPFvby1AEaErdNVuxCZlAH4XOzHw7ozGhKVUf7LAAAM2LX1AnEDuNh0IrVhB9asxuwBcmhCqKE65vIHe+CXmyBs340mKizKbEXJS7LEoQTduW2EnQQ5mx5IJg8Fq1q9zL4RP+X05upcPhh4l6G1yAfTx/b3oIOYDbSQq0zOwhTiTUwOFzovE9iG35C6CObE/5ASsSYLrS17ayFZd9O+rVex856xSdrjPGKdcsKv76076RGD9XayILllau3CaFsv172cB/B1vTq3I/ZFEpQb5lQdC61O3wVMaBwqf0Sp4MJ/GbGjOQOJjqz0DkWtvBqt7NqKaUhTSq3lIuRiMGFwYp7l0jAMHMRWhnG+Vpz3qmlF/iKZ4pgDzzmWUuR1k0xZgdnvaSxABJzyQtI8wLGLbYSZRI3Alil4fgsgjp3O1l8EmpzVKKhDY2a89aR0H+lf6U8L/HYT4QxSthEo1HdkQ6jh2Nvn0Dz/Dxpo2tZQoSPI8yKofPJMIxe/7Crf6irOwdZw/7/6eiofyLYPzxzE79+QYsMAAAAEYRuF1XBwIn9+MhsAYVSeoItTsYDhw9z+mBvYR8eRP1HBa47kN+ZvgRH39OZQVrx6JGoFW1nxdxoQ0OQoEB+YOOzRGSF8WOoT8YlcAmisw1lnrlzaakjj6/4dzURsY2zwtQyVwSHQ4i6Q9peUJlbqhBYeVH26FeSFvUuX6cJIf+N1bn1JftSyw0GlUwAfVSMos2oiudjaWxadgcdb3oJl+b6bXhMYXYbm7FPeYUbFtfO4ZDy7L8Rv20lL1cQA/O2yeIP6dCJEtlMW+6ibXU7LbdP6Cy6HVgIQNN4EfYy+fRNUVb3YuYrbN27jasgksTQtWk+1BUr/khNqjPaffaOBNZxqw5F9bl/3PJKe77UEE6P8mhdbodSByhDXhORbTGxEK/SgAGYQAAHsAANJ840GZ4ZjpXSW7nQn6LMIwBmyyrBd0MWCtbnpEhEPjO1uXGwk7dagBWrF055nxxzm6kvWP/zCUPkxm5lFicajjdUuGEbI6lQdVUMXzUgavy7M33dBGHEjyw/VjWYPrc4VYWTngn0UhFpbwTJBRQtdZx1JEMhz/C/a5R3T0p1ZqLE/DvE/F6Nsfkm3nksTsgiAxcBXAokVqTWwSo+8Y0jQjO3JvKPDYrWI3KEi3sM1KNnQDxTnpdPMvcL1SeuU+JtEok+kmOKsZ6zfW/MXaJy4xgc/DiziQVyMjmZh7Tes2m1P6hrkTsfrnAjHpTGHh6RqDyHx/V3ZBFmtH9dVJiDMLr2EHDJVN6dYIDCXELsv+zAB9Qk1gXIr6++8w5XZt3pJSTWBSAAAASJWVTpfRzT63vGdu8F9t/wvfo4i3Pk5WRaf01sQS+MYtuVuGXRBYncRIRL4g8r0R+BbLGak+xoA5Ab5iWIhl4yhP6dQdOxmIFlLBlRuU9mMU4bjpqr6mMQQq8U+YoJ1hxfm2vlmRpHYj3DkelKhE57ZywcULhOCw55srzltPlHfXEQVydavmMZhCiKV5NwBTrbvawm1ujyR2UiDYBwCNWlc3rMZykiVVkL9kBqq7+KPIV6lZ2zPQ/sINoPQmtbpT6ETwo92Yc17TIidMjbmkQZsfVME799zwap7dmnbGfiQ4+RQD70Lpo8ePI2jf6wxIDPLtY9zA9y1QGlqev0PYD9DsUjP+uVTuH7rHl7TNAyZbFw2FkHYslRZvUba6l6v38FF4mrdLLHweZ2goLrZFvCAJwEOI5qdcFA+lq+pnrqNAY5YVqZOASg0iBUrl4WsOtAEYFnTU/gnDFmISABEj8zVWQwLKNUDY58Yw2ZzxiAT5mYbuQptGjmNfrU6eoF52iOg8jEwnOiitFnJ7ZEd0GjzBj8A6jcCo5GCqAcVAAZsAACFHvnkJCD2qMI2Y04pFWsT5kS6RKda+VFpHqDYzYwqU+evefPHNB4Sq0ySahTcmj2DxdP5srotzcBubPTkuTGDei9lRnlpTCde68DgWt2pbR1SBF6gGlVolZ88j///i+10mHkZXT/OqSWExtyxB2dAKO30vp+N3ERRVMEpWQI71tBPTDGJj9o36S6ox73zQ8oA7rVaAxYceWt5ineqah8WYb3tZhkpc5m+dfo36JLQHIdfDnARNY+SUCyK4y4Tjc7pg2wIA8JWIiFhw1hd1gFGjLZIdcmHJ6DF5kEEUjvATFZfDABHqwd0aM/FJO9Eh4q6L5738fcTA2oO8XxTfSZgvJmhPi635SLHjcHE6nhtZPgXzClNSquNS+on2A7QwceuhQiBWRHLUB2ULzbz7wXHhfnCEc4D9jq48Hl0W4H7aT/srIb+xjS7OzBfCax3TC5MrNhSe48+vqMf49VUtaNAuwH3NoVirp70FgeLS2aSemE2MtUbyqJ5jbgA8mKTB04d3xO3JpIHAmmaj2jcRtIJlMaHTe/KTt/SDpSLidiJdyjRPKTw78++5DlFtE6WzO898wJhRh5/hj+w2DCTiLhyf7SsTCoq44gj0X6+lOEHZoJFBWUWr5Gs6pKS0b82XuWJIbTezl559gph8BntrD9H+38G590Qj65vC68lC20QC9NisXvtH8yubSj6pU3LuoOfZpCLLKaAMBApoBIdiSNGk/TvwbwATg94jEMaq3RCN/F/bSRuYtmWMOLC4JLB65FzIiKR0ejvdy+Voc22wZc/PLrF5qMksOILiFg4FTWsfgzKUeQB0IFnXClahDc7CHsLjSqOCOJ2jx5WgoLQMh8rUJAu/bhOllDk/xRNmzxH5k83ubweDvvrsxzIIaxPaX83Qb+O46MK8zFvfl2qg5YOhTa9hXPpfRpfD4mM62BQhrdKUO6WE/t37zhmz/9lzouYiURGLCmMnxZYG4dKFNM3ErCREkhm8TMlCKJa2LKMAgAvSqL7onn7fqC3L+Ynq9haLzvA0UHqMIKt9BGDzXbQcWgjOSICbx99f0BLJk8y8eMcFxRbYVrh2KHk086udVCRRAhZT0TbVlHcqXHEV52Szm0KzNhvVGBYJzzlW049iz4mq6Gq7prLXd5XI6bHLVuLdtFQ+gAbgJydMo1NyX+PSG11FZn4nWCBJ85CE4NNsjRbXH0b2ZDWzjKmUycCBbpPltgvHpDqr7xhUrtGIRKPu6CLzw57TUBs1sIteB5LrCgivwIOi/8xTr4nsw4NLnH+dX1QfFt1RXU9o5RmrixhmYfFiW47ogjIdmV0SGADI6six1vrjih/LfymmeLx9Fno6jSql2TeKZtIGgpN3N9WVT7qXdbtntI3uiIQ3zU0Uj6Qs26/4s0UKVH2o64abV5yZP0l7Pntn30pEML+Bqk+2bXjvyDC8zN4BX5d683WnidB6q3F3zYanyI6uO/EDsmAfr0wX1QHE4zI5+xCw6eq7H2KmOCTqXZq48DAx+x4U8S/gfx16amhOQQs5FIlEGB2J637OLWdmD5+mM/g+Y3Qtp7ua5j7X6ZD6PAxplvMo3cEbdVp8oykDolpztvK4zsab8SdRUNt9LN3wWpcE0u43XK5fpo/JpJ6xEjRJdM1FZH77qrpOASVnwlMiaBfgHMFZRzt6/3wtUxpHXHZ+zivL94ZQqApUXNaa/jGNrzmSioSbc/50Po0BHbZMXtVqt5+QNfu2jgQgJHz3OLNoV2K4j12pvUmp3VdV22HVoVP7ymEtM2T07AtbZCXidBPyIoFQ5Jj/ibfFOTzEGLHLZm4dpFyzic5o1kWajqDkJq5qBf1+SquS648p4bIKIT+QBc3P/6SKCRb+h1KjTU5Be1tr4EqASVVnMUCghWC3NvvH1YeKaiBwDOYhoZZSH4jf5ai97cky0Bkp6ytBwt2V9ugowZUZg+jxhoJiJ0j8YGTH/Q0Z+TxcTWV2MTiSiHI2pt6UVqLU0pXqKItluNUHCMaAanxGzGD2+QGKPToF/TSrPCa8ii4rp38/yarRpy+Hy+VbIkgJQ3MtnINCESdsgMOzOqwRZO6nfdjGtGyKgtKsiXwhQuLCXOmfyfqBT6phVc5KtrY3hieboEfr5YGwoKnRQOVvuOupYSLh9O7n+wFAgA20jUsYAwzoKAp5aaJKJjbMLIe7dI1kXVtzYn2vkwci5MO0aPLjvANuulxpN1rJlAnOzM0cAvGkOUeDUJeM06U+Z/bWtamRl9JcM/TACMIQooZ9f1UoxkJjA8uYMDEbbY2IAo/PpB9Q8kwMd39wo1AKwVNi14vA2VLBoJjCBfspZKcwJNsT8IyjbIXmPevUcEDDH2JE5XXahkRNa0xJn9UjTksCiD/k8uelfMZDVaYuCzTfrAcZL0roL2QVw+6kjyKAtBMHnKP4Mguutg5aY7ve0oABDrgqy0z+vV9H+oY7DVB0k+ry80ZXzGKd/iq2WvQ4ay0EPWImMxm6GHuHEIIscx/VP84KC1q6FiydZtZxB2Apu0Vk5JTQsKAiprZjpRSpboNDHrSx/k3xChlS7J+HRJHHwSfxnKU55+PTWXcuogNxsEgAfn5QP4NY9wmHSToJ//M0rI1jfWemunGKvRFm1+EfeGz7sIf7as2m9clM4Ve6zkh+36QYldFgwRpvpmRzt/2QQgmoExIzQ1ljWMzppW/MPQpwMZ0AaW2gW0gRTABn9rD7mBI1Z6JM2Wf1zHuZTPC7FwUEhlSoJP4+KZDSalpM+IScRim2Crbo9DH1PNQtdGYWwJv40XMjb0cyIV/JK6saDu6n76FeK1KYdLGtr0+4ZuTyISAZBhhzWCJh9rZ31CHzAzMNyWdT31UfWfBPSI72HfbOspu6tHz3Xu2N0z5CGTUz5mCnJ8ZsxHNyDpd5HsCc5E1kwmveNFMv0qJybmw1ipqhM4GlHI0LklDYatkbd7iyGmBAc8Cn6iMed0Rsbe32dZm6lcKf/qiuShhjvxOR343q/mJ0W8K+kSObB4kgPiDs89xYKZ3fIHqOlD21jvcpt3jB2Pq1shBQ1O7SBP2cJjFkaWILzXXg0mjtcwaosAGn3GUBklwn9ypBSEufji1m9PmpnDrx1MacZCwwBRESDv641e7Kis37bRmdWsRVjNhiz2OR5w+W0CYKEM+Q1MawD+aN71K9LesUPf3xe1S64QcBj9SOqqOMsgGKHJFEFcM3rRXG+miDNBoiq8wrxN6tiyu526dCGIPkAxDAKw8vTiREApVZ9L8cgT2vOqbI8M8c+P6NGPgFz5ri7JBr1GrVrz+Rdm2RgoKkAqjvdjAd81k0akUO07xpUbUDqZC1pUV/guSRtmSG2g836LHhtmbpeNGPDF69Pfe+fb82998B5F1+/5jgB4+llgglDzYV4RHbOP9qUf6D/CDBbjJsWasa1+nkUTf3WJygG5dgZGWY7zV98BBZmo5x/4iCc3ey5dmGE2gaCiOmKS75Ehk4Rr2Y1yJvZfvCEkKe+qlbkVXAMu1Ljxz6WVcf45tRMLOK75pBDtElulR/HtbQbw99wEXgV+qvtUxytiyqZhb1Denro/JAf3QU2lqnxVi21jotrmaV07fit/SO0I/rZeI+uDLCrZSiiQxHppfTL5U//Gi6oXPk4oIWfxiR6BYT8VKUjWOwBExi9Jpiv/GlOUKMddJNXnipW7V7jP+JD/KKvtPE2vxY6VF6NyF9Y4yTsF/cO3X3LdAT4f+j+KwhFXnfrhqnYNnLe3d5ycakugbVkgiChcnvTOjEuJhOUJDWx3DZZ8+VA0k+63J0l83jB/XavE49dbn5Mk+DPPpn2IK81N3elDoFGeN/fSqqHxAIkk3ARf4s4aOInzRXsPUI1b+vafLF4xvD6iTF7e3uCI+29TTlJC+tnBX4PC5eF0EXU9R69T1qOulZ92BRITuYZL8C/TDhvbTek5edwowVIudOOv5EfseaYh0OIrDTZy3xCMMT6BszXwr6PS6XP0lib50jkWHNwxMlWXweuLRu3NKVkm5MhRteUqnZJ59VsNI1DPHWb3/7mQGPD8Pfiyu1Dz7oiV9vADjEiAw7uQx2yVgm8UHH5gBvuudcmS5GTS5xJsEDeDxL4yJwKXkOWXFBKvhfZ8VBMLyHcSYlmQ584RSPrQippNNwJxZxkCLjHdqhKcGyOU8SxXX/YVcSzvGYLtj4HyJ3mk+oCvcU5RHen+1vPbPUQ1ZDmaZYEHs4jsGuoNI1U+wX7YIjzI2BmWmyxduD5bF5Fdk5mwTKbp0alg5Kh4ljVBZYZ11eu3z+KlSuSUdeLYyyIOrgGv842JUggcY/SvBZNeFNMBCYd4CAcOr9cdbrU7eZhgZ/nR31uVfvUSm3mXK1xMNfuD4SrEKkq/eUVQ8Xyp7ah2ZdoU0EYaqCLxNNyRvKZU7SRndIzO3e6hUk/wils8/8i5uZ7obqsjVltLTZd0zw82RIsSYx1ixptO49nh5itY/BcoO8TARJLo7y7IZqZyVMHcQnfJsFpEzEUFiQaYakMF5otjkNxWEJo1wZgAgjHIyMfF0G6glG83FPkNcMubKSjgmyAfAaXmSBAy2aiPDL5S+N4zqrmUv3DAiTN4gnOtOHyfdjww3sge/ie05FwY6/UlWiDUC8gXootLXP/CiKIB3SZA4nD/L2W28w1D5Ci0TEtlbFCoddfPIMN7GHF+EWXPibAiy0RhfOnn54nfYFTAN/HKCVjCn4GjwBQcmnqrUIdANk5VEGdHAe4eAgS1VHrLkN+EyFC6MTbEBs75J5is/Eu8NwdU+6Hgtul8YVZwXd01oMo7/2p6nlWclou4yPby8GpnFVXvJyko96X3PZnreuHWePS9x+dzo1l0zNAxCcJL5FcZqh/5m5yXraoln99VfpTWjnezVPkZdex+Tng4rzdA3uhUm1JGLOz9vJE1mWvESGGyT9LjOyvB3CXgSaS1gH0wpJhP5eSeACfQRhJWey4Tyow+2jkzTYyHVdQ+6Vfmm6aZwDaEqsp6bDz6Y9gZGR2Kg/ydiuXR65GBmo8PF9rFbIgM8DbYqS8TwHQjAdhvXb2ut8R4fTwxQ1ZruxRP8ljiOyUropAbHdpnpIVibP59uFTVHq6zlzvfSV4wsxqxDkXhudU6Db8c+hh+bb074skgSR+Mw/qiQBjHpDZpSplewW5VIwQ0MFFjyk+XN+H750HioWRo/aPMGtoQzH0M0/17ymwx9KkzI7eJ3FRQcPDnn7PL+y4/SI63InQgB1Y8WoGR3oPWc/aPdU0WX8P8Xf2x6NSBdzkhxNyvsmFvFTNpz/dzTJbeu6LjBarN0/mHeh64a3jlF5Xt/NGmY5BTCri+BGGvs9M9XMZ5nHmNWbmJpARP6EJi6+wAo/2qiW+a+i9EUTj1UjaphLfQTG71i5CBb6nRZHleT7R+2KuiQzkF4RJKy8wq8jhKRx31QWzNRqnkLsf0/o0w4loIE2xj8GG+f1BNdW/VRWMpF5MfsZzQip0XYCAFxa3iIOClT+JtOpzX+w72Gp/ttdUZ73arRKMO+qIfyy5FLxX8tlht6idBQUJlrChMBOUAvI+hEyUCjH4nuMoYxmZEi1BL1R+rmGxJosV/8jSP8MJnN8ugJzViMkvVstqJrZWeUKk/u6WQF3dG6kCJ7bDRkvZa9EE78Zo5Ba5Q79DTcO1HOryXX6lHTOPLMW4TVNMkQoNx1oF7+RCmFEhjhpfSt/z+dEXNReAzp8KAshCDqU8yejWve83qXMC9eUVwxq1MD8f0OICroZkhrCY2hKT2f5LvmPZl+j5oDF5UsVox74Ct34SuoRBfvZi4Nk4gCGoNS9u1F9Ddb1l+6PKSFtwm0nQB1rne0omt+6liTe9cI2tWIhSwMq0Ba1z0Q2RM9t6eRlXwCwqZq4WMABaWHBsCipSSP42YRrKwvGnCQ8WQ2LZIE75Nckym0TWUJRsXgYXVO1bfSQlWtw39lGI0ykif7EtJM5b7MYKprmvy9cu8rmga92mC/BvPA5ChSpgMoZDSSYKXYwp3jTH6LDnEdcQekXbBCKRrUO7SRQPiVTDxxA1YVu5vy47NwpMr/g31wAiz0k9tLxxNA+Vckl89hPoZURuMOX2MSiYCaKE1CxDMNe4H74OfBSU/QxNAfR3aHmpkH5WjKzeMzKGEz//gqyd3c/lbQynlt0PQdRb/Eiqq68jUeTwmGu5UIPpx3pZIR5Y2ZZlpyLXgDBRtOYV5IwCZdKFhakKLaeGRSs/j1CBUEBeuZG5GlLu2Afk0zSYyyQHzdk19xaJ6tNg1n+QF9UBMmVt9W6POVzOSpQMWQO0Vrm/Tqc2dKuJGY7gceR99dvg4nF+9+5kIE/I8WA0EBQKOcn9EKk2YiHsoEGG4YoBGepL4w0Rar85Jx6qc9kt8aqOyWvY20TXvOTMoEitl0FHInFVHifBmwwxlLAgiiEwD6Q9YFkm4F22s/Z2ojbnudR8JhA10WmO0nSR+DMR6IPYwYgVlsk13vpANAl1UBv+SA1fNbukvYdlpAdtMOXZylYC4z+JD3DnQTjVMsP7tHVHnQljOw4FisRWJ6HDlvL6hUIX3NiFMkNkOiin2vswxJytHWLQ6HbWYK9YUVyUwIEV8rQLwXWCssO2z4Q6GaCdTvFkWSn/BG0pfcPkdjAru7u76wT1ujAV+Dj5sQfLR+4cGOtLZLEjpFQsNRTYoCCo24CfDb0LJXHlPBaAdBLM2NGq7mlB/27nLpwoOSRvi309qExbhRyQTZUe5MCBkYgNLEDDPNNY9JdBV/khLzS8f+KmufbxmN/ujY+cYdM3b2bxVJj4Dto0CZcqB9SgTY1fX81eSBI7YKi2ZVpndCNqEVUEfKpJ6AAG87Ei0sPpB8S7iy+jeil1JpXdw27ef4JLfsB9OXqt37yDrXAI3nSdUJDitUyEMssSo9RDSaFYolokhUSI02pLq1BtsrWqSlu+tK6m1ybmXCD85k8lvK+it3ZHbpFFYabejanh5U+SPU1brONNx9cCfHbo8IBUuu7S3zusVx/ygLmO0YAZUEjjcsDZJtHePREMJLM7HeZbKjUzwmoOZ7FYhfiXtDIxe4fb/RPMzjVSRc6Kaa2VIrkUqpoiiyk8eCjjCWlWy/uEIZt2+0Du3Og+vZcdAQ+5vJGruNYUwH/hMeksdWN6kWv/TGFcX0MZt47Ljx3JH0a1aMT4LDprxAOrPPMC6lYo9IReV60u7GB6NLJnNjjJuYNDvpC2+ug61uOnRAQIubAtlvLQbweVSaggqHTAMCMIN4o+agSf2o60s3ivNvN61hE3umsgQKTnGtARpcVXH24B8KUHIJD99VtFwQ6yYvUL3cRN+pqGM+9XnSAQA2Vrs+PMRarA272J4Mn+Xc85MzjdAc4aB+GJZ96x9derDutY53fe3j3Tfn4TY1zFNl7+GV6epAR4sAUN2B8t2+TXWY/HEdQK9Ifcid3vA62Qe2DUPbNq/0x2zlK/Lx5N/Zht1SN69cnN8prbdxcKI3u21GRfYhZ2SmzgBaXrOWDIEQQbhSBUlBiyXO91NJNGrFMvgObr2IUoCB/r4u7+ksldcTB+mbXUH5Cj2Jy5kb3FfynlrbQcJOQtrmDAHWKimcDvdSeOY2DItRQMfmJZKunQzwI0gLPSbMedElKWO75DdDKrufLa2oc/dVWeVL5feiM2vDsvDDQ0QrdTle+e5Xxk7+hfjYd8XDaKMbCn/P8k8E+OsQmZBXLHWjbuTZGLBm0CkZJjxAXqCNJRPCHfKN8BHi5dU1Gn7Hf70wmVMih41x7Vguz2RxFRmdDUpg50KueYzULL0MKzdsl+n0TQGnqqHTsEnXZQlM5HaEoi5bLxPY70v3f03PCRu6xSB3dAjtfqPQTpDEzSjRxEh7emzwt+/oraFNWFiyikKnXFOHiXvTlrUfWDIoYGwei+NiBAxs3UbUkunm+o1hUqqyPy+Yqv7URXSynU8S5NaMMGHHB1mMBzGwqGmPdjSUtiXm7puxEwSJH69pPcfH8oTNiFpErnmaa4I4eCpfi82HsPYeRn3WuVd1uqaqNS4Oy147HnV3DOBSOW5xZdUuiNbOfac021t2prFSRJBa0oz4S1GYLYSrnL9fqhCzE1Klh4nr646/qYTiPS135zF0P0YtvZBuStrPMmkBBanf7gtJoTwglQf3AbmgLbI8wtVZS4EPLGZFQt6WquqBfSTXzTUFtN4SLZtsybrFaDwZsVDjTm/LzBeUHr/JTHNX41dT1A9TJVs/7ZvKatil63Avk1ikU0wLk0IecFN9Ox+CDIw54eEOxxJw7f/bSfbwQ+niN2aTTifX/fqfDyU/Y5Cf2ZzJjMPZpNE42JDbHIZJv8baRMIkCBavE798k14A41iyGiHys/v8tiVk8LtsUV6Q+qZ+C2ywPaEEOhsewp4+t64+e7+pHL/gEiP473lb9oNmdX/JRfnDGEe3LuWig+cpaQk+O5VkBgyHfMAjODQct5HAdVjuWB0/DgrEVooVY5RbqR6zrTNlrKpIU90LuEj+7CjpVibfTYDu8alMvR5gKXUZhd4lQbOcHDktwTC2Qs+gSkwv7TaeSnDohxJlMRjsPQ/tlnEPivgM5MyynxgVEzp2WjgFLHcyNT4ttaEyW/zOyce8RNeM3Fsxh7pDpdhpz8GHsylST93EngUR8WTWBHxmHHJJp9QXG0KLyGhlca+u3Ls5N9W4QFK0/YnLnUjFtWeEFzYx6K4lb73A9pSKOUHK0S019aLqooyMolYPd+U5iSMPYA0/eRgH+Rtsa1l85xKFVGnHdCczuc7O3DINc6uvi8ky0BxObnkykcmiG/UNp64y6vSXAo4jbv03SH636v3uLe44UX8z3up/65My8TAZU9uTswyW3p5tx++WCnSDGTRYIrCRVdcIOwC32Oy9SfKMf7cjrRKmvQZTvdp4KYdAk4owOcH9wJBwNJvXUt+VW749jsbXKGme+CFYF0GWccCpJo1RPAxRGcC9cqMFcPmaijx9rpTGusYblQrtWFX6KAisp4wmwdiJOgpFnZ9YecEAfoHESl/Kqg+mbmh4obhMhXS9wogO3qAyr369p/vhO07vvisOECN/my+1uMPzCek2/OM8eEali4ano/jy9TnjYi0a2uEKPxDOFeFvBhxVj3m2tAW5xmjKouqaT3sujb4I8QPkdyulKYHuDl03SR1soTSjRuJDkxr4GG6kp1i5dZH8P6pVLZOVdhaFFug+r3LP+2JVVlArPcQ++gP0gPg2UPia07KBMMLl6oXFX6ncIyHGlRbIbS3mWHZndNOFYHZpTosCGoZy395a65w3BHH+TxEnrmbsN5wqX9zhbmheGapMuzeoHglC8vR6195/NVlKlJPUkzEpxJ14UUiruK/bhZlMdxcReg3caGX2lD351+hYZaWDnNuNu7xBe0lJV1IMHo/z6oFUks1KJZhKjrWeSRk7S9NkJU5VO6QYptOtnUrn5E2eHSQP0YNYVQvItZDqA0I/Iqx3ngIVRVkrhA12jEC4CtecpJieznOwDDTmZ0edJ9NkevyVay+JaxXo7/C1az7/EN1u+iWdcFdZPQ5zJmCGQ9waDaQsWjYYXf9r+RV4Wo3ttTeFKYAqPHObTvL125/54SZRA4y+aOq2PGO5eMFbpCQ/+tglkmC+6pDYPQrzFqoh7JGBlPO5gR8Qa5/ZmvXwWsmaBnSOOh9piYXpxRS4pZnstEwptX//mf/MfvtfyLWjdbCEtdpkyaZDVYDX/lMTFMRxUAVzvrJ4SCX1d3waD6Y8BJbsOXPCKa+7iAvlYNs6/bGu+NtB0CQkkuhtfZghTZcJxAYaquO5GGO7w8GI76ruwtXqVGYjMzf2FX8MOFuQTYkWAC27znYWu7furFpMy5rZGeSQRZyeAs8P/ZeR9JwP34rmnNxVq3nCCxQKliAcfYmzPH/Z45tPVLgu9BjBYRK0i3Wma/j/2KqrjSkDnmTsH3GOzJjx3fctk3pMSgoxsUub+ZOeYYECgjBxuYUlYaEiX0M72lX2FDQUjzvTIJntXQqKZaC2xK7VMxJl585fb4u6OObo+7dVx4WTOQcZTkmfu9GohND/mwF1QCRj15pGHmjlLcnJPac/GPHtjLHlkyS8ZuRfXtQkdpxwcI9oBiS0lhYb6Ho+Ov5OxpONIHg3lCG5SnwZ/IznOq89Ma3D7HvATWGPRPS1t3rCzysd+U4afo6U1Tweo0zHxz8WDvMJ1cqSgO8vqg3OveiMMre3ZeQp0iPUkE2QScZrDME69mnqokuci59g19inJprX32g0Gkqs2eUPyCln2VKJZKTgj4lxjSfBD8yeKItml20s3tYGDSlhibr0dfGko3x9sMuG6CLHWb9gbxxluBBy1PGABC6V4ybN552EKbFUpyttOdIQ7SmDCmjSbxjuq0HZMm8DFYnv1n6kkYovgUfbrlw5ZysW9bcsmFYTgC2JL1cJaob7KCrDWWvFqaCua1NQ8fjqgohptCmkI+dK/sZp8tuHLauU5UJfwyxRRahDRI45j4vYTA2LS8fxuwE2w8fY81I8k1GGQvd3gg2mICwLT1S8hPOxq4/T6gXpYVQsBAPSupRDI5KnaDJvcPiLA/D6mZfAWgEfR7KcRfyLMNTIUwLRZmg6SG2ID29edLay5hsIr2Cj5jmdyUktpoFqxyumoV1q4dUKzVZ4md1PO1pk59U/yAsK67Ho0iVayBLDjq61/vvus4h3XqYUVEMENqnIde6wtdJTne2UlVyunhntHyxse/3P0Js14VNatjuxY2AIPmJzIbU2fTJODSvKRCrfC81rO0A6meRB5soiHA+M4InWg8N7iv4PPUkiO55NktuLOjx3D9u8ODUE+F8kI+Hb2nAC4ZXb2h8xni7CLmm0oQHqsHHlpz1N899gIxTd4YqlzBIGbpFA6UUjzM6N/KUws0I2TW4zRpA37HBEA/NIdXnW1Vl1UV/aYzIkLFSh/1lgTxabqpnxOC0yPDzNEHQfnoDTO1UXtKLFx+VSKB+pUGWnEnDs+VpYHBngZfpZ/M9lCB0/F2MttVklZwv9Gw/ly3SITYAV5FSkJYX5D6EWjzctGWhtvhwWItEN/FO4BUOF6tRuvNl+IvviEPLXoA3S4W4E81cXKtKcL18U2rJHOk/cwJHh4+62EZJkd6V/pBqvFN/tW5un5wWO4Z9l6vXX8+G+Fv9xsveoZgzW3LBZpS4QbFrgARZIWDH8Tw7hlPMYi/KuarH+2HXxKJSp0EPydcV7oAutkIJrO9fqrCI2H8+K3LtRuMA4jZNLXxSpgYk5bjtbQgpa66vLSSHQayyRkwPxtJCfLd4qtmVCBpJEKD3fUjqUgWXPguFeISqgW88WA92Sbjf3oPYgRG1KRQ7jom1DHOp3HTGYmlTI8v8SQNBT5xVbZrwqQPo+xvZgwviDyVFkmVNp3gx9JAVpRKxm4CUuu2NmIq0/2HT+FiBRA2vXZD+U2SxpdM5X594g+sSdZpQRFuP6cRDqSVOHygM1lraSuq6rYOstISfamPo3kRobJ9LucwxMZhwcHkgYCwEN11bSg5UcU+xHrHW7qEmJpEiIJmT1cLSZylpE8xrCySSSR4ESgWpj4aCiKAsSJxX762mXQFHlyNuSwL7mOxKLjJ4mb2tkNlc4pk8MnkjdNBLwRBPd5sXzRTYA7IIO7+YLdFpi5Bw2dxknqt1QaHQ/Iecor1A25YDx+odpfdZuewReUFIInSqu+2F183csma1WQ4/h2MZElFB09UarwRdrfzn4e2s15ZYdVoX5zt8oQdwZZYBKclzLbaXft1vEYIQ7AV2kK08Toima5NALIHnSskFEGD4WfZz76QRhBcYkcJ39iIbA79LLGTFGxu7JBxg49ASBJ+HM7U7ewfS7Q7jf3aGHXyg3bJPM1Lpss6EX+UCrw+Gv9Hj5WMkba0NLvtfy84OGu3wBYGLrqB4Nh5ay50utDDRb8JqyzPv8B1lZaMAMeBnd/eHLhD4Ua2UxDPQPrVkhtK3WsGCG167xNRrA5LdzrfBC5KI5SwgWaDp3lX4FXH9INwNqgjXalHtKlblf25YtYpiJzyYDJVGgo1hIzysN9SiYtJvZHNN0yKkDfo6Eh/gSM+1aVAPFURVZPXVBxV7JOyGakKvaArytJ3MtL2RC4HnEyfVepQKJZKQZ+m/MKoHbkSi/tCOBBocIdUY1r8RdHKSogDMm9pK5nUbwwNtIbWxrKvsMXRFUQivga+pIwqEhm8Wk3gNfWGLM7XOy0nwfbcxs9PaTeC0LjTTy/Rx+R9LuyU2REhOUhTQUTGLHLJWsbsjCXIalj8pfGtCW3b0oN8Tb0arjYP1ARwR5niNFMuklChlo+zJiyugG6BXoWZZS8+UZHTXwuRD62XkwBeU4XWqnGVqtRKeL0GzFMHelXkZFcSC9bguVgn1XwV2KmRQHFtxt8QZhLairITTzTN76NdGskHrQ/m97X7xg4nGT2gR6g1r5lmxsQmQcRSFVYFIur40EZgDpLAo5JRUZucFvAeqE71kObk/4Jbgr+ghSP8n8BurwsX5g1h/FFLoq+DYC6YLBJrGdex1tc0250nhid2u5Gmvt2IGzQIc6gy1UJFk3XrqktbnxpAKhgdMDH74EYLt7jMXV2RgZ3tjD2moe/+xPPDS9LjlfEWcfsARSEOPhTh7up7Jtf7/5lQ6ncqEC2CxjQV0vcZ6OdizAxqEvh7ITZwFv8MpqD4vRERlRJoOrc0862oRUSj91wG6pTFFAc2WoYSmtAmgmfzWpi+QRjVUNR51toRS6SlYHaDr5jRdhcmZSRWadIyKR8WIFaXXokU4okQwofo1oTqI7vWHy50hgJNAANn9YIgVKKRh+bxH/xR5fYeDWIDoas7wxFuThR0FPdmzg55fkTsMsftGFqB5AjfZ048pPVa1mgGJVyjyBFgjbXCKRKaT3Nhhwk84GrS2E5to5Bst4LZyL6bgHGdJib9Zt6WvHedQoQbMJMFEkCPsvVMQMeHczg1V8EBsQfcUM8bCmNonxg0m2q2u7O94+KGYdh3CnVpf1uB+wfxQvcOv8KbtCHd7fFRoEE3csGCpqOMqkEREkuPhOkIN4UowplgT7Jhv5iXJf2j3FAedZxOOL8slpJVhSXj7Oft+Epxu/yd3KpkHPxJUmN9vEdh7vwEZLUSYup0ENR44oOAMUrTEbNh20jeS6Ym8OLIPoYHi9FACsEoAlvi3Znj+bxMVK561Q0STcrlwiTK1LO/HY8MJAbUGyzV5R47I/4Y/1xgRSNEie2jKHY7KOdbb41i9zK6HaWym3Y9dGGefu2dwxz3CporH7AcvMkIHC4sHgM6DcSB4Cy3mXjJ9muCkam26vNALoIUcQswDC22PDdn3ijYGQ8kdOVjrgy3ArCHtw9D1KuAoLlxDp+TmgTW48R+KZdQV0St4uPMbzcgacvIRXdbtEWHB90W6oEBs2b0wbFaK/GrfrENDcKH8n4C91F/YKm9UmUKHjDnqaQ+sDb+ihcmwI74xY7HjNxtrD4+5piCkz565O1hLWtYBzK4FcZeh8vMBN5/3LnDC18EQA5iJkpsg2PMmoOa9HAqkmCduVyiWMCGdOjTLG2G4BHb7th1A0qFjBdUpkJHSmBmmxaoty6IhGyU1Jpko+tuFFOGqpaMPkOqmSSI8jE9cabbeOMRiBZwVen2fapFlPoAMRe71DcYk37/DsXs0UUtlrRb1ljNVULZGVrNZygQIjgHez7nQFBBGM+Lu+dDr+riwqOAfCzpx19DxqwiTtSXDkUQPmfFPfSkKpFT+ZbPk2PkwQStVKgAz7gIQlJgWHMIHwf1seD1LnJGje44R6oycON0Kk+2U4uDpu4M6wZ/hSIGNPX2AUAMOzOMo4kUiMaI4G6wbk+WlUIclm2rjl1c8TnNWVEEfsoHCGiQM4GDZTYwWg8AaT2wuGDy+brKZ0LWwmM+nVwYQjh8IT3J3Ra306SFw/fByzrl8IlC0ccFZ8Wrh5vCY+w7sDsePRbp+kW/LJpbglnGhomxnKt6FeKvlUZMP8NtRGjUUkRGFM5OQrtagtnlq7Ep39hzhgcI7JSHFo3R8AP+Zig5f+hxkAQlM9C9eH0vGg6H3VjX2h7pg7UXzOkKlfUdYBouE+kLOHGQC5OADlUHuz6NhLA7yMI3uvHXr96LAPd4eIXsRmZOvYaEbdoafKbvvADEC2zMoA8w0MccusYV5X2OdHNaJxvKd7kLXeCgGdoFOG5ypNuv5p61sGv4L6qcIuOEWwerUZwBVjNRGnr22bnWoAhdjQWitmKgY9vntCc+xXvYMT29QWi+48uuHwBSDvvhB4y/rMXHnEimi9KPb85uSr+rdQbAVx/TwIUGVG0Q4J3wExCzWjEtDq/IZfJB2G9t9d0Qfx4DJcavRQ1uJgii2jLKo6YItwXuxYgPoEXctUkWozcpLreZ54OmpUJ0WFfsxX3qZrZVAyyHG2jiOt3sZ7rB7RCs/PzWoObo3Stv3tWLLIjaknYSxiMEUXz2+xwshEfzYyPcEZJZrv/h/2hGha3Z38jgk4gBAz6kDr8aIyTH9L5TQlRdibnXanP+4kVsxg5nBlLkRMBtn2vLgKMXaHipXwIUfTELqqnwSYFlPWvh8Pg9JL6WUnna0brUF8f0ksNPksOs8Q6X5jOjMFfSd9AOw2ZOoicXOHPvGeF6RJPHog63w4Xdly7/bm7Hdh+0oDSxgJrzl5b8UKiUKGOSgJ31BOEJyX5R8PmvkcbhXMEApGtYzc5tZD8bW75DMYWezOBhAI6zSJJzX1t8UHCPumyZ6z6Fgzu2YuL6nK+XpeJoBvS9GO5hkRdYEXdehf1u18o/oYf8aDq8CD+AgvyYa2bmNLe+unrGZ32fepbb+NPrwqOzau57c1GJ2JW897MxP36XNwl95IARnJ5BGswPnjz3Gr26G8vIeI+BnYEuoZympfkww3bmyCL+9TPxxbkVdBpyyuTDaUxJH5pf2LQBFtXzTPMXRmXtPT0p4NxjN8kL3UsXuFVRB+Q50rwNzS4YCxoKleqn1kRhA43RHugPwMK5yOmh9WficpEevnwkDr6g+fzB0XOywCV/3ZFbOW5GpQDa6bAUdJnJK66+cJcar6/QcIwCEieXiuwLV4G3Np/Osjxvsd22B+gs2aHFCubXoidMFszcitMdTm975SlhntQjbCGTNVmP/H4qSp6XPcS1Eg9jDURbpux8ZlghCwMeWKowsvdk+iT5bd4zbsHTwl3sOJQYpSpIQWINxoh6R5/u4GENsl9v8Btwf/3Zh5m4p4einCCP5uaxEYCMdX8DGkkBxOAwMyZP4Jff/+L5dG+fY4LbJSQqv3v8dh4Mg5+mGgo8SPMSVcnbTAozcOPASX9VaJ1DHr7Y2G3naeKtXIvZwsp+XuN5zzaQZTrvolY5X5BOeoQmOj8ACk/ssc54rGXwhmphwPOFiktaDO2YGwVjfQaoogaR3oVI/7BYKpS8OhnhcKXprFkkUDueVi3kMuL88M9owo00xEgCAGP9pqQmzzEs/eI7L4DVWg6o2jLDxKmm1+Kig6fE3n0NwAr+qoU5MqQKJyJgMnkUlcOOZqoOA7yiqiGX/gKvBiUdunz0O+2rGreuFyvLJbwKfSvEswOTvML73uEDfvgCuq5ZKFXct/ZDFxIXxPIkflO2vHKJB7SHZds6tysOsLORG0CbeTU7l2pVRligXf9teq9MtCO9t5OAGQRDamrXc1W+HQmwfl3aSZ32rIalUAj9QqetSoRbxbdjTGd7clEK9gL3zNBeB7P6R301D+YT5lzGANzEYgQ1UlWInGXhYm1eIGmvaPWvH/0WlIi7KrPJtPmuXj7DZhiam3/QH7I6g9wJCrm/k137jthg3LI15K+xthBgcaBOhGuX2jr8cs7wqc8CULOWc1JATO3PzrONqMykygI4ZKPtA2cneJxVyeJmfqjuNvmUJ1iQaQxauxILt1waHkSwTM8yt+uj2ZcUYFVWpoZ6Rok8bJFsaoTmq5uQM5DX7DJ5F2P6++5A+Ltc/xKQM5LL3oj0552Ha4A8iw6ui8aJ9r2/8AZyyTXYIVmWdzSuuO8LNBDEPSyO2ZiAQ+RPrXFzAGzqVnFbNK8aVmnCRSOqXp0B9MHYhmhAKrBhbRUaPDGXcXbOUEh+rPRqdqUZViUrbLJGC5re4ErQRQa7cNRHxKWVKKQC2fDNSi0z4/ssFkE3JZiJwpMaj6cJCIihcKCZh2BWO1Obsac7u+QVieUmXR4MPad024vvdsh/85JK3GaJwX2nUht4oOEL9L4+P5C+ivD94bfv24ZE+hAa4IEQpdwcqCHDcimiRcHr90K4xx6yKqge1UFZIDn+sj/AqbtjCUmrAb3eExh6m+j24yN0Jw8366f2JuEgqGSb5JNaa2wEXtnmuC+sHgH0+iloFIs1pUD5oIbEbDuaGpEfeTzbKPD2eOWopobnY3s7K89KtYrNOaNN4A/uBh/34Qss9p7M9lJka/S6oAVUfAt5Bt2Lf3rOErGRo24avrFTB/ZGLT1dtjqGdf4z/b72ca705u8r1KtytwqCdihfJmoBIv1uoGfZPfdy6LuMSrjvuqnqGEdXz9NjTD5RK9WPvPsZl8qHL6PJafJpdti4rs2hUS2XFvnYVGMsr37UbGW4DDBxKVAJsXP2mLnxgjStkAj7UPBNwxoVcr8vBWBHcwHuppAWsmvuNTYGdyIq5xx4KOktNCIkHtBfC6j/vylGbt0fJgDkxWNZjTQ+blGec4aKSUOC1KR40oy3Yz4n0DGPLdLO6TeDS4daPT/YvHZ6Kp8FpZoqaB0b3n21z6RC7AspEoeTl5esnxzKmEAxJqcP6Hy/IwRnA3QUerQF6DgHyg25SgkPfyf8WJululjocqZ4QJX/gewcp6K96s+urmyoV7+P82jhy6dwRNQFGVkS/t9ihb9/Dk1gJ2GqPbRuUpYQin1z3d7oO0hr7IZ1DSTL6B7VDULOBIv7JoVMp1DeOIovjfUQYzILpezmgUInddN8DBCHKLVEfOxFIY1gbW3XK4nOafZZZVOGkS5gLxX9Z+cNyEzn1JvHlkJMGjdkHAKfjtCB5I3AcyEVuuKwsPfWT6m8QHz0ho3s4s1aE1O8s15p4yuopbOHLegyUbOltkM08JQN6CHM/0XRhga6pxJCJ+1/xQMJQBWfnZCwI2yl7ClBA8SxJoz3w+NDvO+uspG2/Tz9Ff8bn9Tg67oSlySlqYkt8Tb9TF4OVDwil7yZiwYvrVpe+9crfOUVhOt9WPAZ3NIMg14BaASiv98MUkK73VEmUaopTMOvhq3KB4460TZSaO+ncrEstaMT62iDnKZYBgV0tHsVDAa66Pdue0fu33WMjhwkvLpKoJzP4M8DSd5hSNi5XgX6sX24LIQUTl0R/ua58/hZfVKpOt4qCHVAz7GFgvggMofHg3vkY3VCzTUt3S0FK4kD/WOseELiydm+Ho4e1BGYl9FypJaMKW1fJhetHrvHhzaJGnzFtZtxvMkCVTPvd1doAR2hdWa5G9EXRsMVfSWxs73pXKVURMruC6HSPKufpR4ie32vXybGzqMV/a6dlvbBLlJYA0j1qeyABVgl8T5m1Wtk1l8D76Y8b9HiehoBLEGVKyC5dw001uqsNqBW8sRmxNNN3qjmJTqFrBZSu0OaxNuHAKc626RU0kyr+3XZqxhFSp9eezUN7GrFXEP5BqFLTNwjvLM+EuIuZJEs5YPMF9NpGh1VmlP96OqKqquDuQF/1nO7na1ihZlu3hEreDizzD9ex3OEVliNOvXDrahRBtYAVOMWH57XpqkP9qDAZCTZroOvUEbJpRiu2BSivqnh2YYGj9OnjxE7ot68k27QmMdTZtppfSf0VvDx/AOJWPXar5NnqV89SsXHVeQzwi0efI+izPS+qtm5Hqvafpxom0lv7X3F4zg6eM4yNcn4+h02PQ6Rc0/ymDX8TstEGH/aLQdPDwPEs8Qw9Ff3h6msglwDBKG1W9nDGE571/zHbzV3drucWJYqq7APF0gu1fysZiiJvPGn83JEPQIxAFymYYRMPPBr++Oqjjh2l6Lzzn0yzLfBFxHdPrKB33fKrIAo6Nc7RPI8akh6h7eVqUgjzSAdya/ibRYEE7S5aGDcz3TOoeCd8pGtZAlFFcH1WvJmORZsqDXJSxhf43czWid5pKKyYZg2QkXiqKjrCZPqZo0X5hixZimbA/fUl8Ir0tc+YVImJUFyVAO5FzBu+Ycjg9PHkf11zapu30zK5OrdPnzwqZCp7jZY6X4ImYFsuhF6iBXLBtEWV2B+CgcIkTvZqEpwx5uAFssPZ0Fv/2tHISucoMqWYyXR8Fg9hbJ0BOqqYvoZcSdJ8PZTlTkxhExLwg4C3J3KUFQkpRQRn91Gh3iROy3c3hLowsjq0bCGbwLyWjonNCLT+aSKIWONFij1GFyjAr1QjjLE3pHUAO7RTYLUQSblBQj86pB/n2XNeY4Vf0rdl/vsOGKr9fP08jC6mKKydgm0JjNP7Ek6d38kP5UIVGPAFfdzcQ7FV7gR/Y15gVNFq4faJd3hysNIeRV8JS5fbO8Iz+ooMjG3BUyShvPa5CNmG4HbRlvBkmK+ZRBwSlEguEh2yYqjj/X0i42sY/WxJilEABmSnWkAaXXO5elCkOvwOG8vCXvFzV/vCwY+gcx+6JMWwacbzsBX0M11vrGnaJiI6R+1dKbhHRYTOQLEYm4t/2mlfxewzRDBcUFD3DdLGO8g40RWT8TKonRobyb7s9t8A/BZfHqn145YdhzkLm9jRMRKnZzS91FQmgSobvMUKECXS9JrevdxU88Pag5QHEa7ye0aA29N2T4hAXg6oEV1GnP5L3L0ETGEMOr1YR7VigKzH100Ftn1HKWdzAuxht9F+8k5xL2AoDeDRSYQD9Vg7cNoE7IgeTuPdLbB1dUYbDAcpR9QZhajbAR/Nts1K63hjLGMz5ScBg76h6FIH6usO9SwTijLirtFHmcru5mB8UKvAL9NHvzQZaS9xAv/IcpxGeZH0KbF1mx+ZgHv0IahcL/R6e2PTWDkq7As74mLAAMPpMq10ttdlyDkP3d+14uWVUJrIGwaU/VUR1fuE7Aq+AYHSUqhjnTraEGiSsY0QD3l2a+Ieh4hP+eGnfiei81i10RgaDcUDWgPbRYEN4j4SYFVHd8yfBrtthxdXWWStI7148QYl1uaL1CMLnrLjy3xHX9SPUhIefqQlGADFt3JegTjdUOzipNLEoAGM7DmvS/0WRWg2volOanENSaUSE5c6CzBSm1FQ2I99T+GYe2NFHqFia4kSyNccGO2KY0NoPdR5udvOE8SYSoSF2wXrXytu9NSX+cIn5crWPbvQUJDHRl11m7Isd/b6EeLtgd8fcyO7kRlhEo2a0T+cGm030XCUu1dsx/FU6u8LlU19jWmZWeiO/M8frxoW/yw5o29zV/YGENNX6xJXlvSYtufwgY0mSouJh+aWY8W2+4641+ZzD0v8XFemLzLVxgSCR/V/LjRCQ0e+ssKIjmmwNXeWLoRYy7SzV4OjRdVJn2JAvAblUTihM9ymz+pBs+SZ1IKqITNVgMX9t/tpUg6mwmftZjU+fn/+bNGgUJG5usVsPUPQwX5njbxsnXMvo3fW3GBkF8cVtUEkHos1KBO8iA0XcAKmgnRWK/qPKSs50uCu+bsPlkwEPW6xDx2+ddgzHO4m7BkCpKS1rUaQbwo2d3dbvvIOKJKH3sqbS7l7mnUHMzdt4fuUmZfZhgIClZ/Yv/qFu5Q8sOL3Bi6eJahQqdOXSVlS7p/b7ngvu+xYTqiIccJt9cSRf+t1iCnlYW18o/5rODh/pGRMabx709WLx6V6mCR5+GfGIzF85NJnXN6pxart3A4er2FGTUKiT+tblmKsYSQ15ELXdbvE8UmQoIsSz109qBhxvdo2dFmga/U+ZCMhlwGtCS9RO6xkuomFRThuZA+SZ253hqtYp0k9U3O0F27XT6/nPj2PdgTsxVcl3IOYMH/3dvXijVFv7wcNpEeCQkdZdv9seEwVnn73oDRTm5YsctWc6Gb3zZC0AMsZpcR7bEuFZkyGXVCJXXb+UgTAoHIyvRHoOvDhLU1ge2aWkyWHKvMe0eJF3E+2Zqn8voPumFn0lMcAjWJV7axX4zvnscjh6NY5ggE0jiOYxNFYKYfQsWqFn7Qh3NWvzWS5/Y4rDFWIHVWewbH5OMAPBYE41NPPk8+JXm9NgVOSpk6P6slXISd3KA/KcffTrFVmYXk7X6KHMtzmr6Q/5j/3ZojOxTgY2hlhARCTCNkETzTPLtfeR8NRbgpGQXgDgHcgaDY8kpc9w6bYHcF+Wj24zMKFfUdfjStpIhPM/mHkLFloLFAbGH2oNE/oYLkLu++adjkDV3nB6KbTZtPfvY6T/hj1jMcqMJX/1tbXa6FyLkZXILtuKeHvAxHsNngSuY6mmmh6KnFkLNdOIT/4FdA45yCmLJ+BsUsS2QIHyjWNMl18/ea+XEHODtqetvrAGXfQ9L39fuRGrjRnbauVXw4NdLxGasAVS2IEOFc40YZohL+Okrzj5K80Fg+Y/nVdkFq/0LW665+xRMwKhFwdv48K3C/nZpl4bkXRRNQpeMmifN+Vl6WhCkZcHetPHxCOkFSZIS9CpUv9aDLGeHymZlQJQV37TCcYISNawue5hVOykN9cMNu3JIMihkwHCJxywuswDGA8xmYDjC37QbQFDgF6CNJJ+CxDtSYEYkZxQ5F0LLl7IzEHAZnW4+P7Ca9EGbjkVAWnMtorqlApt2JobnO9aoO+NyFfRLdX+eNpmI4/uXrKKnS71bCDZHPn8zDn0aco599/twI2rV2MPPTtmm9SiDdasanEBnSwUqt7mqW5QZHcIkKfYhhJCAisCd7sSdP/iOfzX3MbbAg5XHSSeGlsi54q0Zkt1mBlMJsz1hbyrTmQ0TZ1CY3+odU9QmFLeY5MeghxbW9oeJI8EAiI+fBJWmREk7fLlsqIIqnxe3oY/mSvxtBzYywSndSF2WbMi1TOoFoMs8XeLac8XNabDKqUX2XHrCKQor/Pdyu0mg3d60eUFsCP/lUDpCDagD/zXOzQNo1UmmksbADQzEzGClXs7DhhzEjx2yGi7XEeOS5IsdBrqQYqm5YHt7fC48klShbyJAUn09CHGJL5VE+IG/69hXDg7sQXH2zCnoZUJoVtRd0jCVYQ0SE5E/h0sJLRv+fqH4kr8pjhgcyRSY+eH35GwAMvXpyu4d9MTPiUQhAPk7zVgeNHdgOMMfABw9To95UppPJCAFbuye+jiY0Sh365uptOeS8HvTP7GSfYPPvhdOE94kjQibfL/i6bFNY+5slTtDehJQUyIz3RUwToeSpumtXJWFBXBFhyouWNq2tDmjVh994uelOa2w8Att4vJXxqQkl/sJEX5+cDpiEXXnlk6yt9xxDvnJ70+fh4zbm0/5oXzpLJDBwYo1eYZZc+lgT2kEWSDw/J2cFC6aRwbhNZj4HavEnAMM/YRpWVs182eASU8oxxxJW9bL57zl6XEEPPQjAEj3q208V+f/1vOkuktUQ70OhOcGdxsgYGBA4LByW3BFpQPHRItaP5T/9NcYcOjzsZ/3aJh0mKp9JSlHKpC7Pf7c/EnwDDxNtC2kI8Z8H4kPbTmc79lv9ModcNgAv1glXG+qcSs6TO9rpSu2tQFz887jzZLt3pnk8YA/3PlE/L+GCUJY5TJLOCibrvUBuvjqcDA5Qni/iv8xyqGGGrwE8rzh064ycdUYfwXCDFCw3J4aa6piMHvHCsC+cPjcAl/+cAiNTRlFJDDhBHULHWAznvgkJaLuVKZpsgmNetIki2CXAXe48EF5O9I07XZPbAsG37CyxFaXtRw9QbFXaHODznQdIxyvKBbj6Ha0/XQHaprkSJ3ecxYZBCCLSybOE6tas6HKR4PML99hox6jxhfY/gkhAEkza2k/sET0TuOrETkqGPiMbR65jPckNjAxRr7OJwhplO5dhxY8mM6Ckqr2teui/7iioHB0h+lQ4I0Tyb0uLzZwx+eLP0q8wn4BpLrTWeQJi+cbf/8NY8wdbHc5jYMcX34TRdj3FnrLqjdE5TyhYNeDggHLlBkt/AwXyhIcpGNdMSVt0WW/3Sa0YyuaTEpJ/GEdjNxaXJylvRLESov3OzQ6bQ2UG0SXvdZzvZfptg7a65wXlnQ97wwALRZU7vPAE2p8BFo/KAFoERtgvMBJK5m2yhnIvmaucHVLZ9XM2i4oHdmCiWr1qJKQiW8e2SLMwk+1VrKE4jbACk31R5ADYiWzzu3o+O4Za4M4RudyvWYLhN4/DkNUS8Fiwir1VDlHdY0ioMuMxh2THLNYn3sgftd3Hdl3eA2FFVZOcQMKuIipea/uQpeIo/ZFnhRuoxVAFi2VVRv16nGD1MMuiM984Kd/H91EyXgBs8oCOXecvtY1LZw50EPFDWp8Pd3Ec5ohfRVbMrnTAXdHO1/h+1wjd8nA3mwNq6/CprFItWUvnCBcrDgtyvbTi4zoRrg8PhocQ4psgeoPYk5gRIEIqCBTZW11uc4nRSg8XdQ1UT71VoYznDyCmdGQ5p+7mKAP7etWUEYztNaaHhUeEB7liEIvActF4fBRxkbtQvnaBRZRu7w7GbFXxH+Kxltile49PaDShbB35TgIkT9jPr/4ABlRGUfYcfEyjNBalFXbuaTuJffnq+N0BGSl7bJhTF65GIkQbI0dyPViTLbiz1nI11xGghBynPfB95fzat1Jqm6UubPg1AL3iwJdRfZYp9X0/pgjA572nGUgYpUd27HC9otf/xfVYA0KZPo5iIdEJOfzAHjLdinP11n4F51UT1v6MKkuy4q6KDblAGb71sW9nW3b+yoQcKNzDEOVM8zF8Brv1WndZjIwdD3QdSd+8zlmBShdC8erlYFEBc0yP0enrPKhKs0aj82x3vSv8YYfwcHDxVPOyfJshsKQ7NVMHpWdXO/UdiM76N8aNYAmXnW5X6Pg3sETn9C27rYOnomjZYh41R5C2mjW0Y32is1pouhpYygHn3jFyXLd0Mp4KxbIyTi3dK3kHBWoQs/aD9XnWUxgZUGeYBR4zE/a4QAV46YAGFy6CtMtYHJIvcFcmYbjSGPMX6Jc3/Xna/tTlyih8Mpa2L+aaNDfzZp5LcbMBqaWTxJNi47hl8iyMnHMYG+S9kBn2VInbJxG53nNeOYe4FRqUoTSYxgMR8hNMqdlEIzNaTq1QSqYoSM9pcbqQ55aNm6cn+ZUNECi27RQjGhe/sWE/tut9uWbJ8qDQGGkNgES0f5CJgcjo4TthnxI0x56wOZCyAWjFOQRL8mMDI4OLpIC67p1wKeiNLCQfaJ+FHKpID8YAfiScYn/xslMWcV0jguU6ct0ezsT0uQgbHa5yNzfqo3zv57vh9DnyHd8TPfb9ZT0n1Xp1KPBJPJi1Jq+hnV/FvHPXtITDG3PmNcDp31sQG00pKqVBTuo4faWYvPHyogJp9nLVRmABL4YbYiTtAIuB0kranUmcWfeQFemfOXWlLyZKcBy9TTAwoP88B3eicx6Fdj5lmmgc3pgXXDJw8RGbZJCPSAOXy8vtxtRtaX4Aa/RL8I81HpF5bkzOrRBmACBBT7iCS+Ts5zYsEh0VpUuv4kR3CC7MPr+6dnVf9iyl9ap3va3ukF21Gch3CSfEGBiOFsqkJUhKmxry2EkhkwIZatmAHGRR45sUa26kodsMfdPiALHZG8iofoXX6kZg9+Oz68w5i38YzYcTMi8uK6DmyCeG0zHKXYMFMlGE3xBPTS/o0Rr3JMi5JkOlW9hDLVhZb2wq3Wa6w4m5qsis6t0o4Vx2KUYcF4trLnd+wEFysilFC93b9FArhAO117u4yBHHnzbjfDQA3+xGcb1HWPUgfgmQkkfaNuacERAVNWj93wzeCh2osJWSk41pJMdG9Gzwal6CRG0CPWBeQAKecV72YzAsM4U1A1aUpjDtiTCyUNYNVY7k8avfZauI4Uv3R87dWFp+nZFsoDGG6omB7oPgfzjvoth8sN/sB6+uLhkDy5Nd+mATn7gDCfNqxpFrBrUWwh/tjzSbmUjo+chFQzfUNNHPxMShWg63ho8t6I6RCsxnHntLeDwOgb4YZSXUfkH1bRvo7pILewyvx9nn3aciecbQW2RSGOC5/9LjDanLk4rnVZZMyRpxUvZRqedz0XvfQ598j+GG4mdXZ2yVeCizLbBLJKIb5lx0AzvSXz3NKqgJb5G6LrFQp85xDzr+mHdHzJYe2AkWtOCt8dd2xEMjMILskY5+6huGG0SVJFMRUmvrfIqBB0+6iNocyFdDacE8MxPJOvdxp7kmrI+CkTcVWR3v0cb2gl++rFQh/5NmAZu1efe9fUoLwGHrAVUEoMw1XGXsr+2OU0uknQWh2dZt1pj2miYmqv3okXqZuMNdY9xefg6gUHoEjH2phL671thK/YryJrNaoTB4jjSea7BGnJKfhxpMy7xV2codj1ARsmx4qKtgy7Sp+UqGfxqelG3WgUNk98XTql6UMW3hyGlkB4Nu2Owfd7o+HaypRiexuNKYHOAqP86PiTY654huVFY4dz/u8cukgwjBZmRwHLQVIkkqGDe0SR54zEwd3vMn8khU9T4YssXGnFKNLfonmyUeoxdFCjZojsrJQxHVJJyJitRVk0rN9Qj5ZGP8j1JvOJ+ksso97UDrIQfddZS/frgCUu+mTrmexCovhl0ox6ntMMR+l2W9l7Z1mWYVqVeZNswaEYgBklJCnGQfCQD52+xAbaJwSBHjrlWmDKllCGE4JJmiKQFN7t4xqO45XCXRRAut6VPDYtZMEc+30qFRta5gRy8Kr3CQ7CK4AuPSfFmoKz2rYj3l+0bBgIcNjRsZeYKaq/DTWsOHDXlgSkTuMM8P3tgNrRCXqOeXeBEJb7F+cuObKp/ag4DmYO8HI9gPh7uFRgnO60lU5ecgoaaBw67/Uvpq2jwrrJD2V8oC62UqYPt1eh+r6+qsbJR2auFyhJIABzw0T2suYH9fvEyUm5vSYgV5LUQUI3Ej6Xx1q89nuawd1ddzH5vTVm+4iCRwjbLM9XF2wzgu8UcYeZYQgRzfZhOsdSl+yLlek9TAwsCCuZwq/2KADTSGrXDS4+G0YO3GsiIi4qUbKsT5ac6TexjNf+ue0lUMdg8sEFXr1nhI6PYhqrpllB0RpTnTdpnlXGP0owcIuj0IrKZL7wFySPzWUR5hFcktZiA3g3YEtjcIX6+ahUrFMVyjuYUe1HoYmVklRvGPZhTtlvyPFuU/F5wwRLtAPGCuJbyQxNb6GuldUahVOF93jUUdMZvSSJwvcpGFyXVBlbRQXSwqbE5srPLllzWvWCubh43Z5quNjIFykllGFm37Ah7r88QaZZmpHvrCP1t/6FXSXTqTyIgkduXZH6t8/lgjpdi9XvAqwsNcfdMC+iY4LkzhierwMOjtaeI0aOZRC53NS5WzqIxqodrnx/Fk3QQ7UjNDW4Pw0i7K9AA6pkpdSF2SxTHvFNBlRofN3PApUtm/76agI/fuDhwM7iB8v5/iz7HXl7c9HN+TS2Gc7Z2x0gDu2kL2GPw3QVXZYFK07Ax9lfj5jR9IF4qvR7vNV/s7r1DXAbGeKkIZw3fxvRQx1f9P6MtuVZg9gfFts7VlEXgdElZhx/pJnXeSnsFen79YsGPF51VZFHUgmY5FjJWpNZiVl5yefck8jj0XooQg59unCXdSYPErQ5+tGLHI9dXeIrnIzCaJXhWP4H51h4b7xQjTePRiSMNdWV6KgfaBlKSR4jVqUaPJAkWPijNGTxGxqst2dRtTb5BXtDbEEkkCFIIFlnbP2YIb4k4coqsc+V+sJb1/A4nBNgKuRymQ23SKqgNG3B3iCSJjo2ub2QJxHuTervuFqljdi8NxTJBczVqF75yYpR8DOLfeP5bYhr/ZyHVzcWoweLBb8UW5Yy1VoGm4qyKdOGMbWVTZKj2IjpWb9pOiJEGiA1Xd8G581Ukcrkx7Uc7baLc+Mp+Hf2h1La0neagJyuxydfbWcIK+zFZb9zcgKiqt/+/corS2hFz6w5M2aR2J9VS5z1ELflTQ7e6C2TqCp0HHBCbP2v+UrDG6Ve3qgoSP87TA5/5/eVeLFuRT4d4dcwjzpQHb1UJCwB5CKi7FwPAsEsgBRX6V86kIpR86jjG6aKe+eGy7UbQIWGcYeQNpSUqlGhHRwumdTsKl5ceq2/TnoS20rOZ8oX9YzruPtgZGsqIO4BicrYs4LodiWqENUbwftDKRZUE4G+oyoYSXKY15jGH/f3RivCErsl2j48jmtqneIAaWmXkKCykCuxbNa5Fp/t0QAOsKZnyP6V79jxW1AeCjE8tIX/rzW+7GDwL5vRcOPC2FovaQj+MYBqLrTGF5JMZmzMUUshygRjxxNMB/S9AM5xnZ/DZwoG2A4U16JzV44cLpempZ6iMSvNVJ3Plw2Ujj5qi5hpJjHpGABO5aTd2vtmR9aUlI6AQ5SV16+yE8RDbQmexrHDBkHcMmSYXfpC0UVpKeCnBLToFllm8+6lD7Ere4+JiYCbDS4/QjvEaubSJNhq7mgiV4JytxqsxS8KBqoNDHO8EByE5l1aKbjy2pGWTvIas9AbR7S+PLIWBYq6tTejBF31IFW+rg5uyuMPwOt8V2sSy7NO18JI65D5QI4ADvTRoTM70Mdup47doHfY499kVhTUWpusUeaMA1l1+Eg6s+kncc5E7V6tXP6ppWMImu7PznTQArqIWo75W43CQzVuce2g8hWeQv28GYKlnIhWMOpkovrpTVkAOj+p/G/b4UbptUtCd2Ca1TcjCjRq1LexOyvZZwG7SQdq8GiY9lKBrEij1hkwqZ6AvdAGTZZvxGpZL5nvgoX80NULBfl2CgsTvyl4t7qU1wgddD6kXqIJ1uYkv0VkFTr0CbiLlKmiNkyKiLj+nAZuY3bMTAOOTRvXF5hDnLrc5UruqFj40vFMzNhn2rpjce/BdxamLhdeRcIERXVTQ4lz10/4/6Skt6oeCgtOKwNpLBy/sLyt7MzuxXJqeYmnrKR4qz1nsEw6iKSXDJ4coFHzUoHX/vBG5yDsHLyZHhucpW5QcWyiKmyZ8gL0Qqny9cyhLWvolyjxyCiB4P/l38pm6j9sbdIDHUMMm8vIlE41sgHv7gtLgAQHcG5jmdDQV3Z3fnEJnSyY0f9I8UDSm+lOQN+spGnZaHnOXc85vaavAI85TZe/Glk4FRyLCjBYAoXdzoiCQKYwcrSkJgMhCjdJApcWwabJwRJ+e1puMZCjz5ZR0BXCCbQdNKft6878xfWI/xTbGlFaHUnzscMUfhcfMSXp2AHJEC6ZToHIyL1yvHxAN8ss0YyUaBTr14GqzSt8zie+mbyo7Zx735BlIWBdVH1OaLiu7KP2W287joVfN8uj4ZXLC/d84WLXhogfWVKC9DLPPqYfK4fzSkOUv3Qvq2oTPyFwTUm5MD9agf9HAE7dJr98lshBoatkNDdQNaSsTeN6R23gGT1xW6aPTYdbuX0rInC4JQs7SeKNBpMlKj9TC1KrvxKmKy4Ky60/0H/2pOuJIHub3WMxkdqGvOwJN1cuV7cuH86Cwi6YKsgfuHRYDHDky0jEBji7uRO73and1xQ8bQejG1disj8HZDDn/TnBiWIlPbRXXG2yo2o6c5g0JS+Llx8rAEMYzDZwulKGbxr8N0Ts+mrrGpoJehfY2RLMK61RXnQlJCX9oPzk1QxB3c9SAFFrlUYwBC3iIqrbPXPwz8MCYnfNGth09CwoShiOOPdgups4CFNE18uhZjwY0aj/hLs2ILeVrQkxoXGeMcHHaCatfX7CXuZm0XReH2FXbwxrdXezfD3kwNF4hWOzII8/m22ulDlEivBvgnxULauUScT8YttoTRS4bNuE9/qM+hPye8aSmzFVWFSCbBDfBu8w81ei0g0veWEJwUvjvY6ZB0hcFtMfsarOA2WAveGJFUUY4voeo/8rnnszlS1UicZO0JjvTknpV/bZvZj7y9glLs7HRAXHmVlTj+oLuWYg/ZrLaggV/JkWUjnSqEyQBT66a+X2vANPf7FKxCujlN0YDyTNP9AfnT6kCC0MnMAWxdw0prPceaRkBWYfutjlhG73snedBuCPg3qNY1DqEBq66TjgHpRHAc5DBLZWW1irA/QVrl3wIABss0kSuevTik0OeJcpzK4dbB+n84Nw9lfeBnN2vTIKZePxM1IJJlFGpSzG1umKYDalYkp+eTmly6BI8WfQZbErTrw8O+gWzeMJpmls4KDO4SWfzbV22FM3JX+S9hUHfzv8jBJQbKYJ5Qkr2lnV0sX1T3ydnCAGd36oIlkzov0rcf7qczfmrYjmadMSQCW8HKGjcqjoTbaPvLM3yf6VU4nQ5FxsQIaQqXsJDGRr4rWEVUWGtB1Lnu9WB4JQhqbuhbzHdvJw0/yyP9ujvnyghTM+Wr6oIJ6xkstZvPFdFcjXX5WTIAUVynUcGaHgbo4dLnqUlliIlx2RT6mQQMjQg3grKQMLMfSF4QKY7qMbo3gfbBsGs+Dnl35wSfd1bl1DaDE6P0W61QaYB/0t8rfGCYC9HvApk9oHfkZpZtLoKfYFA7eoTTc9weQ4dQvtTJcl1MCsWs3KQeNo40ka0vYHjgIhhrWGGI3xUwVoY5QI4Kqb16LkxVBTCLAIDQhLoWFeVNtQXuveuN+1rACvDm1nbcF+O4255W2o83t1LAnfQlY9sEwzBwrc2bb0MCYkvzD/VeCUiOm69P2kS1Jy8tWVvqSGxog8ob/3TKPBhnOekbqh1VwUiojcluHCrfcTZdnu4YhtfI/I4C3fC1zWSsKrInApMRjtfhvZXZdVa4ntUSX9eWe/0vmprQWgkaFKxffpq98LLPsnrCEniGo5skh7CQLwi10pkYvkezrDsVd/Xb8EsSAEw5p0AMxMh7sjCbv3Omht0AAHBZfr5RXCW0xq1I9pQAX7ZvK0rAu61gqDGT+BGcEZwehsd/NKcH+OfK4Q2AVk0DVpK7XG7uc6Lh73BecxI99BdfuSxlkFpxw3/qKz4UzxE3ZIKeJAUNihkcpDxyWY/niPgl6QrV+CHzYhdmRcBoPDtHYuQzTzrOGl6ryVQnxaIUJUZJbXajCA99t2pm3TEm1eMJflVIrtUALa6VUVlXf8P/W2z3XS/BfdJOfZyj1Dh5sjeCFrvMS/YV4bKFX5uzWn90qisifqjStENNGhYVeq/dngAUmD2QrwpMFdcfkjBZJp73aLpUO1WbdMjqiWEWvOm5K1YdVrTNjBdHmaiVvrBEEBoasjIiFxnkkfvlXw5oYLFF3cmVjw2VUf7ccWWCyxFIZG3O2jM7YMzPjEaNjNX+Nv8RrrY+yVUgv5fV40cAjZofbSWqLGfAqp7XQ6UAu5cq+67dqvpgCfVkfFnE0YyTV5dKrdN0DtVeH7NdQjMWi44y1Tt/lr68XgUVyR26mfQlZYfTQfRslUMRGreYG2ZRTJkyaCrUZHh6KgyQ9bEXsHl9qFy/8ArseVLKsyTOftYWQbFNwDqVRVp8KNKMFL+/xzwQj38U3hgCKRF2VNNYfQy8w8G3iRRE0u8bSp3slYd0RRYhWlMwmfgOMklYSfPx1SiIeVB4pmEgGfzhThPv0v6oQoSwXnquPwc5sP7IA3jaD4DczW3emIgnDPs+OrsWpLXFOeeopcjZwxpRhSCdZEzZy717OP523qCqTmFb2lPJ+v5tvgAZwfy5+W4Oo1Q/ytOp0Aey9t5451Os3Wx7kUCTMEZnehvj6UcuzjbBlhsBIPbmCapRpli2xFPmHaHLK64IZxP2Gq0ortqsi7OcEK8/ok0BSTxPENfAH8ImwKz+tDhaQrBBPysTnVYW9IMvjEzkztQG4ctYQhDuaaaStYC+7JKWIYqdL3MUw7ys0pkhKkK0P8Qp4jsKhe2ds12X3M09AyTSxCliauaoaT5YGNXAaGCtErhXTY2Ml+gmOVPgdgQ4uYb0EJnUoMBBmyNk4+LWXlfxSaE/ybzJz93WEmLuEODYDnK4xewaQtEaHU2ifFSDGdJsujqhJZ3pdqLok/Xv32BSNVb9wOkfaHmuAdCKbmtFmqbZajDrEB/ikxkrgrq/fPwhQHLhPDLeII0JyeHAwAxJ5s7IJNWKLMQ30kiuahxCAQ8UhqJqblUE6+Tok8MfkaljWT+INOU+IYvR16CyI5QZqxv8agLPPnwdPyOIzyTeaq1eg/Y5kyHoY2bTQhEqxMiYiwH60xOB+8Ci10aEFFAIiYINQHr64/tLNoLYN1oMUD40qD2UPKV4GG0Mdw8C0nKufHi6f48ywmZdMzMS4tEKHa4R8dvma87RYNHP9817C/k1AqUdMZHxIjY+lucJPnLoBE6vS9/C8PyGGYOs98RPJuxT4fgKZ9s/Th4TOj1UFerc7VGtBX3BjtoqwG/1BaM6acWRF8iJmGHwAKhCuxB8Ocd1bu1IykJMzr2VGjV3E4WbC3vs40hdUeNDA3jpyIlG9fPdspwJKneXj3w7VQPf5VxpvA1BdeuAdBPj75FZLKXiQCvcWGQT+PhvMA2PQ4ck0cuIzACYJstdH1UeaH4+PZY+6iKYRZoAtMYFvUqgRFjxzjL8PUbhEVFr6khMEdTJGyDfp9Iw7UHelTEd5fSAZ4lQohO5kqdUPbsBgUpt6EVSI2rWWU5ABYQI/Ekn4SOgpjjC1o9N4OY/RScGPfhJA2FXcUxPXnCum5DfSV6VBf2/IY/LtHUp7To1NZhcl9Grw+32oohaGu3DH8CnOxgumNjyh1hDx6tWsy2oI3XdVU1hA1FxFie09JXZ0wkTDO58jWhjfa/vskJRtKq4hJVnSGnnmlgnS2ApU+H4gEB+cLF0vK/nklmZNcuylLEzyVHCvm7JO1jS9ChHRyVr4/ckY3oWM0L8ezkGc20W5pHX9lSCvxOfM4cuzejF3AehEciw89PP/AK2zd+oGE8JxAm8bAHM+5wj47VfrCljU3KKTymXNm8Xze24x2VwjrjUhB3RaSOA2qnOX8FC5tY6ju1f7n2rZd6w/Gbqy41jNR7hHrr94Pb+V0fGjTUrHYhOl6DwioDuoYLFN3896rmBCb0yEZofoo3adQkv5zzXAiWanZVv+7zPP+I8eLoMCBN1W3jZt7+gQuLezTHYWj0VvNl9B4NKmqg1nSdNXqcQhxSRaWaqYm5eeXr1AsFqCdQTITVYjImgHPme3t/SNV78fGPoJVwLIdPFGGWXX4RDLAiWr8Waq+lQYW4B5mFRuHt1wmdPBQRq2I3iffZbSyEGoNl/uVzOuVMjC9v3yVAPusIkE+CkWtF8LD8VUfZ1zR8guIzonwG0rRJgrRpx3zHcKKOas2vXpEIFBcYm3Lt++P+fYRZoXKQl8tiWSV04ekw+WCg9K0qWMoSQNpzu2k1FsYWCFbZ7YQXHr+cdToIuSp0PcJtr1jsMaPOG1PgNrc4e8aOzruPEwBYz7AiPCLBwFXqlA0k6YBRrlC1htGBjraqE3uD2Ek8dhWolNDci1CWEn7sGwzweURjSwBGtsG9iXwgBMSxlM+lOXoqaUAjsoehV5DYCk5zn+HzGAx6Iy2cY6SrecdMl9ePQ8csFlfrecClcuzbcHQe1mVqHD5dgU8bPs++SPyUwz7KfQWjxqcVVUzOXQc3FW+1cb0lNToPMOQL6i3BtZFTTWmH1vfAhS4IKnfKAy9H1+3xXPu+yF5rs0TW6fbaCGKre5yWm7U2PRalhJfvP3kPamtHh9/RIUMSDyhHUoEXxkMiYsJC45ZoYWuOwUzbo+ZlguDfIwQpunbBVvssuz2ejMFA1GQS7Z1xjpXk/ezP9bf5t4qhGaZhq1RfZkFui0BNV4qeD8nUe5UWbiK/USOS6TGB/JblyZK+eiD0CVkjlYDIe22GmVISBk1Xp/RfbBdu0OBS8LcPNCcMR1AQKYsB4M4EDdHhbIcA2FEAQJ79Qg22Q7hDBcZmpIQcR63BechO94NzNtWIlt3JDJNTNOBSuRp9WLNLWksKpwWL9lwfHquhkkWN1609cgB6FSnKfBkb5oVKrVFxfE1MAFWoWhuqunIoxE4ner6kbHMMPz5QmFiuA6yOZ6Tux+UdnTCos/FSOGcbwKo54nZP+NJ0QjvXj8abafcyawgxYn/CTAM/o2M/2Wx74jq3V+YHvzudy5lTqLsqHwL4L20/0FtLfVaGUXRU2sAoI077jGjdV2aWSMei8smqFxwRIdG9L4xQTStEtU3boi8TvyYWkkCKg4/Aw5OMHfPyESULm19jUTguDYPrCOAFgs60EmuiOYEmi8K1kjt1ygQxNoq9U7cjgrRt21YCD65e2X8zcEGPdFRaI0FJryqlzYTEA4HD468x5AQwAbNtfn6VmJIw4jhPj8evvRrrg/NbIjELjIJO2J8lfm0+vSdm3HFeF+UhLNGfZZrALliqAjSwcvgLpim016iwLFGJCK3VOs5+Wu7jqyRP/Ro4M1fieP+LjmNMO1vSoF9YqXFgoR2bPwbdAO6Plv6Q4CPW4rAhRL7249FXpujJwZR/Y3ZrTun/5D46cE3ygg/XTfJO32XMqgP6WNbBHJFWOLbLq2oDaYTMz2lWmkptPOQ/ilfBJwbDNyx8OndEkBqzI53tHoHLWDVgun98Fmy6aP6xfZThvsKVZz/24mIKImVcAWhxD7CT7GRzwDiTGXd8RuIDghG2CuEvsdNkwCcLWFwsZxJtaox/d16Cl8fi/CADEkG2tkN/KbaLTEojPEOOHxOCMwGpFlld7B/AlRdOhgGhdFEdksNEU39v36Gf5eCo6/GMyvmL7SFKczyNBjj4QpRMeCJUGNghvkCdZh3D6LDytH9YO7MiQlJb8kZffLvZyX1puPpKagIE3SlEG1LShZTS29ZPBpjwbt0O34Sj/ZVmme3K4KNseCZqpzveWCvuxwkfIxdStfDnBnH5w3DG6UWARmkALE/GNEk2xu6COEbNZmwhJgOTdE6cc39TWLFhNIlejDqEUumcxiXjdR29em9oM8b00oX7Tagp8k1DUaJmzI9IS5RVEyknNlp7Hyym8/3AWIHZOqlOGI53VTt/Z3ZmVYo3h+EN7be20Ls4H+OHce9M8GicJ42opUfhf0HBS15r/7yaS+qoXATN9KaCMl4CSdXPMbbIsgGlsH+pQFFndRbq/1cAE2AlMFU20FdV2dGjgVfWY8mGYVwaiqpRvyljtip4Ga7GbM170MJTbGSXEANByp/vL1WW0enDNYb2EZmLIW5Ckh3+XvR19DctReThDhItJiSfZAuSvBIJrnfdmAsDOja3j5+b8t1cnuctPAqAOw5vYw5JpGchW2ByCjRY2w8zZ+n3dFG01P5fdn418i2ikfOQbflRK1ozrHN4meocdKoOQD0daJQzE5Ve96QRGx7Ak5CdpBIQ/zUG2Kg4XY/xLTfTDPCGo9yHaCZ/N+Ej61bldghT2z3bIVDumBy9LAePAink8WmxzZvvcM9gs2FHt8hRno5MEDPPGB+357098CjrARm+HMjAXqNfD+0yydq8yhB4I+zuwKF9SSqDkZhWPFlT0iQJ9PXtjGDbaK3HiI7ehl0tVS6vnh0OcAz9FjYh2kqMmC0kCB0YoxkoPkcaBCTHrVKlofktpmzhSNCgaZ71AhFGIrHUw7H/VJ9LZCo0OYutvJIN+/Ms1qPjQY8CJcpCT/C/DDq96H8Cso/65qNaSKHpZ4OLLjPLYgzcgMAxoRCU/OtasSky3UGPgugGdEa6EER62VZGAdJf3B/U+IUBygl9vsPzPQmGMg/P4BvMxhLYWmabc9wsyF3tJ8Et90MeO8wUKjQQHXODoP7kj7WEzStnW8OUrorT+HlU3n8qsb3gvQ6bmXQi4zQUtcejOQW5XNrH52HWi9UcnZV3iXy+UvYJmkg781wMthg4G2v5ScI5KOxo2/9ba5mPYfovCKx0mHARRQfenuObiBcb6tankgBmRiA9iIrBPLCEYtIY6NyyXOu+jV4QfFsZvD8R+94Tk7qQ6izrCaVdHXwhJnGivTUPF2HT27OKt+MLjqXltLO3iSj9qqfEHtCyJzssgbKO0G59qVkoshFZx74KPgR+A/8OaK6+aFVERc+G6/mlRW782SuDdza83mhchHKLgzV+I/zfLV+N8S0CSnMKIQsXB1Y9S57XEaaKXeUL0oistvKTRqjq2XvflgGC9MqRmmBY4tRP1bZTJ69157EpmYrEejX18XhG7DR5RoaPoOaRaZfWj/hy6CPE+uvTK61rMT8EtALFCJwI+M7xHgMVhiG8n6Ynr9a8VNIeYpD5buYuS2R8tRLf8xbDM4XX0JhnsG50JGaASKB2LT0IyUVWj3QFPb4Rh8B+GlfgDr21aiYLrpc8obVJYC17KROCu6GNNlzj8EBSIPNM3qanrOv7HB/wYWDnHRcVGLvijCl+t3Wj0o0IzYn06rvyqGsAb4Tewl6YCjCNyKHZD0gqQRe4U+kY11GBq9lfVvfO4BYItQRp9Fg/R/xSSj4odPQP7Bb9FB6lQ4Ki18sZol6FvP6M5AtxsB9A3FX3GdoxcJX5lcK5YyO5CYEPZGwsC7Q8FdFInP4v6KOKz3pViFe9o7ZBMsSjlpwhd0IofYqHK0Qh9rvz4mpntGQpmxnVrfyaEu64VdIbnzL+CjjawviixChjn7ksU+M8+a4L4UM6ajeM6wwIPQs5rnGTh3mYs6oVIIpU9fexoj9XIafkJHZtQqiKbjeiyvB1sgYWWMJ09YTRdqLhsHa+opzldcrMFWcW/LfCFL9gCcyS/Knq6D9FZIV672z+het5BjpIEGyeV9ZT577uKPOs7762Qrjni5FNZdXHUkPx1q/k0wGENPjcnwssRQEe8KLTniu5hzCjBurD0QsU+9FQGzbvwZ3UmOOC0zjEF1GSsj2GmhhLfsB60gNEK0Y7xwy/MZLabnb/ESXYEF7Ldl0q7a+boGaeKWSswFFD9NebISA9to5CRwQ0V0+QfIplIrJizToG4WVvRLcd9zA/BD7DyLfE6F5UPMUYDaxmTWfUYZzJOHUmc40O5niIVCegsBRsgsF5vyUHk97wMMvBxK6Ndb4CgmxKRb3E35yvNqDVz6wn9P+iRfrDkyjtZ76pBqZufJI2/27Mvf0PrY8mEwnfhQGHTEn282NRrffLHIzf2k7Dq+8fIn9Tmw+Q4SQIuC/rVobQy8neo8FRw/zk7r7m7Tl0K4cJgkPUSl/wE2AkSYfzJg9HdDsirxHbH6nLyrMNyxW91mA9lzoZ69aaV14SzDaHyefyONULkxNs+NvSfLDt8wjbw28NbYG1RehK0uq0SN8cdOccRMfX0A1lL2gbxU3XdZh7owSaBOPmMpRl2nbIixU9+nbdQmq5bpu4qNuR+dE7dQS2/YI2ziboWW3HKTnUgXen6Rk/6kwsR3qhGcPs3eYRROD2pfx3+HUy3JlwKfSqQa3oTre4x2Kw34uMnvIaA+q8pyIMJtygHNgdLKU1BeWD2PTuSVt0+J7WFnVGfotOqsNzlr/EIFhsE+RhZd91ehysSdXvAu6budOo5M7pgp5Psk2B+d24I/Vp8jAznwwvaNI9/ANuHRbOYQ2lx5H3TrUKvlQ2yR/qSr5SIPwyfINbZhXD5QU6VtPXUn5knlGPRaXDgzeQ52SXoxbr3D96WkMv0oO4ynBQBp9EjdX8t+80IDlZ/kreYRx1cIisJXrB69rOQoD2SJaLGRQrrasQwLHsU6Yfhpuzz/JQE/oTD/AyE0g3fW1PJkUUXax7o5jjC/Dgfr1HkJKLvCWifFKaNBcoSvbWnx7T61vLpFOhgT10wfy5RkzYjq0dmjnWlGoZL6u3utzEv4y4xws/a8oSXmrZAndKZ+2azamLRj1s3yqsQxM6rXMi/xhFr/5zeWSWaN8FPnaNUxO5R26E+U27qFUW5xDuzW+mYZWiNOERkoM8a8IbUlcfEUfnOZKu+BSW6AJEcJfU66vtOjP/eU0qhEs6AV6wVxEY6YpJEFJEHEpsnAr1WWaP1E2VamJMoj4Aupm/CYUioy8/6N2/Vo13xZmdTOBGyX734yyqdqWFugIF/l3tm9gRixx5RCVvEhu+Vx1fKUO5kOp1fhjm4W6BDmFuCwy5GEKJZp2c7lk4jIu3sRrjH2/geuE0pPR9pqKPZub7xmu2LcZLU2hZMJVczn6Z1wxL9f/3so6f4sBcHzVl3uOyrfQqw034Ow9bNaelFm3zWQi3ZcCNtefRU3wWbzXDYBmgikb9hGTQpssznF/0+nm3XlVcCj1nTltaLAzcHzNoonjDNRZUvWcxM1vLfIOLGOdJxyda3+n0JgpsBbxSC3WYbeWem+ly2eEsLm+qNUHLfiL2+u4/qNLKOXADtc1B0HoXmmgaAM65N722U5nJuSntlHBuHXOkjUWMrTwJUYwbpcE/UKn0SS0BjdSrGXmGMMuXizCg3naDKtjw9AjacONS1jEN2tUb3Cq9aC1Dyol7/bQ9shZ+nyneQCLmAAHvuSNNchw32mSp5bS9Ev38+UzV07IvVc6aWOld0wm2p92eRpnz8THEzEoNB6LIgkv5LP9ZeOBDBHa078tAIrQy/uRrTmmKeDZwJ0VHr99+WAyZhD8k7F1Cj+E7MJOicZvJdr7wOmmazl72SZEmHYzBprKBE5T/wEN2EHlMgh5o7zcXdsLHRRWdt9BLLT+ZPoq9qbbmtA1uu6BgDUadmVJmAt3ropzUl3T2Mn0XMvRYVtuBer4NO6m0TjWGdem/Ga9BuosPHLVFoZOmxMs0bNjLEZhhlyalCsba0+Vdv8J0oaBeH5emAXhuUqXnER9BR2BAATxPqf8yRgfqpGb1qlDdUDiiH1YD2o0jklu8efGBTwVZd8XM4w0PPMFWWBgVYs+fLwp38VV7NOExrSS2QNsr08GaqfEOIjzajUR8DJzZQKb23/lsdhWldei707RyKG3kDmDFzeVLrDZ44FnUueKb1VFbHX7jK/Ukicltfo52E0uk5aD+K8SjNjao0bRpO+D2AsnkNABwCmHD59YAb8/M/mFWXU1Epf2iu99i89F/YfK8OHUUGqYwYQYgVECLLDG4VU1D6CUQklXs/bV8x/AHmCOk98h96COTHrBLb6RAgRd45hyonpPC4qaYjfEcAJjiK8JLaIItP8IzQYnMp2J8+EmM1tI3qKEFSuGTmHWuADryOW+R0W+zmhPTvXkr9iE867yfe+1IO67fEzcnsebU7nzu4jdvWl7gK0BQdHIC/hMByHKMvMJwqwsRh3V4MEY0635w0ceuaMAPWZe88I6hjFV0kWkhVREsfjLqT+rgYGeq6CkPYFBUVJVVc/cBwXfSLpt7+GEnvSHLVd8+KmiDdzSNUHgCH0TDOoopyonwnYaNkq0yiwiqLEQFObF9MOU1F0mW+PYksCiy00teF6+u5FUvDuBN9NZAvUWR2Jy+xNgtpQqdErCSy0ZybaYgMM+oXxNoLg6+j1TU7FfEU5NG9Ph7eT2ay3yhBFpaNjfIFlTwbKJdtyQfS4h7YhPNf8xGGem4Zzi7bO8j6ZZeqZ7zfnrFsUt5EE8HsSI+nRiL5eBPMspxL0067bTd1m6blyVdDryu5w/KTyCGKeZwxvjgBq6ALKaCr2CIJ42NcWQBVpgBVX1wt1aZ+ASi6Ho2oFBUkZPs5AwuseCKyObVjLNapOfWa1CFbGymLadPUFmgVyQqZRtxNiqR1lj7oZyUKki4Q7i+75iDUZmmbX+zWTkfoSP6cXtKgAA=;" parent="1" vertex="1">
          <mxGeometry x="1150" width="900" height="572" as="geometry" />
        </mxCell>
        <mxCell id="6uBSnt6w91KRwEMDHv7_-97" value="" style="group" parent="1" vertex="1" connectable="0">
          <mxGeometry x="700" y="390" width="100" height="50" as="geometry" />
        </mxCell>
        <mxCell id="6uBSnt6w91KRwEMDHv7_-98" value="" style="rounded=0;whiteSpace=wrap;html=1;fillColor=#CC6600;" parent="6uBSnt6w91KRwEMDHv7_-97" vertex="1">
          <mxGeometry x="90" width="10" height="50" as="geometry" />
        </mxCell>
        <mxCell id="6uBSnt6w91KRwEMDHv7_-99" value="" style="rounded=0;whiteSpace=wrap;html=1;fillColor=#CC6600;" parent="6uBSnt6w91KRwEMDHv7_-97" vertex="1">
          <mxGeometry width="100" height="5" as="geometry" />
        </mxCell>
        <mxCell id="6uBSnt6w91KRwEMDHv7_-100" value="" style="rounded=0;whiteSpace=wrap;html=1;fillColor=#CC6600;" parent="6uBSnt6w91KRwEMDHv7_-97" vertex="1">
          <mxGeometry y="15" width="100" height="5" as="geometry" />
        </mxCell>
        <mxCell id="6uBSnt6w91KRwEMDHv7_-101" value="" style="rounded=0;whiteSpace=wrap;html=1;fillColor=#CC6600;" parent="6uBSnt6w91KRwEMDHv7_-97" vertex="1">
          <mxGeometry y="30" width="100" height="5" as="geometry" />
        </mxCell>
        <mxCell id="6uBSnt6w91KRwEMDHv7_-116" value="" style="shape=image;verticalLabelPosition=bottom;labelBackgroundColor=default;verticalAlign=top;aspect=fixed;imageAspect=0;image=data:image/jpeg,/9j/4AAQSkZJRgABAQEASABIAAD/2wBDAAYEBQYFBAYGBQYHBwYIChAKCgkJChQODwwQFxQYGBcUFhYaHSUfGhsjHBYWICwgIyYnKSopGR8tMC0oMCUoKSj/wgALCAKAAoABAREA/8QAGwABAAEFAQAAAAAAAAAAAAAAAAIBAwQFBgf/2gAIAQEAAAAB9OAAAAAAAAAAAAAAAAAAAAAAAAAAAAAAAAAAAAAAAAAAAAAAAAAAAAAAAAAAAAAAAAAAAAAAAAClQAAAAAClQAAAAAFIVmAAAAABSFZgAAAAApblKoAAAAAKW5SqAAAAAEKVlUAAAAAEKVlUAAAAAFtcAAAAAAW1wAAAAAC3VMAAAAAC3VMAAAAAKQrMAAAAACkKzAAAAAAQlUAAAAABCVQAAAAAAAAAAAAAAAAAAAAAAAAAAAAAAAAAAa7l8WtFzpNzWoAAAAAAAAAADkNHtutzhj8tz+Z3F2tQAAAAAAAAADB887TowBqfPeu39yoAAAAjSVQAAV0fLrlY2rnWbOul5H0yYpGVQefy7C/UAAAAjGdQAA5HQ9D1twMbjdLucD0sFITqBxGP2GRUAAAAAABjecdj0oAct1FQAA8z3+/v1AAAAAABgefeoXgAAAAI+QeibO4AAAAAAGP5v6pIAAAAA4zXdhmNDp8dl7rc1qAAAAB5h6dfAAAAAFPHeo1GT0W7zKYGg0Nvs9rKoAAAIpcpk9QAAAAAFPOdr2QBDgtf3+TWoAABGEed5b1gAAAAAKW63AAYHmXf7O4AAAjreJvdVvpAAAAACMazAAW/KO82twAAFPP7vfzAAAAABS3KYAAs+S+j59wAAW/M+63gAAAAAFIUugAA0fD9/myAAR8w9JzJAAAAAApCSQAAHlXW7q/UADzvs9uAAAAAAgmAAAaXgu92UgAajnu9qAAAAAAoqAAAPHe73V8AHmfqEgAAAAAAAAADy3oN/mgBjcV6IAAAAAAAAAAPN87odmAHE9RtAAAAAAAAAABwFOi3AAedelgAAAAAAAAAB55Xod2Ajw2Ft+3AAhKoAAAAACEqgDzHO3+7A1nA+hbUAAt1mAAAAAAt1mAPIt90O4BrOJ9OqAAKVAAAAAAKVAFnxfs+i2YR8w9WqAAAAAAAAAAA8/1m/wChzQ4bqNuAAAAAAAAAAAt+L9RvN3fDzb08AAAAAAAAAAA8vpt9/spi3wnooAAAAAAAAAADi+R3+53eRUanU9kAAAAAAAAAABxHI77abzPkGm1vYgAAAAAAABhZcgBjeY4252O62U6hicZ6IAAAABSoAAB5tzvU9vlg1fDc9vsvYbjY3JAsedepAAAAAW6zAAAeQbW1o8jOvUx8CG8v5Ox2mdchWYWvO+82YAAAApanMAABrvJeqzaY1qNFbl/Mz87IlblKoR1fn3roAAABGEpgAAHleRud1cx7FuNZXsjJvTpGsqgpjcrq/TgAAAFtcYmWAADReZ9PvdzdjGlFZSrVbXACGv5XSeoZwLHmHf7cABbVnheG+y7oAAYnjvS7TfZ0gAt1TAKW9bpOP2HQbeWr57S73T+y3AAW6zU8d22g9S3QADE8h3ufvNrdqAUhWYAKWsDVYOuwqZWVO/b0frkwAt3FPKJ7HI5fr+1ABznmvQ5m53GRUAISqABSGNhYePCs8jLrpOV9XzQAY/k+Vsttn4fL4Hd9OA0vn+Fvsrb7fJkAAAAFIWrcUrtymBpeL6jvZgKcRxW+zNpucuxrNZzmDtdhnywtbq4729m7XZ5EgAAAACgqWsHU6Pn9x0m+zq4Wi5vR7LY5W022ZOljC12DYsY9Ltyt3Jztjm3qgAAAAABSOLrddiavW49L+dsZ38zZbHImUjYxsXHtQrK7kZWVemAAAAAAAUs4uHiY9qCd3JzMzKuVBSkIQolKc61AAAAAjSVQAEYWrVqKd27dlIAI0rIAAAAACMZ1AAClCqoACMZ1AAAAAAAAAAAAAAAAAAAAAAAAAAAAAAAAAAAAAAAAAAAAAAAAAAAAAAAAAAAAAIpAAAAAAIpAAAAAARhW4AAAAABGFbgAAAAAIUrMAAAAACFKzAAAAABGEpgAAAAARhKYAAAAAKRjdAAAAAApGN0AAAAAFISSAAAAABSEkgAAAAAQTAAAAAAQTAAAAAAUVAAAAAAUVAAAAAAAAAAAAAAAAAAAAAAAAAAAAAAAAAAAAAAAAAAAAAAAAAAAAAAAAAAAAAEUgAAAAAEUgAAAAAFuswAAAAAFuswAAAAAFFQAAAAAFFQAAAAAAAAAAAAAAD//xAAvEAAABgADCAICAgIDAAAAAAAAAQIDBAUGEVAQEhMUITAxQCBgFUEWgCQlMjVw/9oACAEBAAEFAv7a56RnpJaQWjF1GRaOXUZFoqvA86MrwPOjJ6kWjp6kWjF1GQItGLqMgRaKRZkWjkWZFo5lpBl/6pJmxYoexNCQCvpjo5+8WOdvSB3Vi0G8Txs41pCk/R7G/ixASLu1EXDMRsMRI8f4ustPFKw7AeH463rBDxC2paVkpOf0GZLZhsm7YX6q2niwO3Pr405DsOfRqrLNmegj949hepLtYUQKxLxFc1fvjl8QrHJX4NnETYOfeRw1iZneiT40vba2LVcxBrX7V5CUoT8D2F87ekPfp7XmwlXunsL0rK+jRDKNcW4h4dgxw2hDafi8w0+mZhqK6DXcU4LEMPlKavcnv/I9hdi/qOYFNZ842hWnSH24zLkqdeOVlPGgF25NFCfk+PSxHBXGer5iZUdJ6ZNltQo8eNIv32W0Mt++pJKS2k6a5aUEnpUh5uOzEZcv5qSJKdBxTC5qvp5fMw21AgtSUJeua9kLxNBSP5RHH8pihvEsBQZtYLw/WgT1ru7RlpDDWhGWZQE8jcP2saERWFtZBGG3H1MUVe0G4rDewyIw5CiuiRh6vdCqGbDBXU2CqFPjzU5+2R7MRzuSgYegcjA0MzF/WSJdlW4fixe0tCXEz8OtmqNcPw3m3ErRn6+YzC1JbKRfV7IiK/OX+hmYzBd2bEZmMrRLw87ElNyWSP1TPpOmsQUnbz7BTeHXZCo1PAjhKSSWhGfQ/Jee84hLiJcd6glRZCH2SP08xOu1rdgYeI1oQltOiGexPovNoebRv0Nk2sEforWltEiTJvZFdAYr2dFzGfU/TuICbCFQS1GhtQLv5kQlPO302JFbiM5aLmCPrl1y9TEbRwLJhwlEg+/iCW4+/WQm4MbRi8+VercRecrsPSN+GyoF3bWYUCDheCaWi0cyzBeuhHJYiYUEH3bXO0vkkSS1/ExcG6ZPq0fckvFHj4QYNTf0DGqf8Zo+rJ9zFr3Cqqtjla/6BjT/AKpnwx3MSFx7T6DjU/8AXNBjsqMkpmYibSsot3YiBh5mLI7uekZ9zGB78hH/ACY7FhNZgMIYnYgVBgRoKO+Q/ejEP32rRfM4na8sfOxmtQI1bBdt3yLIvQy0jLtvuJZZqM3nGSDJfIzJJMpPEFuRZF9ExdL4cSIzwGGCDRfLFUo24tVDKBB+iOLS2224qytUEGEhBfJj/YYs+i4mnKkPR2UstNJDKQXxWrcTgxBmx9ExBbcmiuicuhCQygIL5Wit2uwknKl+h3d2mIIMQ0KSQZQGkgvlalvV2EjzpdVlymojaVEtPakPtR2594/OVChIjBJBpsNICS+byd9GDF/4vv5+tjRzNppM+sVDxMwoR5LMlPyl2EWIUrEpuKOJImONNpbQlIbbDTYSQ8fNYgK5DFGgJ9Wzc5zEgdYbeJdSglIVcRwm4t0D8/PH5+wMKtrlwOJtJIaqmEm2hKCJIS2G2g22CLaXyUMTR1cOtlpmwvdLqMs/VsJKYcOmQfDQnME0FNA2xuDdG6N0bgJsJaCGghoJQCLYXUZF8zEhBKTWvnS2ftq8Dz62KJJypbSCQllIQgG2DaBsjgjgjgjggmQloEgEWxXgeey4QtISJbFJariOe0nqRbeYa5r0rmwTXQ6thWTZBhISWzIbo3RujdG6N0ZfBPUi7Rh1AsoKJTcK0lVCoctiY18nnW2G7TETjoqpqJ8PvF1GQItkyS3EjcSY49U2DdjG9CVIbisGtdxOLqGUBpILuF1GQIu2og62H2SUlysWy41e2EQMYmgLCbquUDuK8g9iSvbD2I5UgHDky1tNIaRFfVSWDa0uN9wizItpnkVrLVczkkSUrQ9WSKuxZsWO9KkNRWJUh68kISSUtIDKAku4RZkXeUQcbDjQNBkHIzSwdfFBV8UgiKwgZAkgmw/GS81WzXaWQhSVo7Zlt8C6tF2LsVhEdpKRwxIhOxX6m+Zl921to9elZSbZ5CSSltAZbCE90y9AyCkBbQUyDaHCHCBMhLIS0FNCZFQ+3ElyaJ2JKZls9x95uO1Y2b9suLHRGbQkNNjhdHGxPrmpIj2FjUiBdwpnZnWcSEUq8mTzi16G1ZZhCA02EJyBe/kDQOGOGOGOGCQMgZB1AfZJSVQpEF6vxI04aFJWnsGeRWWIo0cLbl2bjbaW0ISGmw2gZBaA40Ft5CTWx3Q0zYwgi/sGA3iqMCxLXmP5LXBzFUMgvEct0Ort5gYrGGwRZElIQ2G2ghOlGQcbDjQlw2pBIiTIKmsRyo4YxFXuhudFdBKSYNREHJkZsP4grmg9iZ103WrCecaIzHBEENhpoNoBFtUkLbC2gpsbpkFIzBx2hy7QJsiGRjdBICWghoIbCU6YZBaA40FtBSA5CjrCqmMY/DtD8O0E1MYg3CjIBFkRJCWwhoNtBKARfEyCkBTQNkGyOCOCOCOCCZCWQloJQMtPNIU2FNA2QbQ4Q4Y4YJoE0EshLQS2CT2chujcG4OGOGNwbg3RloJ7C7+QNINANscIcIcIcIE2CQN3unsLRj2F6eQyGQy9A9hf1zI9II9GzGYLRsxmC0Uz6H0MvOimfQ+hl50QzBAtGMwQLRcxn1PRsxn1PRcwXnLrlouYLzl1y0Uuh+T0Yuh+T0Y+ukH1/rpnpGekEP3oxD96NlpGX1//xABGEAABAgIECAoIBQIGAwAAAAABAgMABBESITEFEyIwQVBRYSMyQEJScYGRsdEUICQzYGLh8BA0gqHBcpIVQ2OAkPFTcHP/2gAIAQEABj8C/wCAXfG7U++N2pt+qN+p9+qN+qKNGqKNGprb9UW3/wC3P2h9tB2U290UNpdd6hRHs+C3CO0/xGTg9KeyLZFJ7PrHD4KXRuBih9l5s98cDMIp2KsPwOUN8O7sTd3xlH0Rg/p+sUvqW+rfYI4FltHUn1aHm0LHzCmMhBZV8himRfx7Q5h8oxU82Zd39vpAUkgpNxHwFjZhVVP7mClj2eS0nb5xShNZ3pqvzdEw2CdCtIguSii/KaUn7/eKWjQ4OMg3jUGnktDz6a3RTaYqyUm68d/kI4OUQ0N48zFs0yju8o/Ps/f6YsmGXO7yjh5FLg+UeUVZqXdZV3x7O+hZ6Nx7vxruWrPERtgTuFaanMa3eUBKAEpFwGe9LwZwUwm2qLKYxT4xc0m9O3l+nkdRvh3uim6KZhfosuebd+3nAK0F5W1flFVtKUp2AUetQ82hwfMKYrS5UwvdaI4Yelyw030dt4hTwpxg/wAo3kx/iOEsom1tBzGnM+lSmTNIts531godyZhHGG3fq9Tr6whA0mCzIgsynOWdP3sgFKa7vTVnEPFuqQaSE3K5GMJSdiknhB/MJdRpvGw6tLz5oSNG2BMTlLcmOIgaYDbSQlCbgNQFKhSDYRCpZR9me4p8NWLdeVVQm0x6VMgpkmzQlG2AEigDQNRFxI4RnKHVphCycsZKvxrLUEp2k0RlTSD/AE5UZKXldSYsl3/2i2XfHdFuNR1pjg5pvqVk+MU6NQiSYNEq0aVqhLbSaqEigDUdBiakuaTSn+P2jhV1l9BN8ewMYho88+ZivhGcccOxPmY/LhR+c0xwbDSepIH4WiOEl2VdaBFjZbO1Bitg2dP9JsiphWUNHTTZ9IplnQr5dI5cQg8M7kp3QKw4ZeUvy1Kw5KZJKaFLuqwFOjHu7VXd2aKVpCkm8GMbg9ZYeFwpsj0bDDZSdDn3fAUhQUk3EcqrLUEoGlRoijHYw/IKYS9VPozApAP3t1NZncXMIrJ8IpFL0go93lCXWVVkHk9aYcCabhpMFGCZcpR/5FfdEYzCc2txWxPnGRLIJ2qyooSABqWy7PqQ4kKSqwgxj5elcks5SdkJdaVWQq7kvo2CEY548+inujH4TcL7x5tNkBKEhKRoGpvGN3IVNuJCkKsIMYhw0ybtoPIypaglIFJJ0QqXkqW5Mcde372RVl0285ZvVqikcjU0ePeg7DCpV6x5myg7OQ2x6LKkpkkHLXthLTCaqBr1nCDQyVmhfX/1AKTSDaOQJwXJ2uue8P8AEBlr9SukdT28neZ51FKeuKh4zRo7M+4+eNcgbTCp2YtfftpOz4AmmOY5aPHPsyKfcs2r/nygAWAfAEi/0rP3+uedeVchJVD867a48q/4BlXOiuj77s9UF7qwnsviXZ0pTb1/ALf/ANh4GE9WdwbLbVUntPwEyna7/BgZoqUQlIvJjFSDZmXf2+sUzD/orfRFnhCH1POOOJt2D4CkWdpJ8M1jX1dSdKorvksSWhO2Ksu2BtVpPwIBzWE0fffmS892J0qMen4S91/lt/eiKB8CLcXxUCsYmZpfGcV9cwSo0AWkwXF/kWLhtigfAqZVHHeNvVDbewW9eYRKte9mDR2Q2wLxao7T8CqWs0JSKSYdnXPdpsQPDMuLNrctd2fX4GGDpW2n3h/iEtouH75hSzzRTE1MK4zjlH33/AuIl7ZpezmwVOWvLvOZmj/pqhs7VKPwIWJXhJo2f0wX5g15hVtujNTQ/wBMw3uUrx1sFzCqiSatMBSSCDpGbLj60oQNJgsYLCkp0uafpFbju6VZtaOkCImGDxm3Ke//AK1tKy4vWun774JkXcY10D5RUnG1Mr23iKzDqHB8p9f2h5CTspt7oxeDWCtXSV5RjcJPKUeiDFRtISndnXmjY3MXePnqDfyajmS4o7vr+HCtpVFZh1bSo4Kbxg+Y0+MZcq2vs+sW4P8AGMnB/fTGSy232eZj2idKRsSfKKVlTh32RQ2kJG7198bvXam2veMG/dDb6ecLRsPLt/JnX1cwd5hyYctW6eQ78ypKhSlQoIhUs+fZXTSlWzfy3fydrB7JuNK4ShNybByDfmy2uw81Wwx6BhHJIsQs8rtij8fR63C1a9XdyNTl6zYgbTCpl615223kNGjOVXLFC5WyAxPJLkvzVDRFeXcCx4euXHlhCBpMKRgwGqm0uUQh5N9yhsOftv8AUW+6clMLwqg0LC6ezygOIsUOMnYeQqeeVVQmDMviiXRYhPILb8+UrSFJOgxjZB5TS9lMUTsvjU9K76RwmMa600+EWTTfbZH5tuMla3P6U+cVZCVo+ZVsYzCMwpXyiKjaAE+MVrTJu3jZCVtqCkKtBHIaTdAYYPsjRv274CUihIsAj0yR4nPRFdo5XORpGfU6+qqgRSqluTQbB96YCUChIuGostpB7I9yO8x7kd5ilLLfd6hbcFKTHo01lSiuKrZAUggpNoIzlnqGSkDwXPXt+kBtvtO38fSsGkocF6BAamKGZjYbjncs1ndDYjHTpKGeagQEpFCRoGqy26KU+EVHKXZJR7oDsusKTnS48sIQNJgy8mCiW5yjpio32nb6tKslzpCKrw9Il/DtigOYtfRXZmeHeTW6ItMFvB7ZaR09P0jGPnGu7Tdq4pUAUm8GMfgxwjaj7vjFzycQ7t0QFIIUk6RmaTYIKJbh3d10B3CCylGhAgIbTVSNGYpq1FbUx7HNUp6J8jHtUmFjamyOFYeT1UGOM4P0Rx3P7IyGnldgEeySXaqkxw8xiUbE2eEUrpdVvuigCgbBrHhkUnbpitg+ZNHRP3RFWflP1Jsi1xTZ+dMcHMsq/WIsIi0iOEmGU9axHvq5+QUxVkJQneq2KZ+Yqo6A8o4NOV0jfnbQD1iPct/2x7lv+2LEpHUNcZTKOyyLK6eoxY45FrjkW4xXbGSynttigWD/ANEafhDTqjT/ALxLNUWam64su1P1xZdqanvjdqenvjdqekaNUUjR8a26ot/46//EAC0QAQACAQIDBwUBAQEBAQAAAAEAESExQVFhcTBQgZGhscEQIEDR8GDhgPFw/9oACAEBAAE/If8A1qg1e6EGr3PZuwzYbsrtN4aNO5rN2GbDdldpvDRp3LYIcZgwZartBLxgwTTTuWwQ4zBgy1XaCXjBgmmnclNW8pul5WAZUjvAoo07lpq3lN0vKwDKkd4FFGncm8BYlu84mbYhy7l3gLEt3nEzbEOXcjAB8Sbr148ZxKxoHcrAB8Sbr148ZxKxoHcjghWJawZu9H07mcEKxLWDN3o+nc+8eIQoMadz7x4hCgxp/wDqVXpPHFLeRmMWrkj1zPEZPxQ6aOf7Mv47gQyHMCnnTG+WonsyoFve9Jl1rL/wgXErJ4vwef6XMjwcWk6avGiVe+tvSM+sIrnpD5/bywcful68SYPJj8G66/hlUWwtOfM1jMBVdj0Yf4EyDsG7wDeHG5hff8DEJOXu/Bw7PAOsGOkzUTg111PhMFEyvEOJL/zljGrKvfquKzOv4YLpGGjf/CNPGEn843J6SgMDP5J/x9LMpyD/ALEsOaL31sBXrWtHW6YEdYPVZl5zLnJx1z+pzj0250L6NvUwWoUCg+1Uc4F7vW4r1+9yRVfGfLg+jDtpC2MeBx5S4g/mCzGppOWjhXzObV/BMxNw+3B5vwToJkUnqfFOdA3HwgoK4J93K3IxbbP29F/cznMBo/hnEUoRx644c5wxEsVs1w4H3mzGs5aOFQVrr2CHLyzjGkB8PwPeCwe7daIfsc4anNYD1PwnHzZZ8OHabCCG65+oAKMH4WsPgGP5ozFuYehS8h3XpCQDV8CP2nyDl8sEylCoO4C9DsaJEcYFtuLw0m2yw7qpaOyPcoC8n7YKQVAUB3Fla0rfY+fCZCPNDeXH0IhbWkmCY4X9k9OMD1ZbqIo/qec1P4/7Mq8t0S0DdGVuaS/zzMV/QLRTV+CEcohsdxggWOEYzl/sPqRoUfP8WxMWei4X8aEIblpf8dJo/Fk/5+hjgAYgNA9Z64gg7z8T0bIoj1m9/wCXxIVU01Wfl6S6Bq1Y8KH5Ra5vKWcbPo9BW16jdlNrp4hw8HclGNWDWp3qU4vRge7NeHT9oYMadjiLQGxmusljPrqQ5oKJ6vBzIKw7VYkLfjtOvAjkpi8W7Tdrwg82PtnAf1aTDqfkeg83LodyAc3lHJTF46TWbD17VcTa4riO0vflZ/MvRnqQCPB5y/8AFEsZizq0dIghdigXzcPWHOLFdeL9QXoJt6yiAbBXcYljMSLa954R259CorEmkwyeh+GV6Fa+HnLvw0G/OM2YKaD5dXE1CgVYdXeaRaBoO5aOsN08E5PN+CJIOIEtVtt7c+pvOZiXH4O1OMQ4y1NKW8ecUaYcQc3uZBACdnePLsfh1aBlb2eZFGq8JeRdu6hQZb2OMyAop8/6IX7Z7rxec1Wq9yoOsoTeHfhNw8SarVfxNO1A3/69krOMTiMvO3y4QAdD/jLA8sM7nEYadzKljCkTSqYafi10W/DckS/4j5JYR32tMCC5u6fuWfWBqDzfjrLVnucBTLVn8epMWH1x+T6Vh2t03UTz+HVBLAUBt/gK50F/DL0iiksO01Kec6NJkkEOS7Xxf8DVuV8xcWh4zF2i23oB/wAEwpQfEy+q/wCBPgw35T2iwdnVyx9KHkB7D/gq+CHy/dMA8A9o8HYnjC0UHjLqZgQc+W8YZLu2rpl5sZr9LqztuUxzg7JT3PymOcHZKezrPdPFBPemk7BZyBanAhXX8vbx6svbdzPWfwMaxtUMnl3PjWNqhk8uzrHIPIX7wIGD70MwYLwBDuXwKdP4wCAA0D8FDADTudDADTslGpvQC5urJ5tviZCYj7iKCsaBCnbKfHT46vKAAAGAP8K/CsHC/LKl1/cTKTB919LgDXl8XEqtq5h1f8Kadx2wQkG21twfPWXP0qj7jpJ114e5f8Mo9lgf5jVmg068XGXsrIa+09MK/AmRuwehf+FHf6QMqu/XhOJLNmuUufpVkPtrzX4p/UY18f4RinsGR8+Lyi8l2VefzLX6NJBX3MJr8coHAd7KJq2GLYUNrEsez1GKLUeq9fFOXB6wmzbq7dJbLGVyg++/NPNSOb6B0V3AQav4yapVehRC8LLc386R2ksIP+hOlEFr72VK53kZl8E2fhA+xGk+DwgYQ2+UVmeUEpIpqa+/DMLCivW4etPz1DeF5Ddlm4ND8Uq+fMMvdUDMrXOUz5yuKab18zyUfgoPXOhfEB/DDog6JxfPyS0vOtD0oTqZZScl3morLpyZRK5g1hmw3ZXabw0afccTMMJY1LWPgypU+SD81QQmDBlqu0BbGmIFfiVm1aD4B5x1hqPHOXzliXEWPwipeXl4KciJ9GuESiYEOMwYMtV2gl4wYJpp9xxB5MI3I3HOGnB8H8ymDKzT0MAypHeBRR+LeG0Pj/wzApooXsxwIfCciM9P0k8qAQyUypTB3lN0vKwDKkd4FFGn3stJgQc/xYhF9S2K2F4cH8sFgL3mq2TaGPoIqa+cVf4aVqKhVWxbVTv4y1+jUSpWU+msrAykB9d4CxLd5xM2xDl2JslxKMbD1/4mk86rRy49GAN/a16jb79chD0SoXkeVcjY5spbNL8c7ZhA+JObXjxnErGgfSp0d9XYhjFQeTyaTYrW/wDgwCh2vwRsDrPt+2G0ySogx2bAB8Sbr148ZxKxoHZ2yya2AAslTa0s9/3ASubcvMgHJOk90JwvF7pr/gtwJu+DnwlnTdT+j1hNDxLr4PCcbrny4wMb2tb/AOj1IeQNiTtFouFY5uC99H6kygMq7RABYT/HSVqj0E+Jjr9e0CVhqavbml1678jnPMNh/fshzSUG0sZTUqOzcEKxLWDN3o+nbWy36GkRe1+KbjtfCD5i3vfsioI7a4Kq25RYztPYlt4yw6mx9f7IK1bCxO03rczjAox9FAq0EsBbdwf54wWMa7j4y+WrSHMkNx04nKM7FaC8ufJ7VWW+pz48IGOW8YrkfMEHiGgSx+hQQ7TePEIUGNO3ths5M5EXhOmCnInInJmDSXGTTiuJKB4RXs4PKOhfDU5Jt2uvOtpyVzSefA5SmvV1ctfpnA+ncBwy9zeIFD3W6eo8YIAfnvB0exWUD/8ANmhDa/lp7plZ23IHjzYJR2cv6YfnJEsCIlZWAgEDDlpNAWgsY2R7rqcOSFEBho3/AFMrGBbHsSZANVnIR8N67+EEuM41dDbxzCAaIRV+nUTTLJyolqjqvDPppNTz0THsTCCNh9WSL1H+GpNe6qENzopqN/w1mFp/hxUNqw1b2avGLHkz5JWmHQKCKy/b6VMCu46lfbfLPpUAdg4HjEu8rqvw1Rwtfx5MruWk9yyeXAQ1VdGaEurPT0E3Hwl9WkTIf7UfuXI8Q+GIaeuf+IrLJyJTKPokFl85f0XSXB9PDEar1Mr08nPS8SWbwlY05cElMDuuyCzkxCJVOnBl7ncR8JpT+neNuN5TirynvIr7E1Vv9azAJwDEtiO30+TKpR9tkBgO05U5UeSdEtwhyTlTkSiAQp3ckNhs5c5UciovhB8IkecicuVQCB2DCIiV4SnCU4SsBAQ7hLGNWVe/VcVmdfwAMGDEcJ0w5YCBKICB2mjGrKvd63MjOp3MLMamk5aOFfM5tX8KpSV+pXbizGppOWjhXzObV/8AOS1zeUs42dzrXN5SzjZ3M068CalMXi3aUs2G/HuZp14E1KYvFu0pZsN+PcoljMSm3FPADuYSxmJTbingB3LRzZuGuxm+vN3NRzZuGuxm+vN3Kg115QFlcOjFl2ncyDXXlAWVw6MWXadyoNdYgTeHfhNw8Sasq9yoNdYgTeHfhNw8Sasq9yqze7zC1pVPc6s3u8wtaVT3OAUwus9zgFMLrP8A5zeDTnB2Snud4NOcHZKe58axoV0mU3t6dz41jQrpMpvb07nQ6wKMdzodYFGP89//2gAIAQEAAAAQAAAAAAAAAAAAAAAAAAAAAAAAAAAAAAAAAAAAAAAAAAAAAAAAAAAAAAAAAAAAAAAAAAAAAAAAAAAAAAAAAAAAAAoAAAAACgAAAAASAAAAABIAAAAALAAAAAAsAAAAACAAAAAAIAAAQABQAABAAFAAAAABgAAAAAGAAAAAAEAAAAAAQAAAAAAAAAAAAAAAAAAAAAAAAAAAAAAAAAAYjAAAAAAAAAAAf+eAAAAAAAAAAF/8wAAAAwAADPp8fsAAAAMAAHP4/H9AAAAAAAD/AP3/AP8A2AAAAAAAP/8A/wD/AJAAAAAAAH//AP8A/wD0BAAAAAf/AP8A/wD/AMeLwAAAN/8A/wD/AP8Aw/zQAABz/wD/AP8A/wCf/wDAAAAv/wD/AP8A/wAf/wCAAAAf/wD/AP8A/j//AOwAAn//AP8A/wD9f/8A6gAF/wD/AP8A/wD5/wD/APkABP8A/wD/AP8A+P8A/wD6AAP/AP8A/wD/AP8A/wD/AP8AAA//AP8A/wD/AP8A/wD/APsAB/8A/wD/AP8A/wD/AP8A/wAAF/8A/wD/AP8A/wD/AP8A/QAP/wD/AP8A/wD/AP8A/wD+AQ//AN//AP8A/wD/AN/4A7//AJ//AP8A/wD/AJ/4AX//AJ//AP8A/wD/AJ/0BP8A/wD/AP8A/wD/AP8A/wD2Bf8A/wD/AP8A/wD/AP8A/wDgB/8A/wD/AP8A/wD/AP8A/wDjA/8A/wD/AP8A/wD/AP8A/wDFA/8A/wD/AP8A/wD/AP8A/wDUA/8A/wD/AP8A/wD/AOf/AIoD/wD/AP8A/f8A/wD5+bwD/wD/AP8A8/8A/wDyYuIF/wD/AP8A+f8A/wD36hIG/wD/AP8A2/8A/wD1CkwN/wD/AP8Ap/8A/wC5jyAGv9//ADr/AP8AxABQBB+P/rH/AP48AYAD0Lf/ALt//mAAQAGMe/8A1ef80AAAABd1/wB1kxIgAAAADx0WsEJ+AAAAAAASqjRQhAAAAAAAAg+gFd4AAAADAAH2IAKAAAAAAwAAMQADAAAAAAAAAAAAAAAAAAAAAAAAAAAAAAAAAAAAAAAAAAAAAAAAAAAAAAAAAAAAADAAAAAAMAAAAABwAAAAAHAAAAAAwAAEAADAAAQAAcAAAAABwAAAAACAAAAAAIAAAAADgAAAAAOAAAAAAgAAAAACAAAAAAAAAAAAAAAAAAAAAAAAAAAAAAAAAAAAAAAAAAAAAAAAAAAAAAAAAAAAAAAAAAAAAAABAAAgAAEAACAAAwAAQAADAABAAAAAACAAAAAAIAAAAAAAAAAAAAAA/8QALRABAAIBAwIEBgMBAQEBAAAAAQARITFBUWFxQFCBkSAwobHB8BBg0eGA8XD/2gAIAQEAAT8Q/wDWrYALssGwRsSx8nbABdlg2CNiWPkyCAC6ChcLRZqpdL/yVGtYC61nyZBABdBQuFos1Uul/wCSo1rAXWs+SqBqqCAIFzGvV9+koSFLBSytHmAAAAaB5KoGqoIAgXMa9X36ShIUsFLK0eYAAABoHkiCEXgW1Ts9pRgA2uRNzodJYOzoCg/6QAABoeSoIReBbVOz2lGADa5E3Oh0lg7OgKD/AKQAABoeSCUFBdC5QMi5Fo3p0lFTLg3NUaQAAAAoPJRKCguhcoGRci0b06SiplwbmqNIAAAAUHhX56odL2FqOQG3cN4zsQu0qDBUONkQRoMLFHV5fDPz1Q6XsLUcgNu4bxnYhdpUGCocbIgjQYWKOry+SKxpaLogcmaqZ10OICgrQHng8+TKxpaLogcmaqZ10OICgrQHng8+F08Egt/UJfU6wABQMHhdPBILf1CX1OsAAUDB/wDqQlQWXNALr/VFNmsj7jR9Ey23Kn6BGL4ox9mF1w8P2h/CtfpMo60LQPrH0IroIXJ4KbiqUQdHZgP6IioI3Fpg+JkPQQEDzj0gPrEi2pK2j3PqUH04q1O4Lfh6fqP7Bgrk359UQ57mD0Wp9aX8vfqcEkfrqCfZDDATWDfnNy+sv4Q9tQs+oSgJK2ooOiMrtcpVbtSfg+n5aMioP7x9GyXffpx3T00+7G6LobqbHUg7oN+NQBSyi+YILUbWivbQjJQA0po9T0fB6AjYWtebw22jQakVT7Ejb5Ea/biWXVc/NiRYrxCSJ4kJBE9Ud6/sppA0FXsCFuNL0A9CGqAjwlQtMRDIANy8O8HZ1Ds6hy6UDF2DhNgMB8LBVWaLi2aTqW+mlRw0LGmt/jsQAk3Z29CGq+gEvBUyDeBDMBPGMDS67aXG0a361epsqBBVaW8HT28CFUFy4cHAa7nPcZ0L7sAX2iEjPLav0FehuaJNDB2Ar4umLMHazEbDWbxPK1+whoHVv2I9QMF68YCNKGHcxTWyYB1Ktt/UfjTQUbL5jbos1/20jBVabenyKEpGa2x2GzCAFIhhGkfQNmAmYCeWlyO947A1TwZZardaDgu/3IOcDDJenQ9vmaUF23FfmpDIgFAYA8FiL6xcLm4/pmJLuXaGr/HJDJuKzyvYlhMWw91j0d2kzZ/H2Zh1ckO3kCJOg2opE4RhULKVArY8q3MtlI0wA8qJsuv7BurgN2LnUtVRP3doMbhgIwAaAbeRHndoM0/YIPRQ66RS7lMIsxWE0CwMHdWiPIXs/WKTD/rkphpl6H+pYr0hxV3XSH1o6G8wnAAlcoSxLRzZrAMG/HBQGrHtiDtSv19YdSg+A/P38jDEZAsR2Y/AcDvR7zBaOipu4VwGulQbXsqZXi3aFO1kBia516L9kLAk0/GEoQA4CVhfAGFt67se9XHRXwz9DSBWsF46YX0iW7NQ/YJ7YxRZdDbq811LIbBvxN4AULDVXLwQLgDAiZP4Xt+0B0IHCwy4aXUrJ2Nd18kBAFNiO0ujRYEM2qUcQ1oZWH9j6mAAADQ4+SFB6KfhHDAa0qAugZe0NlUyVNKDEKod7a2iJhIQg34YmCKsgW1MkIogbZtUHkxXivMKASf7nX1y1BnpuxBSw9XkirVOpQtmSqUSms5PWUSvmt2T9/movuU49YlBlHiap5+iwJmKh04VsOIAMwyeDWhZYcsWB317RLebO6hmnLnfBH7pcy6uR6ZRz11f2jR7EGEL+4tekBlSgQPQ8iWi5bQwwHtMiA0twUSjRKGW7tfnow6KS1EZXc00vQ2zEwexFG8hsHCQwOsu/BEqgobLQBqroHVlrAOqmnQElz23xXvM4wd4FBqNPwBg8lPEtZYBdzEHa6usFKJdtHHTtArTwCumjWJsxqOOjZ0cTAdENQArIjYmyO5KjwKjjOAEtS6TDBYx/hdoUIEUh+0Ohg8mdptdaC40Uw16PpBurCCjrnTwYD3KzQMejo9GXzwjVXC6vEri4CfPNUyLKgMqdA6sWkMLCjq+3r9gqHWN7pt1uyriBsHQ8ldBvoC2AjZKtu4eJjYofU6yriBsHQ8I7YBtwU/W9YOcKrgAj7MoMwbPnMYUI4heex+nMKOS0ZIX9itiAABQY8mQ6C5HS4KEfWGAABQY8KN51y/lUr1gpWTNVrfyJWZlA+b34SAq9jV0JzkeeLd7+yAZReQ8nY6EAoxeQ8O1K4vYAnYZWULKj5nSNbm2C8L7UcKABIdQDAH9ApPQX5xQ586NSh+ZnSEnkJ3LQRBrDNUe5P0/oNBaOiVC6B9yWD5jlQo7CvqEPRB/Q/oKCU3hM6uv20v+WCDQswGS9Ya+39CXOPsog9JX0fJipS2Mc5urAQuyc6OAD9NZT5g3C4aztK88/KK1ky/X5zlgo1aq3pzHVpGa8ncsFGrVW9OY6tIzXy935j9VrAKrTA7Q/GEpZDdK8U+7oQLiS1wNw6/S4l4DKB61y9sHgFkU1bWon+xNzWy9DY/Pk6yKatrUT/Ym5rZehsfn5ZVli6KP7UsHVlXxlg3JhgY+8uxBXV1xLtn6c2FCegUAbHgWLTPI1CaAHTydi0zyNQmgB0+Va2G8IX0JWPGF5SnpaP4KjB8T1HoUAtXgohANM0WcLrXoYQuTAFAGx/RWPU26/wCAPRgUJNY0Vn6mIwqOPiy/A7YhTqh7pbAorqO1eDoH9FT14dBrV9CEhH0On1Ay6ogrqsppqUHwmUDVxL/2RbC1P06/oz4RdOszd4p7Ezb1llKaruyoalA1Kh8I22adEX7TCwyd8n6v+i1gn1hoEc9nrEQaprFbb7t5XdjBiVo1K4qCj4W08I9WQANWO9/6IXhhYNxw/XrE/os1ald3ztHKKo1BLEqfFrnl9mwQ9Xfc/nzYcI+xF1XWhhzoSukxAORMPy9kiTr4OXoZmA6QLtz9x9EroDgWJ1L/AH1YrMMYGoIMSkxAr4g1E3sh+ZjNBvA/KfkDdEPVgiWZPCq9bXsPrOEHdHo82/uxgvK5YvU/Ezlpqj3A2evxpA5ep9rF7R7i0Px2T6rNfMBFvsUV9BNvW1q8rVerGDEdCkpGoIUSiATkFg2CNiWPxWoNTMzOg3S37YfHqAgXS2XUc1dsXjviYNbGD9/CpErX1uUSq5uV2OhSPYZIAYVu6roiCPVRYBJOzJKcDqUsdc9B/E+vqP8AIBRnaCe5KVrSoTipIS11Sxexl9WA+IiHvzGNI6MRrFgSWQwYloCBdBauFos1Uul/5KjWsBdaz8VyjbhLahG2RAUN049J8aoHLpKAA5gfr0jVsMCOpUAAFBseEsaJWqzHroPWLUnRagT6jZmKtWVDUAaQDA9BIjux5WXRTpEXVEVZFUUgUUgpiCNJaDVUEAQLmNer79JQkKWCllaPMAAAA0D4rFA6kZYxSe0pWBqQ4/T06QbBER3PFuxAXS3eWLNXtd+n/JeLQ6KXCIKDwpaQaaBlg9FV3lKhS6Bq9d5UYgJsjjSMuDjoRgdH0hXpAsuKSyVGIOyAIg0LwLap2ZRgA2uRNzodJYOzoCg/6QAABofGLJbTMA2tbR9VokwKz0sfqXHilLpS3aWgGuRKYZeic1W0AACg/gQ0xZXf7jweQO1urz0NWIm3klaurzKyYhqEBxEJFNottEuxHiIcRAbQCAgV/AlBQXQuUDIuRaN6dJRUy4NzVGkAAAAKD5IwtmpZhZqi/wCeiWkV6kS6O0kwhPR0yaNldH4z0/ZIf96SgXc9p1sE/QI6qiyugPQ3ORPnKjFXwsrpdu4g1aqTQ0d1RRGjsB/GZR830h6rQTARQ2tSwG4UziKyUHN0NOo6j4G7wHZXgN1cBHrgSUQbOvmSi0djYlwalI1Kh8tUOl7C1HIDbuG8Z2IXaVBgqHGyII0GFijq8vykuAHEqOJhOEYn/ZkEhUvQOa6Bh5MFG45TVDeS0je4osAn7MCGW06/2jK6Sbk9YIJNitDrRTd2BZlsKug2+glijKMulZvqq5gRgAaF/nsgKBKlqLEfmXIFrYlHRall5bWwPJw/yNlVCgGqxSrtOej9wf8AYcIkBgBAt/e520Q/7UpB0G9k8nCfPHPPKWwaq2CZJmCdfXZD0H1oQGjAlBiEEkEIFfKVjS0XRA5M1UzrocQFBWgPPB5+alkENkILUcVCXhYGPV/UJeoXF1H2CGDcaUqCwnKSu9sWBgaAoPSOdIAZSh0KedocJDeVtEs6ensQ0bQyWiJqfMUe8BT/AOoQgoNv4IsK1XARKiNUgNQeEWCBSyuS/wA2IlcQBNEcIlibjFCjsQ3BonOGEFulJzdPUd/mjmJZV+FberGGitrGzaDu8sCdNJQRixK6UhFiCj5iC39Ql9TrAAFAwfOQYQcQ1xBVjK1AnVFf/EppWF4jLqmcuBAghxqc6j1BzAufjrS6t9R4ZrYncF5GV0fmkzS6oOnK9DMLx2rn6ErlhRreTHWPB02jFiWApAhWKE4PTVuJNGPxq6FXshJjFlaM8WewwRLKR0T5HK6He9uTu0R21yo+v6QuGCc1NjblmzdlwbWMmJTVwIMSg8cDNsitiK2jwQ4IR0mwEFtFDiC2IWF6GB2nM2gIN4OOg5mTMjsut59fvDDlTTciYfkhbG1UByst0XUH6w/kj6qp8Tto99lNL/BovdXVerBGIjTUElIEpUIuITcJUNOE2SLpXN4XvWAg2Lf0AzV65Gb6JYHh9X3YDe934WaRCAK6lJ979J2ShR+g/WIB6JceNXsUrCOVWTs19VhhW0ADijBFDEdEVVZBJiVvIalEpxKcSjiV/CXCDiEVAjCoRIBFf/EnRh8t7G9R2sRATDenrTadkgYUGnfqcwsXndH2u4RZ/RYHZPQIGtTrceywBAI/3wPqmi3pf7sZ6wIRUaifZvVtiQKcNT9tuwiNttxmYmhcARqEJUtIC2QQ4i21Di0RzIS7L3U+4EVtjlP4gixvJ/jC6/fDSOEpIrtHJhiExNGDCyADEo8qS4YcQFxLLqHGiDRW9QEe5G0pbtvqiOvo617GDt3e79oIlf2P4mS7Qg+xKBEaIX9THEIwGA9CItIgQilkAqDJggD4EuDsgjiXEG3C5hSF7KHIjr/BAVBUwTYIcBXltpCNJYYIbcPtGyQl4/lERtFOjNOBKgaYhGkA+NLgMZtHbEWhgIAtoDYhNoBtADyBAFLKL5ggtRtaK9tCMlADSmj1PR+clxDtNgiNtsRF4jtkTtAcIZ0IKsQ6YITaCSvlpBhZRfMGVRLxcK9tAjUoCUpo9fZldJXkjA0uu2lxtGt+tXqbKgQVWlvB09vA0RDtFJ0CV4IAgDaV85gaXXbS42jW/Wr1NlQIKrS3g6e3/nK8AKFhqrl4IFwBgRMnk94AULDVXLwQLgDAiZPJiYIqyBbUaMUyA2zapYd269ifu+TEwRVkC2o0YpkBtm1Sw7t17E/d8kWhZbYsWB9+hACwUpuArMZg1oLdi3LvwT4JaFltixYH36EALBSm4CsxmDWgt2Lcu/BPggxBQsAVZgFVabMxRZ20RHjqeTBiChYAqzAKq02ZiiztoiPHU8lZCyi6CtcwAjDwYNOkzxYAo4W9I+SshZRdBWuYARh4MGnSZ4sAUcLekfJEASrIArFCnBbFuE2Jg0odjC89GUQgDYLg8lQBKsgCsUKcFsW4TYmDSh2MLz0ZRCANguDyVBoMhoEhZ0cxst/XECgAoMB5Mg0GQ0CQs6OY2W/riBQAUGA8mU6G3R5hAEKOoVZ5Op0NujzCAIUdQqz/AMw14KlaFGrVC8GMxFUDmrsTkfC14KlaFGrVC8GMxFUDmrsTkfCEPAkwK7lhlQ/mCBqspwTB338IQ8CTAruWGVD+YIGqynBMHffydKxnkUfeBQAODydKxnkUfeBQAOD+vf/Z;" parent="1" vertex="1">
          <mxGeometry x="790" y="646.28" width="260" height="260" as="geometry" />
        </mxCell>
        <mxCell id="6uBSnt6w91KRwEMDHv7_-118" value="" style="ellipse;whiteSpace=wrap;html=1;aspect=fixed;" parent="1" vertex="1">
          <mxGeometry x="530" y="752.55" width="80" height="80" as="geometry" />
        </mxCell>
        <mxCell id="6uBSnt6w91KRwEMDHv7_-113" value="" style="ellipse;whiteSpace=wrap;html=1;aspect=fixed;" parent="1" vertex="1">
          <mxGeometry x="540" y="646.28" width="80" height="80" as="geometry" />
        </mxCell>
        <mxCell id="6uBSnt6w91KRwEMDHv7_-114" value="" style="ellipse;whiteSpace=wrap;html=1;aspect=fixed;" parent="1" vertex="1">
          <mxGeometry x="610" y="660" width="80" height="80" as="geometry" />
        </mxCell>
        <mxCell id="6uBSnt6w91KRwEMDHv7_-115" value="" style="ellipse;whiteSpace=wrap;html=1;aspect=fixed;" parent="1" vertex="1">
          <mxGeometry x="640" y="690" width="80" height="80" as="geometry" />
        </mxCell>
        <mxCell id="6uBSnt6w91KRwEMDHv7_-119" value="" style="ellipse;whiteSpace=wrap;html=1;aspect=fixed;" parent="1" vertex="1">
          <mxGeometry x="470" y="726.28" width="80" height="80" as="geometry" />
        </mxCell>
        <mxCell id="6uBSnt6w91KRwEMDHv7_-120" value="" style="ellipse;whiteSpace=wrap;html=1;aspect=fixed;" parent="1" vertex="1">
          <mxGeometry x="480" y="670" width="80" height="80" as="geometry" />
        </mxCell>
        <mxCell id="6uBSnt6w91KRwEMDHv7_-121" value="" style="ellipse;whiteSpace=wrap;html=1;aspect=fixed;" parent="1" vertex="1">
          <mxGeometry x="450" y="700" width="80" height="80" as="geometry" />
        </mxCell>
        <mxCell id="6uBSnt6w91KRwEMDHv7_-135" value="" style="ellipse;whiteSpace=wrap;html=1;aspect=fixed;" parent="1" vertex="1">
          <mxGeometry x="440" y="820" width="40" height="40" as="geometry" />
        </mxCell>
        <mxCell id="6uBSnt6w91KRwEMDHv7_-142" value="" style="group" parent="1" vertex="1" connectable="0">
          <mxGeometry x="470" y="110" width="109" height="70" as="geometry" />
        </mxCell>
        <mxCell id="6uBSnt6w91KRwEMDHv7_-143" value="" style="ellipse;whiteSpace=wrap;html=1;aspect=fixed;" parent="6uBSnt6w91KRwEMDHv7_-142" vertex="1">
          <mxGeometry y="11.550000000000068" width="40" height="40" as="geometry" />
        </mxCell>
        <mxCell id="6uBSnt6w91KRwEMDHv7_-144" value="" style="ellipse;whiteSpace=wrap;html=1;aspect=fixed;" parent="6uBSnt6w91KRwEMDHv7_-142" vertex="1">
          <mxGeometry x="14" width="40" height="40" as="geometry" />
        </mxCell>
        <mxCell id="6uBSnt6w91KRwEMDHv7_-145" value="" style="ellipse;whiteSpace=wrap;html=1;aspect=fixed;" parent="6uBSnt6w91KRwEMDHv7_-142" vertex="1">
          <mxGeometry x="50" width="40" height="40" as="geometry" />
        </mxCell>
        <mxCell id="6uBSnt6w91KRwEMDHv7_-146" value="" style="ellipse;whiteSpace=wrap;html=1;aspect=fixed;" parent="6uBSnt6w91KRwEMDHv7_-142" vertex="1">
          <mxGeometry x="69" y="12.549999999999955" width="40" height="40" as="geometry" />
        </mxCell>
        <mxCell id="6uBSnt6w91KRwEMDHv7_-147" value="" style="ellipse;whiteSpace=wrap;html=1;aspect=fixed;" parent="6uBSnt6w91KRwEMDHv7_-142" vertex="1">
          <mxGeometry x="54" y="30" width="40" height="40" as="geometry" />
        </mxCell>
        <mxCell id="6uBSnt6w91KRwEMDHv7_-148" value="" style="ellipse;whiteSpace=wrap;html=1;aspect=fixed;" parent="6uBSnt6w91KRwEMDHv7_-142" vertex="1">
          <mxGeometry x="14" y="30" width="40" height="40" as="geometry" />
        </mxCell>
        <mxCell id="6uBSnt6w91KRwEMDHv7_-149" value="" style="rounded=0;whiteSpace=wrap;html=1;" parent="6uBSnt6w91KRwEMDHv7_-142" vertex="1">
          <mxGeometry x="14" y="12.549999999999955" width="80" height="40" as="geometry" />
        </mxCell>
        <mxCell id="6uBSnt6w91KRwEMDHv7_-150" value="" style="rounded=0;whiteSpace=wrap;html=1;" parent="6uBSnt6w91KRwEMDHv7_-142" vertex="1">
          <mxGeometry x="34" y="10.549999999999955" width="40" height="20" as="geometry" />
        </mxCell>
        <mxCell id="6uBSnt6w91KRwEMDHv7_-151" value="" style="rounded=0;whiteSpace=wrap;html=1;" parent="6uBSnt6w91KRwEMDHv7_-142" vertex="1">
          <mxGeometry x="34" y="34.549999999999955" width="40" height="20" as="geometry" />
        </mxCell>
        <mxCell id="6uBSnt6w91KRwEMDHv7_-152" value="" style="rounded=0;whiteSpace=wrap;html=1;" parent="6uBSnt6w91KRwEMDHv7_-142" vertex="1">
          <mxGeometry x="11" y="15.55" width="10" height="10" as="geometry" />
        </mxCell>
        <mxCell id="6uBSnt6w91KRwEMDHv7_-153" value="" style="group" parent="1" vertex="1" connectable="0">
          <mxGeometry x="690" y="47.5" width="109" height="70" as="geometry" />
        </mxCell>
        <mxCell id="6uBSnt6w91KRwEMDHv7_-154" value="" style="ellipse;whiteSpace=wrap;html=1;aspect=fixed;" parent="6uBSnt6w91KRwEMDHv7_-153" vertex="1">
          <mxGeometry y="11.550000000000068" width="40" height="40" as="geometry" />
        </mxCell>
        <mxCell id="6uBSnt6w91KRwEMDHv7_-155" value="" style="ellipse;whiteSpace=wrap;html=1;aspect=fixed;" parent="6uBSnt6w91KRwEMDHv7_-153" vertex="1">
          <mxGeometry x="14" width="40" height="40" as="geometry" />
        </mxCell>
        <mxCell id="6uBSnt6w91KRwEMDHv7_-156" value="" style="ellipse;whiteSpace=wrap;html=1;aspect=fixed;" parent="6uBSnt6w91KRwEMDHv7_-153" vertex="1">
          <mxGeometry x="50" width="40" height="40" as="geometry" />
        </mxCell>
        <mxCell id="6uBSnt6w91KRwEMDHv7_-157" value="" style="ellipse;whiteSpace=wrap;html=1;aspect=fixed;" parent="6uBSnt6w91KRwEMDHv7_-153" vertex="1">
          <mxGeometry x="69" y="12.549999999999955" width="40" height="40" as="geometry" />
        </mxCell>
        <mxCell id="6uBSnt6w91KRwEMDHv7_-158" value="" style="ellipse;whiteSpace=wrap;html=1;aspect=fixed;" parent="6uBSnt6w91KRwEMDHv7_-153" vertex="1">
          <mxGeometry x="54" y="30" width="40" height="40" as="geometry" />
        </mxCell>
        <mxCell id="6uBSnt6w91KRwEMDHv7_-159" value="" style="ellipse;whiteSpace=wrap;html=1;aspect=fixed;" parent="6uBSnt6w91KRwEMDHv7_-153" vertex="1">
          <mxGeometry x="14" y="30" width="40" height="40" as="geometry" />
        </mxCell>
        <mxCell id="6uBSnt6w91KRwEMDHv7_-160" value="" style="rounded=0;whiteSpace=wrap;html=1;" parent="6uBSnt6w91KRwEMDHv7_-153" vertex="1">
          <mxGeometry x="14" y="12.549999999999955" width="80" height="40" as="geometry" />
        </mxCell>
        <mxCell id="6uBSnt6w91KRwEMDHv7_-161" value="" style="rounded=0;whiteSpace=wrap;html=1;" parent="6uBSnt6w91KRwEMDHv7_-153" vertex="1">
          <mxGeometry x="34" y="10.549999999999955" width="40" height="20" as="geometry" />
        </mxCell>
        <mxCell id="6uBSnt6w91KRwEMDHv7_-162" value="" style="rounded=0;whiteSpace=wrap;html=1;" parent="6uBSnt6w91KRwEMDHv7_-153" vertex="1">
          <mxGeometry x="34" y="34.549999999999955" width="40" height="20" as="geometry" />
        </mxCell>
        <mxCell id="6uBSnt6w91KRwEMDHv7_-163" value="" style="rounded=0;whiteSpace=wrap;html=1;" parent="6uBSnt6w91KRwEMDHv7_-153" vertex="1">
          <mxGeometry x="11" y="15.55" width="10" height="10" as="geometry" />
        </mxCell>
      </root>
    </mxGraphModel>
  </diagram>
</mxfile>
